<?xml version="1.0" encoding="utf-8" standalone="no"?>
<!DOCTYPE svg PUBLIC "-//W3C//DTD SVG 1.1//EN"
  "http://www.w3.org/Graphics/SVG/1.1/DTD/svg11.dtd">
<svg xmlns:xlink="http://www.w3.org/1999/xlink" width="522.36pt" height="242.507734pt" viewBox="0 0 522.36 242.507734" xmlns="http://www.w3.org/2000/svg" version="1.1">
 <metadata>
  <rdf:RDF xmlns:dc="http://purl.org/dc/elements/1.1/" xmlns:cc="http://creativecommons.org/ns#" xmlns:rdf="http://www.w3.org/1999/02/22-rdf-syntax-ns#">
   <cc:Work>
    <dc:type rdf:resource="http://purl.org/dc/dcmitype/StillImage"/>
    <dc:date>2026-07-14T01:00:51.334839</dc:date>
    <dc:format>image/svg+xml</dc:format>
    <dc:creator>
     <cc:Agent>
      <dc:title>Matplotlib v3.10.7, https://matplotlib.org/</dc:title>
     </cc:Agent>
    </dc:creator>
   </cc:Work>
  </rdf:RDF>
 </metadata>
 <defs>
  <style type="text/css">*{stroke-linejoin: round; stroke-linecap: butt}</style>
 </defs>
 <g id="figure_1">
  <g id="patch_1">
   <path d="M 0 242.507734 
L 522.36 242.507734 
L 522.36 0 
L 0 0 
L 0 242.507734 
z
" style="fill: none"/>
  </g>
  <g id="axes_1">
   <g id="patch_2">
    <path d="M 36.072 218.16 
L 520.92 218.16 
L 520.92 49.32 
L 36.072 49.32 
L 36.072 218.16 
z
" style="fill: none"/>
   </g>
   <g id="line2d_1">
    <path d="M 36.072 62.307692 
L 520.92 62.307692 
" clip-path="url(#peaf4b4418c)" style="fill: none; stroke-dasharray: 3.2,3.2; stroke-dashoffset: 0; stroke: #1a7f37; stroke-opacity: 0.8; stroke-width: 0.8"/>
   </g>
   <g id="matplotlib.axis_1">
    <g id="xtick_1">
     <g id="line2d_2">
      <path d="M 59.638285 218.16 
L 59.638285 49.32 
" clip-path="url(#peaf4b4418c)" style="fill: none; stroke: #d0d7de; stroke-opacity: 0.45; stroke-width: 0.5; stroke-linecap: square"/>
     </g>
     <g id="line2d_3"/>
     <g id="text_1">
      <!-- 1 ms -->
      <g style="fill: #59626d" transform="translate(51.27266 227.5525) scale(0.08 -0.08)">
       <defs>
        <path id="Lato-Regular-31" d="M 3258 435 
L 3258 0 
L 800 0 
L 800 435 
L 1782 435 
L 1782 3562 
Q 1782 3702 1792 3846 
L 976 3146 
Q 934 3110 892 3102 
Q 851 3094 816 3100 
Q 781 3107 750 3126 
Q 720 3146 704 3168 
L 525 3414 
L 1891 4595 
L 2355 4595 
L 2355 435 
L 3258 435 
z
" transform="scale(0.015625)"/>
        <path id="Lato-Regular-20" transform="scale(0.015625)"/>
        <path id="Lato-Regular-6d" d="M 451 0 
L 451 3242 
L 794 3242 
Q 915 3242 944 3123 
L 986 2790 
Q 1165 3011 1389 3152 
Q 1613 3293 1907 3293 
Q 2234 3293 2437 3110 
Q 2640 2928 2730 2618 
Q 2800 2794 2910 2922 
Q 3021 3050 3158 3133 
Q 3296 3216 3451 3254 
Q 3606 3293 3766 3293 
Q 4022 3293 4222 3211 
Q 4422 3130 4561 2973 
Q 4701 2816 4774 2587 
Q 4848 2358 4848 2064 
L 4848 0 
L 4275 0 
L 4275 2064 
Q 4275 2445 4108 2641 
Q 3942 2838 3629 2838 
Q 3488 2838 3361 2788 
Q 3235 2739 3139 2643 
Q 3043 2547 2987 2401 
Q 2931 2256 2931 2064 
L 2931 0 
L 2358 0 
L 2358 2064 
Q 2358 2454 2201 2646 
Q 2045 2838 1744 2838 
Q 1533 2838 1353 2724 
Q 1174 2611 1024 2416 
L 1024 0 
L 451 0 
z
" transform="scale(0.015625)"/>
        <path id="Lato-Regular-73" d="M 2339 2707 
Q 2301 2637 2221 2637 
Q 2173 2637 2112 2672 
Q 2051 2707 1963 2750 
Q 1875 2794 1753 2830 
Q 1632 2867 1466 2867 
Q 1322 2867 1206 2830 
Q 1091 2794 1009 2730 
Q 928 2666 885 2581 
Q 842 2496 842 2397 
Q 842 2272 914 2189 
Q 986 2106 1104 2045 
Q 1222 1984 1372 1937 
Q 1523 1891 1681 1838 
Q 1840 1786 1990 1722 
Q 2141 1658 2259 1562 
Q 2378 1466 2450 1326 
Q 2522 1187 2522 992 
Q 2522 768 2442 577 
Q 2362 387 2205 248 
Q 2048 109 1821 29 
Q 1594 -51 1296 -51 
Q 957 -51 681 59 
Q 406 170 214 342 
L 349 560 
Q 374 602 409 624 
Q 445 646 499 646 
Q 557 646 621 601 
Q 685 557 776 502 
Q 867 448 998 403 
Q 1130 358 1325 358 
Q 1491 358 1616 401 
Q 1741 445 1824 518 
Q 1907 592 1947 688 
Q 1987 784 1987 893 
Q 1987 1027 1915 1115 
Q 1843 1203 1724 1265 
Q 1606 1328 1454 1374 
Q 1302 1421 1144 1472 
Q 986 1523 834 1588 
Q 682 1654 563 1753 
Q 445 1853 373 1998 
Q 301 2144 301 2352 
Q 301 2538 377 2709 
Q 454 2880 601 3009 
Q 749 3139 963 3216 
Q 1178 3293 1453 3293 
Q 1773 3293 2027 3192 
Q 2282 3091 2467 2915 
L 2339 2707 
z
" transform="scale(0.015625)"/>
       </defs>
       <use xlink:href="#Lato-Regular-31"/>
       <use xlink:href="#Lato-Regular-20" transform="translate(58 0)"/>
       <use xlink:href="#Lato-Regular-6d" transform="translate(83.600006 0)"/>
       <use xlink:href="#Lato-Regular-73" transform="translate(165.850021 0)"/>
      </g>
     </g>
    </g>
    <g id="xtick_2">
     <g id="line2d_4">
      <path d="M 165.865097 218.16 
L 165.865097 49.32 
" clip-path="url(#peaf4b4418c)" style="fill: none; stroke: #d0d7de; stroke-opacity: 0.45; stroke-width: 0.5; stroke-linecap: square"/>
     </g>
     <g id="line2d_5"/>
     <g id="text_2">
      <!-- 10 ms -->
      <g style="fill: #59626d" transform="translate(155.179472 227.5525) scale(0.08 -0.08)">
       <defs>
        <path id="Lato-Regular-30" d="M 3520 2291 
Q 3520 1690 3390 1250 
Q 3261 810 3037 522 
Q 2813 234 2507 93 
Q 2202 -48 1853 -48 
Q 1501 -48 1198 93 
Q 896 234 672 522 
Q 448 810 320 1250 
Q 192 1690 192 2291 
Q 192 2893 320 3334 
Q 448 3776 672 4065 
Q 896 4355 1198 4496 
Q 1501 4637 1853 4637 
Q 2202 4637 2507 4496 
Q 2813 4355 3037 4065 
Q 3261 3776 3390 3334 
Q 3520 2893 3520 2291 
z
M 2928 2291 
Q 2928 2816 2840 3173 
Q 2752 3530 2603 3747 
Q 2454 3965 2259 4059 
Q 2064 4154 1853 4154 
Q 1642 4154 1446 4059 
Q 1251 3965 1104 3747 
Q 957 3530 869 3173 
Q 781 2816 781 2291 
Q 781 1766 869 1411 
Q 957 1056 1104 838 
Q 1251 621 1446 526 
Q 1642 432 1853 432 
Q 2064 432 2259 526 
Q 2454 621 2603 838 
Q 2752 1056 2840 1411 
Q 2928 1766 2928 2291 
z
" transform="scale(0.015625)"/>
       </defs>
       <use xlink:href="#Lato-Regular-31"/>
       <use xlink:href="#Lato-Regular-30" transform="translate(58 0)"/>
       <use xlink:href="#Lato-Regular-20" transform="translate(116 0)"/>
       <use xlink:href="#Lato-Regular-6d" transform="translate(141.600006 0)"/>
       <use xlink:href="#Lato-Regular-73" transform="translate(223.850021 0)"/>
      </g>
     </g>
    </g>
    <g id="xtick_3">
     <g id="line2d_6">
      <path d="M 272.091908 218.16 
L 272.091908 49.32 
" clip-path="url(#peaf4b4418c)" style="fill: none; stroke: #d0d7de; stroke-opacity: 0.45; stroke-width: 0.5; stroke-linecap: square"/>
     </g>
     <g id="line2d_7"/>
     <g id="text_3">
      <!-- 100 ms -->
      <g style="fill: #59626d" transform="translate(259.086283 227.5525) scale(0.08 -0.08)">
       <use xlink:href="#Lato-Regular-31"/>
       <use xlink:href="#Lato-Regular-30" transform="translate(58 0)"/>
       <use xlink:href="#Lato-Regular-30" transform="translate(116 0)"/>
       <use xlink:href="#Lato-Regular-20" transform="translate(174 0)"/>
       <use xlink:href="#Lato-Regular-6d" transform="translate(199.600006 0)"/>
       <use xlink:href="#Lato-Regular-73" transform="translate(281.850021 0)"/>
      </g>
     </g>
    </g>
    <g id="xtick_4">
     <g id="line2d_8">
      <path d="M 378.318719 218.16 
L 378.318719 49.32 
" clip-path="url(#peaf4b4418c)" style="fill: none; stroke: #d0d7de; stroke-opacity: 0.45; stroke-width: 0.5; stroke-linecap: square"/>
     </g>
     <g id="line2d_9"/>
     <g id="text_4">
      <!-- 1 s -->
      <g style="fill: #59626d" transform="translate(373.243094 227.5525) scale(0.08 -0.08)">
       <use xlink:href="#Lato-Regular-31"/>
       <use xlink:href="#Lato-Regular-20" transform="translate(58 0)"/>
       <use xlink:href="#Lato-Regular-73" transform="translate(83.600006 0)"/>
      </g>
     </g>
    </g>
    <g id="xtick_5">
     <g id="line2d_10">
      <path d="M 484.54553 218.16 
L 484.54553 49.32 
" clip-path="url(#peaf4b4418c)" style="fill: none; stroke: #d0d7de; stroke-opacity: 0.45; stroke-width: 0.5; stroke-linecap: square"/>
     </g>
     <g id="line2d_11"/>
     <g id="text_5">
      <!-- 10 s -->
      <g style="fill: #59626d" transform="translate(477.149905 227.5525) scale(0.08 -0.08)">
       <use xlink:href="#Lato-Regular-31"/>
       <use xlink:href="#Lato-Regular-30" transform="translate(58 0)"/>
       <use xlink:href="#Lato-Regular-20" transform="translate(116 0)"/>
       <use xlink:href="#Lato-Regular-73" transform="translate(141.600006 0)"/>
      </g>
     </g>
    </g>
    <g id="xtick_6">
     <g id="line2d_12"/>
    </g>
    <g id="xtick_7">
     <g id="line2d_13"/>
    </g>
    <g id="xtick_8">
     <g id="line2d_14"/>
    </g>
    <g id="xtick_9">
     <g id="line2d_15"/>
    </g>
    <g id="xtick_10">
     <g id="line2d_16"/>
    </g>
    <g id="xtick_11">
     <g id="line2d_17"/>
    </g>
    <g id="xtick_12">
     <g id="line2d_18"/>
    </g>
    <g id="xtick_13">
     <g id="line2d_19"/>
    </g>
    <g id="xtick_14">
     <g id="line2d_20"/>
    </g>
    <g id="xtick_15">
     <g id="line2d_21"/>
    </g>
    <g id="xtick_16">
     <g id="line2d_22"/>
    </g>
    <g id="xtick_17">
     <g id="line2d_23"/>
    </g>
    <g id="xtick_18">
     <g id="line2d_24"/>
    </g>
    <g id="xtick_19">
     <g id="line2d_25"/>
    </g>
    <g id="xtick_20">
     <g id="line2d_26"/>
    </g>
    <g id="xtick_21">
     <g id="line2d_27"/>
    </g>
    <g id="xtick_22">
     <g id="line2d_28"/>
    </g>
    <g id="xtick_23">
     <g id="line2d_29"/>
    </g>
    <g id="xtick_24">
     <g id="line2d_30"/>
    </g>
    <g id="xtick_25">
     <g id="line2d_31"/>
    </g>
    <g id="xtick_26">
     <g id="line2d_32"/>
    </g>
    <g id="xtick_27">
     <g id="line2d_33"/>
    </g>
    <g id="xtick_28">
     <g id="line2d_34"/>
    </g>
    <g id="xtick_29">
     <g id="line2d_35"/>
    </g>
    <g id="xtick_30">
     <g id="line2d_36"/>
    </g>
    <g id="xtick_31">
     <g id="line2d_37"/>
    </g>
    <g id="xtick_32">
     <g id="line2d_38"/>
    </g>
    <g id="xtick_33">
     <g id="line2d_39"/>
    </g>
    <g id="xtick_34">
     <g id="line2d_40"/>
    </g>
    <g id="xtick_35">
     <g id="line2d_41"/>
    </g>
    <g id="xtick_36">
     <g id="line2d_42"/>
    </g>
    <g id="xtick_37">
     <g id="line2d_43"/>
    </g>
    <g id="xtick_38">
     <g id="line2d_44"/>
    </g>
    <g id="xtick_39">
     <g id="line2d_45"/>
    </g>
    <g id="xtick_40">
     <g id="line2d_46"/>
    </g>
    <g id="xtick_41">
     <g id="line2d_47"/>
    </g>
    <g id="xtick_42">
     <g id="line2d_48"/>
    </g>
    <g id="text_6">
     <!-- mean solve time (log scale) -->
     <g style="fill: #59626d" transform="translate(228.828773 239.516484) scale(0.085 -0.085)">
      <defs>
       <path id="Lato-Regular-65" d="M 2621 1974 
Q 2621 2173 2565 2337 
Q 2509 2502 2401 2622 
Q 2294 2742 2140 2808 
Q 1987 2874 1792 2874 
Q 1382 2874 1144 2635 
Q 906 2397 848 1974 
L 2621 1974 
z
M 3082 454 
Q 2976 326 2829 232 
Q 2682 138 2514 77 
Q 2346 16 2166 -14 
Q 1987 -45 1811 -45 
Q 1475 -45 1192 68 
Q 909 182 702 401 
Q 496 621 381 944 
Q 266 1267 266 1686 
Q 266 2026 370 2320 
Q 474 2614 669 2830 
Q 864 3046 1145 3169 
Q 1427 3293 1779 3293 
Q 2070 3293 2318 3195 
Q 2566 3098 2747 2914 
Q 2928 2730 3030 2459 
Q 3133 2189 3133 1843 
Q 3133 1709 3104 1664 
Q 3075 1619 2995 1619 
L 829 1619 
Q 838 1312 913 1085 
Q 989 858 1123 706 
Q 1258 554 1443 478 
Q 1629 403 1859 403 
Q 2074 403 2229 452 
Q 2384 502 2496 560 
Q 2608 618 2683 667 
Q 2758 717 2813 717 
Q 2883 717 2922 662 
L 3082 454 
z
" transform="scale(0.015625)"/>
       <path id="Lato-Regular-61" d="M 2208 1459 
Q 1814 1446 1537 1396 
Q 1261 1347 1086 1267 
Q 912 1187 833 1078 
Q 755 970 755 835 
Q 755 707 796 614 
Q 838 522 910 462 
Q 982 403 1080 376 
Q 1178 349 1290 349 
Q 1440 349 1565 379 
Q 1690 410 1800 467 
Q 1910 525 2011 605 
Q 2112 685 2208 787 
L 2208 1459 
z
M 368 2784 
Q 637 3043 947 3171 
Q 1258 3299 1635 3299 
Q 1907 3299 2118 3209 
Q 2330 3120 2474 2960 
Q 2618 2800 2691 2573 
Q 2765 2346 2765 2074 
L 2765 0 
L 2512 0 
Q 2429 0 2384 27 
Q 2339 54 2314 134 
L 2250 442 
Q 2122 323 2000 232 
Q 1878 141 1744 78 
Q 1610 16 1458 -17 
Q 1306 -51 1120 -51 
Q 931 -51 764 1 
Q 598 54 475 160 
Q 352 266 280 427 
Q 208 589 208 810 
Q 208 1002 313 1179 
Q 419 1357 656 1494 
Q 893 1632 1273 1720 
Q 1654 1808 2208 1821 
L 2208 2074 
Q 2208 2451 2045 2644 
Q 1882 2838 1568 2838 
Q 1357 2838 1214 2785 
Q 1072 2733 968 2667 
Q 864 2602 789 2549 
Q 714 2496 640 2496 
Q 582 2496 540 2526 
Q 499 2557 470 2602 
L 368 2784 
z
" transform="scale(0.015625)"/>
       <path id="Lato-Regular-6e" d="M 989 2771 
Q 1094 2890 1212 2986 
Q 1331 3082 1464 3150 
Q 1597 3219 1745 3256 
Q 1894 3293 2067 3293 
Q 2333 3293 2536 3205 
Q 2739 3117 2875 2955 
Q 3011 2794 3081 2566 
Q 3152 2339 3152 2064 
L 3152 0 
L 2579 0 
L 2579 2064 
Q 2579 2432 2411 2635 
Q 2243 2838 1901 2838 
Q 1648 2838 1429 2716 
Q 1210 2595 1024 2387 
L 1024 0 
L 451 0 
L 451 3242 
L 794 3242 
Q 915 3242 944 3123 
L 989 2771 
z
" transform="scale(0.015625)"/>
       <path id="Lato-Regular-6f" d="M 1818 3293 
Q 2173 3293 2457 3174 
Q 2742 3056 2944 2838 
Q 3146 2621 3253 2312 
Q 3360 2003 3360 1622 
Q 3360 1238 3253 931 
Q 3146 624 2944 406 
Q 2742 189 2457 72 
Q 2173 -45 1818 -45 
Q 1459 -45 1172 72 
Q 886 189 684 406 
Q 483 624 376 931 
Q 269 1238 269 1622 
Q 269 2003 376 2312 
Q 483 2621 684 2838 
Q 886 3056 1172 3174 
Q 1459 3293 1818 3293 
z
M 1818 400 
Q 2298 400 2534 721 
Q 2771 1043 2771 1619 
Q 2771 2198 2534 2521 
Q 2298 2845 1818 2845 
Q 1574 2845 1393 2761 
Q 1213 2678 1093 2521 
Q 973 2365 913 2136 
Q 854 1907 854 1619 
Q 854 1043 1092 721 
Q 1331 400 1818 400 
z
" transform="scale(0.015625)"/>
       <path id="Lato-Regular-6c" d="M 1040 4714 
L 1040 0 
L 470 0 
L 470 4714 
L 1040 4714 
z
" transform="scale(0.015625)"/>
       <path id="Lato-Regular-76" d="M 3229 3242 
L 1907 0 
L 1395 0 
L 74 3242 
L 538 3242 
Q 608 3242 653 3206 
Q 698 3171 714 3123 
L 1536 1037 
Q 1574 918 1603 806 
Q 1632 694 1658 582 
Q 1683 694 1712 806 
Q 1741 918 1782 1037 
L 2614 3123 
Q 2634 3174 2678 3208 
Q 2723 3242 2784 3242 
L 3229 3242 
z
" transform="scale(0.015625)"/>
       <path id="Lato-Regular-74" d="M 1446 -51 
Q 1062 -51 856 163 
Q 650 378 650 781 
L 650 2765 
L 259 2765 
Q 208 2765 173 2795 
Q 138 2826 138 2890 
L 138 3117 
L 669 3184 
L 800 4186 
Q 810 4234 843 4264 
Q 877 4294 931 4294 
L 1219 4294 
L 1219 3178 
L 2157 3178 
L 2157 2765 
L 1219 2765 
L 1219 819 
Q 1219 614 1318 515 
Q 1418 416 1574 416 
Q 1664 416 1729 440 
Q 1795 464 1843 493 
Q 1891 522 1924 546 
Q 1958 570 1984 570 
Q 2029 570 2064 515 
L 2230 243 
Q 2083 106 1875 27 
Q 1667 -51 1446 -51 
z
" transform="scale(0.015625)"/>
       <path id="Lato-Regular-69" d="M 1053 3242 
L 1053 0 
L 483 0 
L 483 3242 
L 1053 3242 
z
M 1174 4259 
Q 1174 4176 1140 4104 
Q 1107 4032 1051 3976 
Q 995 3920 920 3888 
Q 845 3856 762 3856 
Q 678 3856 606 3888 
Q 534 3920 480 3976 
Q 426 4032 394 4104 
Q 362 4176 362 4259 
Q 362 4342 394 4417 
Q 426 4493 480 4549 
Q 534 4605 606 4637 
Q 678 4669 762 4669 
Q 845 4669 920 4637 
Q 995 4605 1051 4549 
Q 1107 4493 1140 4417 
Q 1174 4342 1174 4259 
z
" transform="scale(0.015625)"/>
       <path id="Lato-Regular-28" d="M 784 2013 
Q 784 1328 958 681 
Q 1133 35 1469 -547 
Q 1520 -646 1494 -699 
Q 1469 -752 1421 -784 
L 1168 -938 
Q 928 -570 760 -208 
Q 592 154 488 518 
Q 384 883 336 1252 
Q 288 1622 288 2013 
Q 288 2400 336 2771 
Q 384 3142 488 3505 
Q 592 3869 760 4230 
Q 928 4592 1168 4963 
L 1421 4806 
Q 1469 4774 1494 4721 
Q 1520 4669 1469 4573 
Q 1133 3990 958 3344 
Q 784 2698 784 2013 
z
" transform="scale(0.015625)"/>
       <path id="Lato-Regular-67" d="M 1581 1584 
Q 1754 1584 1885 1632 
Q 2016 1680 2105 1766 
Q 2195 1853 2240 1973 
Q 2285 2093 2285 2237 
Q 2285 2534 2104 2710 
Q 1923 2886 1581 2886 
Q 1235 2886 1054 2710 
Q 874 2534 874 2237 
Q 874 2093 920 1973 
Q 966 1853 1056 1766 
Q 1146 1680 1277 1632 
Q 1408 1584 1581 1584 
z
M 2608 -176 
Q 2608 -58 2541 16 
Q 2474 90 2360 131 
Q 2246 173 2096 190 
Q 1946 208 1778 217 
Q 1610 227 1437 236 
Q 1264 246 1104 269 
Q 925 186 811 59 
Q 698 -67 698 -237 
Q 698 -346 754 -440 
Q 810 -534 925 -603 
Q 1040 -672 1214 -712 
Q 1389 -752 1626 -752 
Q 1856 -752 2038 -710 
Q 2221 -669 2347 -592 
Q 2474 -515 2541 -409 
Q 2608 -304 2608 -176 
z
M 3187 3114 
L 3187 2902 
Q 3187 2797 3053 2768 
L 2685 2720 
Q 2794 2509 2794 2253 
Q 2794 2016 2702 1822 
Q 2611 1629 2451 1491 
Q 2291 1354 2067 1280 
Q 1843 1206 1581 1206 
Q 1354 1206 1152 1261 
Q 1050 1197 995 1125 
Q 941 1053 941 979 
Q 941 864 1035 805 
Q 1130 746 1283 720 
Q 1437 694 1633 688 
Q 1830 682 2036 667 
Q 2243 653 2440 617 
Q 2637 582 2790 502 
Q 2944 422 3038 281 
Q 3133 141 3133 -83 
Q 3133 -291 3029 -486 
Q 2925 -682 2729 -834 
Q 2534 -986 2251 -1077 
Q 1968 -1168 1613 -1168 
Q 1258 -1168 992 -1097 
Q 726 -1027 550 -908 
Q 374 -790 286 -635 
Q 198 -480 198 -310 
Q 198 -70 348 96 
Q 499 262 762 362 
Q 618 426 533 533 
Q 448 640 448 822 
Q 448 893 473 968 
Q 499 1043 552 1118 
Q 605 1194 681 1261 
Q 758 1328 861 1379 
Q 621 1514 486 1736 
Q 352 1958 352 2253 
Q 352 2490 443 2683 
Q 534 2877 697 3013 
Q 861 3149 1086 3222 
Q 1312 3296 1581 3296 
Q 1792 3296 1974 3249 
Q 2157 3203 2307 3114 
L 3187 3114 
z
" transform="scale(0.015625)"/>
       <path id="Lato-Regular-63" d="M 2707 2666 
Q 2682 2630 2656 2611 
Q 2630 2592 2586 2592 
Q 2538 2592 2480 2632 
Q 2422 2672 2337 2720 
Q 2253 2768 2129 2808 
Q 2006 2848 1827 2848 
Q 1587 2848 1404 2763 
Q 1222 2678 1099 2518 
Q 976 2358 913 2131 
Q 851 1904 851 1622 
Q 851 1328 918 1099 
Q 986 870 1109 715 
Q 1232 560 1406 478 
Q 1581 397 1798 397 
Q 2006 397 2140 446 
Q 2275 496 2363 557 
Q 2451 618 2510 667 
Q 2570 717 2627 717 
Q 2698 717 2736 662 
L 2896 454 
Q 2790 323 2656 230 
Q 2522 138 2366 75 
Q 2211 13 2041 -16 
Q 1872 -45 1696 -45 
Q 1392 -45 1131 67 
Q 870 179 678 392 
Q 486 605 377 915 
Q 269 1226 269 1622 
Q 269 1984 369 2291 
Q 470 2598 664 2820 
Q 858 3043 1141 3168 
Q 1424 3293 1792 3293 
Q 2134 3293 2395 3182 
Q 2656 3072 2858 2870 
L 2707 2666 
z
" transform="scale(0.015625)"/>
       <path id="Lato-Regular-29" d="M 925 2013 
Q 925 2698 750 3344 
Q 576 3990 240 4573 
Q 214 4621 208 4657 
Q 202 4694 211 4721 
Q 221 4749 241 4769 
Q 262 4790 288 4806 
L 541 4963 
Q 781 4592 949 4230 
Q 1117 3869 1221 3505 
Q 1325 3142 1373 2771 
Q 1421 2400 1421 2013 
Q 1421 1622 1373 1252 
Q 1325 883 1221 518 
Q 1117 154 949 -208 
Q 781 -570 541 -938 
L 288 -784 
Q 262 -768 241 -747 
Q 221 -726 211 -699 
Q 202 -672 208 -633 
Q 214 -595 240 -547 
Q 576 35 750 681 
Q 925 1328 925 2013 
z
" transform="scale(0.015625)"/>
      </defs>
      <use xlink:href="#Lato-Regular-6d"/>
      <use xlink:href="#Lato-Regular-65" transform="translate(82.250015 0)"/>
      <use xlink:href="#Lato-Regular-61" transform="translate(135.050018 0)"/>
      <use xlink:href="#Lato-Regular-6e" transform="translate(184.750031 0)"/>
      <use xlink:href="#Lato-Regular-20" transform="translate(240.550034 0)"/>
      <use xlink:href="#Lato-Regular-73" transform="translate(266.15004 0)"/>
      <use xlink:href="#Lato-Regular-6f" transform="translate(309.450043 0)"/>
      <use xlink:href="#Lato-Regular-6c" transform="translate(366.150055 0)"/>
      <use xlink:href="#Lato-Regular-76" transform="translate(389.750061 0)"/>
      <use xlink:href="#Lato-Regular-65" transform="translate(441.350067 0)"/>
      <use xlink:href="#Lato-Regular-20" transform="translate(494.15007 0)"/>
      <use xlink:href="#Lato-Regular-74" transform="translate(519.750076 0)"/>
      <use xlink:href="#Lato-Regular-69" transform="translate(555.600082 0)"/>
      <use xlink:href="#Lato-Regular-6d" transform="translate(579.600082 0)"/>
      <use xlink:href="#Lato-Regular-65" transform="translate(661.850098 0)"/>
      <use xlink:href="#Lato-Regular-20" transform="translate(714.650101 0)"/>
      <use xlink:href="#Lato-Regular-28" transform="translate(740.250107 0)"/>
      <use xlink:href="#Lato-Regular-6c" transform="translate(766.950104 0)"/>
      <use xlink:href="#Lato-Regular-6f" transform="translate(790.55011 0)"/>
      <use xlink:href="#Lato-Regular-67" transform="translate(847.250122 0)"/>
      <use xlink:href="#Lato-Regular-20" transform="translate(899.250122 0)"/>
      <use xlink:href="#Lato-Regular-73" transform="translate(924.850128 0)"/>
      <use xlink:href="#Lato-Regular-63" transform="translate(968.150131 0)"/>
      <use xlink:href="#Lato-Regular-61" transform="translate(1015.900131 0)"/>
      <use xlink:href="#Lato-Regular-6c" transform="translate(1065.600143 0)"/>
      <use xlink:href="#Lato-Regular-65" transform="translate(1089.20015 0)"/>
      <use xlink:href="#Lato-Regular-29" transform="translate(1142.000153 0)"/>
     </g>
    </g>
   </g>
   <g id="matplotlib.axis_2">
    <g id="ytick_1">
     <g id="line2d_49">
      <path d="M 36.072 192.184615 
L 520.92 192.184615 
" clip-path="url(#peaf4b4418c)" style="fill: none; stroke: #d0d7de; stroke-opacity: 0.45; stroke-width: 0.5; stroke-linecap: square"/>
     </g>
     <g id="line2d_50"/>
     <g id="text_7">
      <!-- 60 -->
      <g style="fill: #59626d" transform="translate(23.292 195.130865) scale(0.08 -0.08)">
       <defs>
        <path id="Lato-Regular-36" d="M 1850 422 
Q 2080 422 2267 496 
Q 2454 570 2587 701 
Q 2720 832 2792 1011 
Q 2864 1190 2864 1402 
Q 2864 1626 2793 1806 
Q 2723 1987 2593 2113 
Q 2464 2240 2285 2307 
Q 2106 2374 1891 2374 
Q 1661 2374 1475 2296 
Q 1290 2218 1160 2085 
Q 1030 1952 961 1777 
Q 893 1603 893 1414 
Q 893 1194 957 1011 
Q 1021 829 1144 697 
Q 1267 566 1444 494 
Q 1622 422 1850 422 
z
M 1517 2867 
Q 1456 2790 1400 2718 
Q 1344 2646 1293 2576 
Q 1456 2688 1651 2749 
Q 1846 2810 2077 2810 
Q 2355 2810 2601 2718 
Q 2848 2627 3032 2452 
Q 3216 2278 3325 2024 
Q 3434 1770 3434 1443 
Q 3434 1126 3318 854 
Q 3203 582 2996 380 
Q 2790 179 2500 64 
Q 2211 -51 1862 -51 
Q 1517 -51 1235 59 
Q 954 170 757 373 
Q 560 576 453 865 
Q 346 1155 346 1514 
Q 346 1814 478 2155 
Q 611 2496 902 2883 
L 2067 4448 
Q 2112 4506 2190 4546 
Q 2269 4586 2371 4586 
L 2877 4586 
L 1517 2867 
z
" transform="scale(0.015625)"/>
       </defs>
       <use xlink:href="#Lato-Regular-36"/>
       <use xlink:href="#Lato-Regular-30" transform="translate(58 0)"/>
      </g>
     </g>
    </g>
    <g id="ytick_2">
     <g id="line2d_51">
      <path d="M 36.072 159.715385 
L 520.92 159.715385 
" clip-path="url(#peaf4b4418c)" style="fill: none; stroke: #d0d7de; stroke-opacity: 0.45; stroke-width: 0.5; stroke-linecap: square"/>
     </g>
     <g id="line2d_52"/>
     <g id="text_8">
      <!-- 70 -->
      <g style="fill: #59626d" transform="translate(23.292 162.661635) scale(0.08 -0.08)">
       <defs>
        <path id="Lato-Regular-37" d="M 3459 4586 
L 3459 4330 
Q 3459 4221 3435 4150 
Q 3411 4080 3389 4032 
L 1488 202 
Q 1446 118 1372 59 
Q 1299 0 1178 0 
L 768 0 
L 2694 3782 
Q 2736 3862 2781 3929 
Q 2826 3997 2877 4058 
L 483 4058 
Q 429 4058 387 4101 
Q 346 4144 346 4198 
L 346 4586 
L 3459 4586 
z
" transform="scale(0.015625)"/>
       </defs>
       <use xlink:href="#Lato-Regular-37"/>
       <use xlink:href="#Lato-Regular-30" transform="translate(58 0)"/>
      </g>
     </g>
    </g>
    <g id="ytick_3">
     <g id="line2d_53">
      <path d="M 36.072 127.246154 
L 520.92 127.246154 
" clip-path="url(#peaf4b4418c)" style="fill: none; stroke: #d0d7de; stroke-opacity: 0.45; stroke-width: 0.5; stroke-linecap: square"/>
     </g>
     <g id="line2d_54"/>
     <g id="text_9">
      <!-- 80 -->
      <g style="fill: #59626d" transform="translate(23.292 130.192404) scale(0.08 -0.08)">
       <defs>
        <path id="Lato-Regular-38" d="M 1856 403 
Q 2080 403 2257 465 
Q 2435 528 2558 641 
Q 2682 755 2747 913 
Q 2813 1072 2813 1264 
Q 2813 1501 2734 1669 
Q 2656 1837 2523 1942 
Q 2390 2048 2217 2097 
Q 2045 2147 1856 2147 
Q 1667 2147 1494 2097 
Q 1322 2048 1189 1942 
Q 1056 1837 977 1669 
Q 899 1501 899 1264 
Q 899 1072 964 913 
Q 1030 755 1153 641 
Q 1277 528 1454 465 
Q 1632 403 1856 403 
z
M 1856 4195 
Q 1651 4195 1496 4134 
Q 1341 4074 1237 3968 
Q 1133 3862 1080 3721 
Q 1027 3581 1027 3421 
Q 1027 3264 1072 3117 
Q 1117 2970 1216 2856 
Q 1315 2742 1473 2673 
Q 1632 2605 1856 2605 
Q 2080 2605 2238 2673 
Q 2397 2742 2496 2856 
Q 2595 2970 2640 3117 
Q 2685 3264 2685 3421 
Q 2685 3581 2632 3721 
Q 2579 3862 2475 3968 
Q 2371 4074 2216 4134 
Q 2061 4195 1856 4195 
z
M 2512 2390 
Q 2941 2269 3171 1984 
Q 3402 1699 3402 1254 
Q 3402 954 3288 712 
Q 3174 470 2971 300 
Q 2768 131 2483 40 
Q 2198 -51 1856 -51 
Q 1514 -51 1229 40 
Q 944 131 739 300 
Q 534 470 422 712 
Q 310 954 310 1254 
Q 310 1699 540 1984 
Q 771 2269 1200 2390 
Q 838 2525 654 2792 
Q 470 3059 470 3430 
Q 470 3683 569 3904 
Q 669 4125 851 4288 
Q 1034 4451 1288 4544 
Q 1542 4637 1856 4637 
Q 2166 4637 2422 4544 
Q 2678 4451 2860 4288 
Q 3043 4125 3142 3904 
Q 3242 3683 3242 3430 
Q 3242 3059 3058 2792 
Q 2874 2525 2512 2390 
z
" transform="scale(0.015625)"/>
       </defs>
       <use xlink:href="#Lato-Regular-38"/>
       <use xlink:href="#Lato-Regular-30" transform="translate(58 0)"/>
      </g>
     </g>
    </g>
    <g id="ytick_4">
     <g id="line2d_55">
      <path d="M 36.072 94.776923 
L 520.92 94.776923 
" clip-path="url(#peaf4b4418c)" style="fill: none; stroke: #d0d7de; stroke-opacity: 0.45; stroke-width: 0.5; stroke-linecap: square"/>
     </g>
     <g id="line2d_56"/>
     <g id="text_10">
      <!-- 90 -->
      <g style="fill: #59626d" transform="translate(23.292 97.723173) scale(0.08 -0.08)">
       <defs>
        <path id="Lato-Regular-39" d="M 906 3238 
Q 906 3021 968 2849 
Q 1030 2678 1147 2560 
Q 1264 2442 1432 2381 
Q 1600 2320 1808 2320 
Q 2038 2320 2216 2395 
Q 2394 2470 2515 2595 
Q 2637 2720 2701 2883 
Q 2765 3046 2765 3222 
Q 2765 3437 2696 3611 
Q 2627 3786 2505 3907 
Q 2384 4029 2216 4094 
Q 2048 4160 1846 4160 
Q 1635 4160 1462 4091 
Q 1290 4022 1165 3900 
Q 1040 3779 973 3609 
Q 906 3440 906 3238 
z
M 2237 1827 
Q 2307 1920 2368 2003 
Q 2429 2086 2483 2170 
Q 2307 2029 2086 1955 
Q 1866 1882 1619 1882 
Q 1360 1882 1128 1968 
Q 896 2054 720 2222 
Q 544 2390 440 2635 
Q 336 2880 336 3197 
Q 336 3498 448 3760 
Q 560 4022 761 4217 
Q 963 4413 1241 4525 
Q 1520 4637 1853 4637 
Q 2182 4637 2451 4528 
Q 2720 4419 2912 4224 
Q 3104 4029 3208 3757 
Q 3312 3485 3312 3155 
Q 3312 2957 3275 2779 
Q 3238 2602 3169 2430 
Q 3101 2259 3001 2091 
Q 2902 1923 2778 1747 
L 1661 134 
Q 1619 74 1542 37 
Q 1466 0 1366 0 
L 842 0 
L 2237 1827 
z
" transform="scale(0.015625)"/>
       </defs>
       <use xlink:href="#Lato-Regular-39"/>
       <use xlink:href="#Lato-Regular-30" transform="translate(58 0)"/>
      </g>
     </g>
    </g>
    <g id="ytick_5">
     <g id="line2d_57">
      <path d="M 36.072 62.307692 
L 520.92 62.307692 
" clip-path="url(#peaf4b4418c)" style="fill: none; stroke: #d0d7de; stroke-opacity: 0.45; stroke-width: 0.5; stroke-linecap: square"/>
     </g>
     <g id="line2d_58"/>
     <g id="text_11">
      <!-- 100 -->
      <g style="fill: #59626d" transform="translate(18.652 65.253942) scale(0.08 -0.08)">
       <use xlink:href="#Lato-Regular-31"/>
       <use xlink:href="#Lato-Regular-30" transform="translate(58 0)"/>
       <use xlink:href="#Lato-Regular-30" transform="translate(116 0)"/>
      </g>
     </g>
    </g>
    <g id="text_12">
     <!-- mean packing efficiency (%) -->
     <g style="fill: #59626d" transform="translate(13.10075 185.314414) rotate(-90) scale(0.085 -0.085)">
      <defs>
       <path id="Lato-Regular-70" d="M 1024 781 
Q 1181 570 1366 483 
Q 1552 397 1782 397 
Q 2237 397 2480 720 
Q 2723 1043 2723 1642 
Q 2723 1958 2667 2185 
Q 2611 2413 2505 2558 
Q 2400 2704 2246 2771 
Q 2093 2838 1898 2838 
Q 1619 2838 1409 2710 
Q 1200 2582 1024 2349 
L 1024 781 
z
M 995 2739 
Q 1200 2992 1469 3145 
Q 1738 3299 2083 3299 
Q 2365 3299 2592 3192 
Q 2819 3085 2979 2875 
Q 3139 2666 3225 2355 
Q 3312 2045 3312 1642 
Q 3312 1283 3216 974 
Q 3120 666 2939 440 
Q 2758 214 2497 84 
Q 2237 -45 1910 -45 
Q 1613 -45 1400 56 
Q 1187 157 1024 336 
L 1024 -1098 
L 451 -1098 
L 451 3242 
L 794 3242 
Q 915 3242 944 3123 
L 995 2739 
z
" transform="scale(0.015625)"/>
       <path id="Lato-Regular-6b" d="M 1024 4714 
L 1024 1939 
L 1171 1939 
Q 1235 1939 1278 1956 
Q 1322 1974 1370 2029 
L 2394 3126 
Q 2438 3181 2488 3211 
Q 2538 3242 2621 3242 
L 3136 3242 
L 1942 1971 
Q 1856 1862 1757 1802 
Q 1814 1763 1860 1713 
Q 1907 1664 1949 1600 
L 3216 0 
L 2707 0 
Q 2634 0 2581 24 
Q 2528 48 2490 112 
L 1424 1440 
Q 1376 1507 1329 1528 
Q 1283 1549 1187 1549 
L 1024 1549 
L 1024 0 
L 451 0 
L 451 4714 
L 1024 4714 
z
" transform="scale(0.015625)"/>
       <path id="Lato-Regular-66" d="M 662 0 
L 662 2755 
L 304 2797 
Q 237 2813 193 2846 
Q 150 2880 150 2944 
L 150 3178 
L 662 3178 
L 662 3491 
Q 662 3770 740 3986 
Q 819 4202 964 4350 
Q 1110 4499 1315 4576 
Q 1520 4653 1776 4653 
Q 1994 4653 2176 4589 
L 2163 4304 
Q 2157 4227 2078 4220 
Q 2000 4214 1869 4214 
Q 1722 4214 1602 4176 
Q 1482 4138 1395 4051 
Q 1309 3965 1262 3824 
Q 1216 3683 1216 3475 
L 1216 3178 
L 2150 3178 
L 2150 2765 
L 1235 2765 
L 1235 0 
L 662 0 
z
" transform="scale(0.015625)"/>
       <path id="Lato-Regular-79" d="M 3248 3242 
L 1440 -957 
Q 1411 -1021 1368 -1059 
Q 1325 -1098 1235 -1098 
L 813 -1098 
L 1405 189 
L 67 3242 
L 560 3242 
Q 634 3242 677 3205 
Q 720 3168 736 3123 
L 1603 1082 
Q 1654 947 1690 800 
Q 1734 950 1786 1085 
L 2627 3123 
Q 2646 3174 2692 3208 
Q 2739 3242 2797 3242 
L 3248 3242 
z
" transform="scale(0.015625)"/>
       <path id="Lato-Regular-25" d="M 2310 3478 
Q 2310 3210 2227 2997 
Q 2144 2784 2005 2638 
Q 1866 2493 1682 2416 
Q 1498 2339 1293 2339 
Q 1078 2339 892 2416 
Q 707 2493 571 2638 
Q 435 2784 358 2997 
Q 282 3210 282 3478 
Q 282 3754 358 3968 
Q 435 4182 571 4329 
Q 707 4477 892 4553 
Q 1078 4630 1293 4630 
Q 1510 4630 1696 4553 
Q 1882 4477 2019 4329 
Q 2157 4182 2233 3968 
Q 2310 3754 2310 3478 
z
M 1869 3478 
Q 1869 3690 1824 3837 
Q 1779 3984 1700 4078 
Q 1622 4173 1516 4214 
Q 1411 4256 1293 4256 
Q 1174 4256 1072 4214 
Q 970 4173 893 4078 
Q 816 3984 771 3837 
Q 726 3690 726 3478 
Q 726 3270 771 3124 
Q 816 2979 893 2888 
Q 970 2797 1072 2757 
Q 1174 2717 1293 2717 
Q 1411 2717 1516 2757 
Q 1622 2797 1700 2888 
Q 1779 2979 1824 3124 
Q 1869 3270 1869 3478 
z
M 3933 4490 
Q 3965 4528 4008 4557 
Q 4051 4586 4125 4586 
L 4538 4586 
L 1184 93 
Q 1155 51 1110 25 
Q 1066 0 1002 0 
L 582 0 
L 3933 4490 
z
M 4848 1082 
Q 4848 813 4765 601 
Q 4682 390 4542 244 
Q 4403 99 4219 22 
Q 4035 -54 3830 -54 
Q 3613 -54 3429 22 
Q 3245 99 3109 244 
Q 2973 390 2896 601 
Q 2819 813 2819 1082 
Q 2819 1357 2896 1573 
Q 2973 1789 3109 1936 
Q 3245 2083 3429 2160 
Q 3613 2237 3830 2237 
Q 4045 2237 4232 2160 
Q 4419 2083 4555 1936 
Q 4691 1789 4769 1573 
Q 4848 1357 4848 1082 
z
M 4406 1082 
Q 4406 1293 4361 1441 
Q 4317 1590 4238 1683 
Q 4160 1776 4054 1817 
Q 3949 1859 3830 1859 
Q 3712 1859 3608 1817 
Q 3504 1776 3427 1683 
Q 3350 1590 3307 1441 
Q 3264 1293 3264 1082 
Q 3264 874 3307 730 
Q 3350 586 3427 494 
Q 3504 403 3608 363 
Q 3712 323 3830 323 
Q 3949 323 4054 363 
Q 4160 403 4238 494 
Q 4317 586 4361 730 
Q 4406 874 4406 1082 
z
" transform="scale(0.015625)"/>
      </defs>
      <use xlink:href="#Lato-Regular-6d"/>
      <use xlink:href="#Lato-Regular-65" transform="translate(82.250015 0)"/>
      <use xlink:href="#Lato-Regular-61" transform="translate(135.050018 0)"/>
      <use xlink:href="#Lato-Regular-6e" transform="translate(184.750031 0)"/>
      <use xlink:href="#Lato-Regular-20" transform="translate(240.550034 0)"/>
      <use xlink:href="#Lato-Regular-70" transform="translate(266.15004 0)"/>
      <use xlink:href="#Lato-Regular-61" transform="translate(322.200043 0)"/>
      <use xlink:href="#Lato-Regular-63" transform="translate(371.900055 0)"/>
      <use xlink:href="#Lato-Regular-6b" transform="translate(419.650055 0)"/>
      <use xlink:href="#Lato-Regular-69" transform="translate(470.450058 0)"/>
      <use xlink:href="#Lato-Regular-6e" transform="translate(494.450058 0)"/>
      <use xlink:href="#Lato-Regular-67" transform="translate(550.250061 0)"/>
      <use xlink:href="#Lato-Regular-20" transform="translate(602.250061 0)"/>
      <use xlink:href="#Lato-Regular-65" transform="translate(627.850067 0)"/>
      <use xlink:href="#Lato-Regular-66" transform="translate(680.65007 0)"/>
      <use xlink:href="#Lato-Regular-66" transform="translate(715.700073 0)"/>
      <use xlink:href="#Lato-Regular-69" transform="translate(750.750076 0)"/>
      <use xlink:href="#Lato-Regular-63" transform="translate(774.750076 0)"/>
      <use xlink:href="#Lato-Regular-69" transform="translate(822.500076 0)"/>
      <use xlink:href="#Lato-Regular-65" transform="translate(846.500076 0)"/>
      <use xlink:href="#Lato-Regular-6e" transform="translate(899.300079 0)"/>
      <use xlink:href="#Lato-Regular-63" transform="translate(955.100082 0)"/>
      <use xlink:href="#Lato-Regular-79" transform="translate(1002.850082 0)"/>
      <use xlink:href="#Lato-Regular-20" transform="translate(1054.400085 0)"/>
      <use xlink:href="#Lato-Regular-28" transform="translate(1080.000092 0)"/>
      <use xlink:href="#Lato-Regular-25" transform="translate(1106.700089 0)"/>
      <use xlink:href="#Lato-Regular-29" transform="translate(1186.850098 0)"/>
     </g>
    </g>
   </g>
   <g id="line2d_59">
    <path d="M 56.589171 187.412487 
L 66.51929 145.455939 
L 225.825874 126.680817 
L 371.502415 70.054775 
" clip-path="url(#peaf4b4418c)" style="fill: none; stroke-dasharray: 0.9,1.8; stroke-dashoffset: 0; stroke: #818b98; stroke-width: 0.9"/>
   </g>
   <g id="text_13">
    <!-- optimal -->
    <g style="fill: #1a7f37" transform="translate(494.309453 59.307692) scale(0.075 -0.075)">
     <use xlink:href="#Lato-Regular-6f"/>
     <use xlink:href="#Lato-Regular-70" transform="translate(56.700012 0)"/>
     <use xlink:href="#Lato-Regular-74" transform="translate(112.750015 0)"/>
     <use xlink:href="#Lato-Regular-69" transform="translate(148.600021 0)"/>
     <use xlink:href="#Lato-Regular-6d" transform="translate(172.600021 0)"/>
     <use xlink:href="#Lato-Regular-61" transform="translate(254.850037 0)"/>
     <use xlink:href="#Lato-Regular-6c" transform="translate(304.550049 0)"/>
    </g>
   </g>
   <g id="PathCollection_1">
    <path d="M 239.681472 175.676217 
C 240.637675 175.676217 241.554843 175.296313 242.230981 174.620175 
C 242.907119 173.944037 243.287023 173.026869 243.287023 172.070665 
C 243.287023 171.114462 242.907119 170.197293 242.230981 169.521156 
C 241.554843 168.845018 240.637675 168.465114 239.681472 168.465114 
C 238.725268 168.465114 237.8081 168.845018 237.131962 169.521156 
C 236.455824 170.197293 236.07592 171.114462 236.07592 172.070665 
C 236.07592 173.026869 236.455824 173.944037 237.131962 174.620175 
C 237.8081 175.296313 238.725268 175.676217 239.681472 175.676217 
z
" clip-path="url(#peaf4b4418c)" style="fill: #848d97"/>
   </g>
   <g id="PathCollection_2">
    <path d="M 66.51929 149.06149 
C 67.475494 149.06149 68.392662 148.681587 69.0688 148.005449 
C 69.744938 147.329311 70.124842 146.412142 70.124842 145.455939 
C 70.124842 144.499736 69.744938 143.582567 69.0688 142.906429 
C 68.392662 142.230291 67.475494 141.850388 66.51929 141.850388 
C 65.563087 141.850388 64.645918 142.230291 63.969781 142.906429 
C 63.293643 143.582567 62.913739 144.499736 62.913739 145.455939 
C 62.913739 146.412142 63.293643 147.329311 63.969781 148.005449 
C 64.645918 148.681587 65.563087 149.06149 66.51929 149.06149 
z
" clip-path="url(#peaf4b4418c)" style="fill: #0969da"/>
   </g>
   <g id="PathCollection_3">
    <path d="M 225.825874 130.286369 
C 226.782078 130.286369 227.699246 129.906465 228.375384 129.230327 
C 229.051522 128.554189 229.431426 127.637021 229.431426 126.680817 
C 229.431426 125.724614 229.051522 124.807445 228.375384 124.131307 
C 227.699246 123.45517 226.782078 123.075266 225.825874 123.075266 
C 224.869671 123.075266 223.952503 123.45517 223.276365 124.131307 
C 222.600227 124.807445 222.220323 125.724614 222.220323 126.680817 
C 222.220323 127.637021 222.600227 128.554189 223.276365 129.230327 
C 223.952503 129.906465 224.869671 130.286369 225.825874 130.286369 
z
" clip-path="url(#peaf4b4418c)" style="fill: #0969da"/>
   </g>
   <g id="PathCollection_4">
    <path d="M 56.589171 191.018038 
C 57.545375 191.018038 58.462543 190.638134 59.138681 189.961996 
C 59.814819 189.285859 60.194723 188.36869 60.194723 187.412487 
C 60.194723 186.456283 59.814819 185.539115 59.138681 184.862977 
C 58.462543 184.186839 57.545375 183.806935 56.589171 183.806935 
C 55.632968 183.806935 54.715799 184.186839 54.039662 184.862977 
C 53.363524 185.539115 52.98362 186.456283 52.98362 187.412487 
C 52.98362 188.36869 53.363524 189.285859 54.039662 189.961996 
C 54.715799 190.638134 55.632968 191.018038 56.589171 191.018038 
z
" clip-path="url(#peaf4b4418c)" style="fill: #54aeff"/>
   </g>
   <g id="PathCollection_5">
    <path d="M 301.026937 141.80597 
C 301.98314 141.80597 302.900309 141.426067 303.576447 140.749929 
C 304.252585 140.073791 304.632488 139.156622 304.632488 138.200419 
C 304.632488 137.244216 304.252585 136.327047 303.576447 135.650909 
C 302.900309 134.974771 301.98314 134.594868 301.026937 134.594868 
C 300.070734 134.594868 299.153565 134.974771 298.477427 135.650909 
C 297.801289 136.327047 297.421386 137.244216 297.421386 138.200419 
C 297.421386 139.156622 297.801289 140.073791 298.477427 140.749929 
C 299.153565 141.426067 300.070734 141.80597 301.026937 141.80597 
z
" clip-path="url(#peaf4b4418c)" style="fill: #9a6700"/>
   </g>
   <g id="PathCollection_6">
    <path d="M 408.794602 127.790646 
C 409.750805 127.790646 410.667974 127.410743 411.344112 126.734605 
C 412.020249 126.058467 412.400153 125.141298 412.400153 124.185095 
C 412.400153 123.228892 412.020249 122.311723 411.344112 121.635585 
C 410.667974 120.959447 409.750805 120.579544 408.794602 120.579544 
C 407.838398 120.579544 406.92123 120.959447 406.245092 121.635585 
C 405.568954 122.311723 405.189051 123.228892 405.189051 124.185095 
C 405.189051 125.141298 405.568954 126.058467 406.245092 126.734605 
C 406.92123 127.410743 407.838398 127.790646 408.794602 127.790646 
z
" clip-path="url(#peaf4b4418c)" style="fill: #9a6700"/>
   </g>
   <g id="PathCollection_7">
    <path d="M 372.879983 122.634205 
C 373.836186 122.634205 374.753355 122.254301 375.429492 121.578163 
C 376.10563 120.902025 376.485534 119.984857 376.485534 119.028653 
C 376.485534 118.07245 376.10563 117.155282 375.429492 116.479144 
C 374.753355 115.803006 373.836186 115.423102 372.879983 115.423102 
C 371.923779 115.423102 371.006611 115.803006 370.330473 116.479144 
C 369.654335 117.155282 369.274431 118.07245 369.274431 119.028653 
C 369.274431 119.984857 369.654335 120.902025 370.330473 121.578163 
C 371.006611 122.254301 371.923779 122.634205 372.879983 122.634205 
z
" clip-path="url(#peaf4b4418c)" style="fill: #bc4c00"/>
   </g>
   <g id="PathCollection_8">
    <path d="M 408.708664 112.872453 
C 409.664868 112.872453 410.582036 112.492549 411.258174 111.816411 
C 411.934312 111.140273 412.314215 110.223105 412.314215 109.266901 
C 412.314215 108.310698 411.934312 107.393529 411.258174 106.717392 
C 410.582036 106.041254 409.664868 105.66135 408.708664 105.66135 
C 407.752461 105.66135 406.835292 106.041254 406.159154 106.717392 
C 405.483017 107.393529 405.103113 108.310698 405.103113 109.266901 
C 405.103113 110.223105 405.483017 111.140273 406.159154 111.816411 
C 406.835292 112.492549 407.752461 112.872453 408.708664 112.872453 
z
" clip-path="url(#peaf4b4418c)" style="fill: #bc4c00"/>
   </g>
   <g id="PathCollection_9">
    <path d="M 388.34839 132.507189 
C 389.304594 132.507189 390.221762 132.127286 390.8979 131.451148 
C 391.574038 130.77501 391.953941 129.857841 391.953941 128.901638 
C 391.953941 127.945435 391.574038 127.028266 390.8979 126.352128 
C 390.221762 125.67599 389.304594 125.296087 388.34839 125.296087 
C 387.392187 125.296087 386.475018 125.67599 385.79888 126.352128 
C 385.122743 127.028266 384.742839 127.945435 384.742839 128.901638 
C 384.742839 129.857841 385.122743 130.77501 385.79888 131.451148 
C 386.475018 132.127286 387.392187 132.507189 388.34839 132.507189 
z
" clip-path="url(#peaf4b4418c)" style="fill: #1b7c83"/>
   </g>
   <g id="PathCollection_10">
    <path d="M 421.697668 106.879428 
C 422.653871 106.879428 423.571039 106.499524 424.247177 105.823386 
C 424.923315 105.147248 425.303219 104.23008 425.303219 103.273876 
C 425.303219 102.317673 424.923315 101.400504 424.247177 100.724367 
C 423.571039 100.048229 422.653871 99.668325 421.697668 99.668325 
C 420.741464 99.668325 419.824296 100.048229 419.148158 100.724367 
C 418.47202 101.400504 418.092116 102.317673 418.092116 103.273876 
C 418.092116 104.23008 418.47202 105.147248 419.148158 105.823386 
C 419.824296 106.499524 420.741464 106.879428 421.697668 106.879428 
z
" clip-path="url(#peaf4b4418c)" style="fill: #bf3989"/>
   </g>
   <g id="PathCollection_11">
    <defs>
     <path id="m494653cee0" d="M 0 5.244044 
C 1.390737 5.244044 2.7247 4.691499 3.708099 3.708099 
C 4.691499 2.7247 5.244044 1.390737 5.244044 0 
C 5.244044 -1.390737 4.691499 -2.7247 3.708099 -3.708099 
C 2.7247 -4.691499 1.390737 -5.244044 0 -5.244044 
C -1.390737 -5.244044 -2.7247 -4.691499 -3.708099 -3.708099 
C -4.691499 -2.7247 -5.244044 -1.390737 -5.244044 0 
C -5.244044 1.390737 -4.691499 2.7247 -3.708099 3.708099 
C -2.7247 4.691499 -1.390737 5.244044 0 5.244044 
z
" style="stroke: #24292f; stroke-width: 1.4"/>
    </defs>
    <g clip-path="url(#peaf4b4418c)">
     <use xlink:href="#m494653cee0" x="371.502415" y="70.054775" style="fill: #8250df; stroke: #24292f; stroke-width: 1.4"/>
    </g>
   </g>
   <g id="text_14">
    <!-- random search -->
    <g style="fill: #848d97" transform="translate(213.753347 185.330665) scale(0.08 -0.08)">
     <defs>
      <path id="Lato-Regular-72" d="M 992 2592 
Q 1146 2925 1370 3112 
Q 1594 3299 1917 3299 
Q 2019 3299 2113 3276 
Q 2208 3254 2282 3206 
L 2240 2781 
Q 2221 2701 2144 2701 
Q 2099 2701 2012 2720 
Q 1926 2739 1818 2739 
Q 1664 2739 1544 2694 
Q 1424 2650 1329 2562 
Q 1235 2474 1160 2344 
Q 1085 2214 1024 2048 
L 1024 0 
L 451 0 
L 451 3242 
L 778 3242 
Q 870 3242 905 3206 
Q 941 3171 954 3085 
L 992 2592 
z
" transform="scale(0.015625)"/>
      <path id="Lato-Regular-64" d="M 2563 2470 
Q 2403 2685 2217 2769 
Q 2032 2854 1802 2854 
Q 1350 2854 1107 2531 
Q 864 2208 864 1610 
Q 864 1293 918 1067 
Q 973 842 1078 696 
Q 1184 550 1337 483 
Q 1491 416 1686 416 
Q 1968 416 2177 544 
Q 2387 672 2563 906 
L 2563 2470 
z
M 3133 4714 
L 3133 0 
L 2794 0 
Q 2672 0 2640 118 
L 2589 512 
Q 2381 262 2115 108 
Q 1850 -45 1501 -45 
Q 1222 -45 995 62 
Q 768 170 608 378 
Q 448 586 361 896 
Q 275 1206 275 1610 
Q 275 1968 371 2277 
Q 467 2586 646 2813 
Q 826 3040 1086 3169 
Q 1347 3299 1674 3299 
Q 1971 3299 2184 3198 
Q 2397 3098 2563 2918 
L 2563 4714 
L 3133 4714 
z
" transform="scale(0.015625)"/>
      <path id="Lato-Regular-68" d="M 1024 2810 
Q 1232 3030 1485 3161 
Q 1738 3293 2067 3293 
Q 2333 3293 2536 3205 
Q 2739 3117 2875 2955 
Q 3011 2794 3081 2566 
Q 3152 2339 3152 2064 
L 3152 0 
L 2579 0 
L 2579 2064 
Q 2579 2432 2411 2635 
Q 2243 2838 1901 2838 
Q 1648 2838 1429 2716 
Q 1210 2595 1024 2387 
L 1024 0 
L 451 0 
L 451 4714 
L 1024 4714 
L 1024 2810 
z
" transform="scale(0.015625)"/>
     </defs>
     <use xlink:href="#Lato-Regular-72"/>
     <use xlink:href="#Lato-Regular-61" transform="translate(36.400009 0)"/>
     <use xlink:href="#Lato-Regular-6e" transform="translate(86.100021 0)"/>
     <use xlink:href="#Lato-Regular-64" transform="translate(141.900024 0)"/>
     <use xlink:href="#Lato-Regular-6f" transform="translate(197.900024 0)"/>
     <use xlink:href="#Lato-Regular-6d" transform="translate(254.600037 0)"/>
     <use xlink:href="#Lato-Regular-20" transform="translate(336.850052 0)"/>
     <use xlink:href="#Lato-Regular-73" transform="translate(362.450058 0)"/>
     <use xlink:href="#Lato-Regular-65" transform="translate(405.750061 0)"/>
     <use xlink:href="#Lato-Regular-61" transform="translate(458.550064 0)"/>
     <use xlink:href="#Lato-Regular-72" transform="translate(508.250076 0)"/>
     <use xlink:href="#Lato-Regular-63" transform="translate(544.650085 0)"/>
     <use xlink:href="#Lato-Regular-68" transform="translate(592.400085 0)"/>
    </g>
   </g>
   <g id="text_15">
    <!-- greedy (size) -->
    <g style="fill: #0969da" transform="translate(74.51929 147.827814) scale(0.08 -0.08)">
     <defs>
      <path id="Lato-Regular-7a" d="M 2688 2998 
Q 2688 2938 2667 2880 
Q 2646 2822 2611 2781 
L 854 445 
L 2627 445 
L 2627 0 
L 186 0 
L 186 237 
Q 186 278 205 334 
Q 224 390 262 442 
L 2029 2794 
L 285 2794 
L 285 3242 
L 2688 3242 
L 2688 2998 
z
" transform="scale(0.015625)"/>
     </defs>
     <use xlink:href="#Lato-Regular-67"/>
     <use xlink:href="#Lato-Regular-72" transform="translate(52 0)"/>
     <use xlink:href="#Lato-Regular-65" transform="translate(88.400009 0)"/>
     <use xlink:href="#Lato-Regular-65" transform="translate(141.200012 0)"/>
     <use xlink:href="#Lato-Regular-64" transform="translate(194.000015 0)"/>
     <use xlink:href="#Lato-Regular-79" transform="translate(250.000015 0)"/>
     <use xlink:href="#Lato-Regular-20" transform="translate(301.550018 0)"/>
     <use xlink:href="#Lato-Regular-28" transform="translate(327.150024 0)"/>
     <use xlink:href="#Lato-Regular-73" transform="translate(353.850021 0)"/>
     <use xlink:href="#Lato-Regular-69" transform="translate(397.150024 0)"/>
     <use xlink:href="#Lato-Regular-7a" transform="translate(421.150024 0)"/>
     <use xlink:href="#Lato-Regular-65" transform="translate(466.350021 0)"/>
     <use xlink:href="#Lato-Regular-29" transform="translate(519.150024 0)"/>
    </g>
   </g>
   <g id="text_16">
    <!-- greedy (all) -->
    <g style="fill: #0969da" transform="translate(206.728374 140.052692) scale(0.08 -0.08)">
     <use xlink:href="#Lato-Regular-67"/>
     <use xlink:href="#Lato-Regular-72" transform="translate(52 0)"/>
     <use xlink:href="#Lato-Regular-65" transform="translate(88.400009 0)"/>
     <use xlink:href="#Lato-Regular-65" transform="translate(141.200012 0)"/>
     <use xlink:href="#Lato-Regular-64" transform="translate(194.000015 0)"/>
     <use xlink:href="#Lato-Regular-79" transform="translate(250.000015 0)"/>
     <use xlink:href="#Lato-Regular-20" transform="translate(301.550018 0)"/>
     <use xlink:href="#Lato-Regular-28" transform="translate(327.150024 0)"/>
     <use xlink:href="#Lato-Regular-61" transform="translate(353.850021 0)"/>
     <use xlink:href="#Lato-Regular-6c" transform="translate(403.550034 0)"/>
     <use xlink:href="#Lato-Regular-6c" transform="translate(427.15004 0)"/>
     <use xlink:href="#Lato-Regular-29" transform="translate(450.750046 0)"/>
    </g>
   </g>
   <g id="text_17">
    <!-- best-fit -->
    <g style="fill: #54aeff" transform="translate(64.589171 189.672487) scale(0.08 -0.08)">
     <defs>
      <path id="Lato-Regular-62" d="M 1024 781 
Q 1181 570 1368 483 
Q 1555 397 1779 397 
Q 2237 397 2480 720 
Q 2723 1043 2723 1683 
Q 2723 2278 2507 2558 
Q 2291 2838 1891 2838 
Q 1613 2838 1406 2710 
Q 1200 2582 1024 2349 
L 1024 781 
z
M 1024 2774 
Q 1229 3011 1486 3152 
Q 1744 3293 2080 3293 
Q 2365 3293 2593 3184 
Q 2822 3075 2982 2868 
Q 3142 2662 3227 2368 
Q 3312 2074 3312 1706 
Q 3312 1312 3216 989 
Q 3120 666 2939 437 
Q 2758 208 2499 81 
Q 2240 -45 1917 -45 
Q 1597 -45 1377 75 
Q 1158 195 995 416 
L 966 122 
Q 941 0 819 0 
L 451 0 
L 451 4714 
L 1024 4714 
L 1024 2774 
z
" transform="scale(0.015625)"/>
      <path id="Lato-Regular-2d" d="M 400 2160 
L 1981 2160 
L 1981 1677 
L 400 1677 
L 400 2160 
z
" transform="scale(0.015625)"/>
     </defs>
     <use xlink:href="#Lato-Regular-62"/>
     <use xlink:href="#Lato-Regular-65" transform="translate(56 0)"/>
     <use xlink:href="#Lato-Regular-73" transform="translate(108.800003 0)"/>
     <use xlink:href="#Lato-Regular-74" transform="translate(152.100006 0)"/>
     <use xlink:href="#Lato-Regular-2d" transform="translate(187.950012 0)"/>
     <use xlink:href="#Lato-Regular-66" transform="translate(225.100021 0)"/>
     <use xlink:href="#Lato-Regular-69" transform="translate(260.150024 0)"/>
     <use xlink:href="#Lato-Regular-74" transform="translate(284.150024 0)"/>
    </g>
   </g>
   <g id="text_18">
    <!-- hill climbing -->
    <g style="fill: #9a6700" transform="translate(280.308187 151.416669) scale(0.08 -0.08)">
     <use xlink:href="#Lato-Regular-68"/>
     <use xlink:href="#Lato-Regular-69" transform="translate(55.800003 0)"/>
     <use xlink:href="#Lato-Regular-6c" transform="translate(79.800003 0)"/>
     <use xlink:href="#Lato-Regular-6c" transform="translate(103.400009 0)"/>
     <use xlink:href="#Lato-Regular-20" transform="translate(127.000015 0)"/>
     <use xlink:href="#Lato-Regular-63" transform="translate(152.600021 0)"/>
     <use xlink:href="#Lato-Regular-6c" transform="translate(200.350021 0)"/>
     <use xlink:href="#Lato-Regular-69" transform="translate(223.950027 0)"/>
     <use xlink:href="#Lato-Regular-6d" transform="translate(247.950027 0)"/>
     <use xlink:href="#Lato-Regular-62" transform="translate(330.200043 0)"/>
     <use xlink:href="#Lato-Regular-69" transform="translate(386.200043 0)"/>
     <use xlink:href="#Lato-Regular-6e" transform="translate(410.200043 0)"/>
     <use xlink:href="#Lato-Regular-67" transform="translate(466.000046 0)"/>
    </g>
   </g>
   <g id="text_19">
    <!-- genetic -->
    <g style="fill: #9a6700" transform="translate(416.794602 132.37322) scale(0.08 -0.08)">
     <use xlink:href="#Lato-Regular-67"/>
     <use xlink:href="#Lato-Regular-65" transform="translate(52 0)"/>
     <use xlink:href="#Lato-Regular-6e" transform="translate(104.800003 0)"/>
     <use xlink:href="#Lato-Regular-65" transform="translate(160.600006 0)"/>
     <use xlink:href="#Lato-Regular-74" transform="translate(213.400009 0)"/>
     <use xlink:href="#Lato-Regular-69" transform="translate(249.250015 0)"/>
     <use xlink:href="#Lato-Regular-63" transform="translate(273.250015 0)"/>
    </g>
   </g>
   <g id="text_20">
    <!-- simulated annealing -->
    <g style="fill: #bc4c00" transform="translate(295.438733 118.244903) scale(0.08 -0.08)">
     <defs>
      <path id="Lato-Regular-75" d="M 3117 3242 
L 3117 0 
L 2778 0 
Q 2656 0 2624 118 
L 2579 467 
Q 2368 234 2105 91 
Q 1843 -51 1504 -51 
Q 1238 -51 1035 37 
Q 832 125 694 285 
Q 557 445 488 672 
Q 419 899 419 1174 
L 419 3242 
L 989 3242 
L 989 1174 
Q 989 806 1157 604 
Q 1325 403 1670 403 
Q 1923 403 2142 523 
Q 2362 643 2547 854 
L 2547 3242 
L 3117 3242 
z
" transform="scale(0.015625)"/>
     </defs>
     <use xlink:href="#Lato-Regular-73"/>
     <use xlink:href="#Lato-Regular-69" transform="translate(43.300003 0)"/>
     <use xlink:href="#Lato-Regular-6d" transform="translate(67.300003 0)"/>
     <use xlink:href="#Lato-Regular-75" transform="translate(149.550018 0)"/>
     <use xlink:href="#Lato-Regular-6c" transform="translate(205.300018 0)"/>
     <use xlink:href="#Lato-Regular-61" transform="translate(228.900024 0)"/>
     <use xlink:href="#Lato-Regular-74" transform="translate(278.600037 0)"/>
     <use xlink:href="#Lato-Regular-65" transform="translate(314.450043 0)"/>
     <use xlink:href="#Lato-Regular-64" transform="translate(367.250046 0)"/>
     <use xlink:href="#Lato-Regular-20" transform="translate(423.250046 0)"/>
     <use xlink:href="#Lato-Regular-61" transform="translate(448.850052 0)"/>
     <use xlink:href="#Lato-Regular-6e" transform="translate(498.550064 0)"/>
     <use xlink:href="#Lato-Regular-6e" transform="translate(554.350067 0)"/>
     <use xlink:href="#Lato-Regular-65" transform="translate(610.15007 0)"/>
     <use xlink:href="#Lato-Regular-61" transform="translate(662.950073 0)"/>
     <use xlink:href="#Lato-Regular-6c" transform="translate(712.650085 0)"/>
     <use xlink:href="#Lato-Regular-69" transform="translate(736.250092 0)"/>
     <use xlink:href="#Lato-Regular-6e" transform="translate(760.250092 0)"/>
     <use xlink:href="#Lato-Regular-67" transform="translate(816.050095 0)"/>
    </g>
   </g>
   <g id="text_21">
    <!-- tabu search -->
    <g style="fill: #bc4c00" transform="translate(360.017414 111.526901) scale(0.08 -0.08)">
     <use xlink:href="#Lato-Regular-74"/>
     <use xlink:href="#Lato-Regular-61" transform="translate(35.850006 0)"/>
     <use xlink:href="#Lato-Regular-62" transform="translate(85.550018 0)"/>
     <use xlink:href="#Lato-Regular-75" transform="translate(141.550018 0)"/>
     <use xlink:href="#Lato-Regular-20" transform="translate(197.300018 0)"/>
     <use xlink:href="#Lato-Regular-73" transform="translate(222.900024 0)"/>
     <use xlink:href="#Lato-Regular-65" transform="translate(266.200027 0)"/>
     <use xlink:href="#Lato-Regular-61" transform="translate(319.000031 0)"/>
     <use xlink:href="#Lato-Regular-72" transform="translate(368.700043 0)"/>
     <use xlink:href="#Lato-Regular-63" transform="translate(405.100052 0)"/>
     <use xlink:href="#Lato-Regular-68" transform="translate(452.850052 0)"/>
    </g>
   </g>
   <g id="text_22">
    <!-- telamalloc -->
    <g style="fill: #1b7c83" transform="translate(370.52714 142.161638) scale(0.08 -0.08)">
     <use xlink:href="#Lato-Regular-74"/>
     <use xlink:href="#Lato-Regular-65" transform="translate(35.850006 0)"/>
     <use xlink:href="#Lato-Regular-6c" transform="translate(88.650009 0)"/>
     <use xlink:href="#Lato-Regular-61" transform="translate(112.250015 0)"/>
     <use xlink:href="#Lato-Regular-6d" transform="translate(161.950027 0)"/>
     <use xlink:href="#Lato-Regular-61" transform="translate(244.200043 0)"/>
     <use xlink:href="#Lato-Regular-6c" transform="translate(293.900055 0)"/>
     <use xlink:href="#Lato-Regular-6c" transform="translate(317.500061 0)"/>
     <use xlink:href="#Lato-Regular-6f" transform="translate(341.100067 0)"/>
     <use xlink:href="#Lato-Regular-63" transform="translate(397.800079 0)"/>
    </g>
   </g>
   <g id="text_23">
    <!-- minimalloc -->
    <g style="fill: #bf3989" transform="translate(429.697668 105.533876) scale(0.08 -0.08)">
     <use xlink:href="#Lato-Regular-6d"/>
     <use xlink:href="#Lato-Regular-69" transform="translate(82.250015 0)"/>
     <use xlink:href="#Lato-Regular-6e" transform="translate(106.250015 0)"/>
     <use xlink:href="#Lato-Regular-69" transform="translate(162.050018 0)"/>
     <use xlink:href="#Lato-Regular-6d" transform="translate(186.050018 0)"/>
     <use xlink:href="#Lato-Regular-61" transform="translate(268.300034 0)"/>
     <use xlink:href="#Lato-Regular-6c" transform="translate(318.000046 0)"/>
     <use xlink:href="#Lato-Regular-6c" transform="translate(341.600052 0)"/>
     <use xlink:href="#Lato-Regular-6f" transform="translate(365.200058 0)"/>
     <use xlink:href="#Lato-Regular-63" transform="translate(421.90007 0)"/>
    </g>
   </g>
   <g id="text_24">
    <!-- supermalloc -->
    <g style="fill: #8250df" transform="translate(315.797649 72.500518) scale(0.085 -0.085)">
     <defs>
      <path id="Lato-Bold-73" d="M 2394 2643 
Q 2362 2592 2326 2571 
Q 2291 2550 2237 2550 
Q 2179 2550 2113 2582 
Q 2048 2614 1961 2654 
Q 1875 2694 1764 2726 
Q 1654 2758 1504 2758 
Q 1270 2758 1137 2659 
Q 1005 2560 1005 2400 
Q 1005 2294 1073 2222 
Q 1142 2150 1256 2096 
Q 1370 2042 1514 1998 
Q 1658 1955 1806 1904 
Q 1955 1853 2099 1787 
Q 2243 1722 2356 1621 
Q 2470 1520 2539 1379 
Q 2608 1238 2608 1040 
Q 2608 803 2523 603 
Q 2438 403 2272 257 
Q 2106 112 1861 30 
Q 1616 -51 1296 -51 
Q 1126 -51 964 -20 
Q 803 10 654 64 
Q 506 118 379 192 
Q 253 266 157 352 
L 339 653 
Q 374 707 422 736 
Q 470 765 544 765 
Q 618 765 683 723 
Q 749 682 835 634 
Q 922 586 1038 544 
Q 1155 502 1334 502 
Q 1475 502 1576 536 
Q 1677 570 1742 624 
Q 1808 678 1838 750 
Q 1869 822 1869 899 
Q 1869 1014 1800 1088 
Q 1731 1162 1617 1216 
Q 1504 1270 1358 1313 
Q 1213 1357 1061 1408 
Q 909 1459 763 1528 
Q 618 1597 504 1702 
Q 390 1808 321 1961 
Q 253 2115 253 2333 
Q 253 2534 333 2716 
Q 413 2899 568 3035 
Q 723 3171 955 3252 
Q 1187 3334 1491 3334 
Q 1830 3334 2108 3222 
Q 2387 3110 2573 2928 
L 2394 2643 
z
" transform="scale(0.015625)"/>
      <path id="Lato-Bold-75" d="M 3219 3283 
L 3219 0 
L 2736 0 
Q 2579 0 2538 144 
L 2483 406 
Q 2282 202 2038 75 
Q 1795 -51 1466 -51 
Q 1197 -51 990 40 
Q 784 131 643 297 
Q 502 464 430 693 
Q 358 922 358 1197 
L 358 3283 
L 1149 3283 
L 1149 1197 
Q 1149 896 1288 731 
Q 1427 566 1706 566 
Q 1910 566 2089 657 
Q 2269 749 2429 909 
L 2429 3283 
L 3219 3283 
z
" transform="scale(0.015625)"/>
      <path id="Lato-Bold-70" d="M 1181 851 
Q 1315 688 1473 621 
Q 1632 554 1818 554 
Q 1997 554 2141 621 
Q 2285 688 2385 825 
Q 2486 963 2540 1172 
Q 2595 1382 2595 1667 
Q 2595 1955 2548 2155 
Q 2502 2355 2416 2480 
Q 2330 2605 2206 2662 
Q 2083 2720 1926 2720 
Q 1680 2720 1507 2616 
Q 1334 2512 1181 2323 
L 1181 851 
z
M 1139 2835 
Q 1341 3062 1597 3203 
Q 1853 3344 2198 3344 
Q 2467 3344 2689 3232 
Q 2912 3120 3073 2907 
Q 3235 2694 3323 2382 
Q 3411 2070 3411 1667 
Q 3411 1299 3312 985 
Q 3213 672 3029 441 
Q 2845 211 2584 81 
Q 2323 -48 2000 -48 
Q 1725 -48 1529 37 
Q 1334 122 1181 272 
L 1181 -1072 
L 390 -1072 
L 390 3283 
L 874 3283 
Q 1027 3283 1075 3139 
L 1139 2835 
z
" transform="scale(0.015625)"/>
      <path id="Lato-Bold-65" d="M 2506 2019 
Q 2506 2173 2462 2309 
Q 2419 2445 2332 2547 
Q 2246 2650 2113 2709 
Q 1981 2768 1805 2768 
Q 1462 2768 1265 2573 
Q 1069 2378 1014 2019 
L 2506 2019 
z
M 998 1542 
Q 1018 1290 1088 1106 
Q 1158 922 1273 802 
Q 1389 682 1547 622 
Q 1706 563 1898 563 
Q 2090 563 2229 608 
Q 2368 653 2472 707 
Q 2576 762 2654 806 
Q 2733 851 2806 851 
Q 2906 851 2954 778 
L 3181 490 
Q 3050 336 2886 232 
Q 2723 128 2545 65 
Q 2368 3 2184 -22 
Q 2000 -48 1827 -48 
Q 1485 -48 1190 65 
Q 896 179 678 401 
Q 461 624 336 952 
Q 211 1280 211 1712 
Q 211 2048 320 2344 
Q 429 2640 632 2859 
Q 835 3078 1128 3206 
Q 1421 3334 1789 3334 
Q 2099 3334 2361 3235 
Q 2624 3136 2813 2945 
Q 3002 2755 3109 2478 
Q 3216 2202 3216 1846 
Q 3216 1667 3177 1604 
Q 3139 1542 3030 1542 
L 998 1542 
z
" transform="scale(0.015625)"/>
      <path id="Lato-Bold-72" d="M 1136 2714 
Q 1290 3008 1501 3176 
Q 1712 3344 2000 3344 
Q 2227 3344 2365 3245 
L 2314 2653 
Q 2298 2595 2267 2571 
Q 2237 2547 2186 2547 
Q 2138 2547 2043 2563 
Q 1949 2579 1859 2579 
Q 1728 2579 1625 2540 
Q 1523 2502 1441 2430 
Q 1360 2358 1297 2256 
Q 1235 2154 1181 2022 
L 1181 0 
L 390 0 
L 390 3283 
L 854 3283 
Q 976 3283 1024 3240 
Q 1072 3197 1088 3085 
L 1136 2714 
z
" transform="scale(0.015625)"/>
      <path id="Lato-Bold-6d" d="M 390 0 
L 390 3283 
L 874 3283 
Q 1027 3283 1075 3139 
L 1126 2896 
Q 1213 2992 1307 3072 
Q 1402 3152 1509 3209 
Q 1616 3267 1739 3300 
Q 1862 3334 2010 3334 
Q 2320 3334 2520 3166 
Q 2720 2998 2819 2720 
Q 2896 2883 3011 3000 
Q 3126 3117 3264 3190 
Q 3402 3264 3557 3299 
Q 3712 3334 3869 3334 
Q 4141 3334 4352 3251 
Q 4563 3168 4707 3008 
Q 4851 2848 4926 2617 
Q 5002 2387 5002 2090 
L 5002 0 
L 4211 0 
L 4211 2090 
Q 4211 2403 4073 2561 
Q 3936 2720 3670 2720 
Q 3549 2720 3445 2678 
Q 3341 2637 3262 2558 
Q 3184 2480 3139 2361 
Q 3094 2243 3094 2090 
L 3094 0 
L 2301 0 
L 2301 2090 
Q 2301 2419 2168 2569 
Q 2035 2720 1779 2720 
Q 1606 2720 1457 2635 
Q 1309 2550 1181 2403 
L 1181 0 
L 390 0 
z
" transform="scale(0.015625)"/>
      <path id="Lato-Bold-61" d="M 2125 1402 
Q 1782 1386 1548 1342 
Q 1315 1299 1174 1232 
Q 1034 1165 973 1075 
Q 912 986 912 880 
Q 912 672 1035 582 
Q 1158 493 1357 493 
Q 1600 493 1777 581 
Q 1955 669 2125 848 
L 2125 1402 
z
M 314 2826 
Q 880 3344 1677 3344 
Q 1965 3344 2192 3249 
Q 2419 3155 2576 2987 
Q 2733 2819 2814 2585 
Q 2896 2352 2896 2074 
L 2896 0 
L 2538 0 
Q 2426 0 2365 33 
Q 2304 67 2269 170 
L 2198 406 
Q 2074 294 1955 209 
Q 1837 125 1709 67 
Q 1581 10 1435 -20 
Q 1290 -51 1114 -51 
Q 906 -51 730 5 
Q 554 61 426 173 
Q 298 285 227 451 
Q 157 618 157 838 
Q 157 963 198 1086 
Q 240 1210 334 1322 
Q 429 1434 579 1533 
Q 730 1632 949 1705 
Q 1168 1779 1459 1825 
Q 1750 1872 2125 1882 
L 2125 2074 
Q 2125 2403 1984 2561 
Q 1843 2720 1578 2720 
Q 1386 2720 1259 2675 
Q 1133 2630 1037 2574 
Q 941 2518 862 2473 
Q 784 2429 688 2429 
Q 605 2429 547 2472 
Q 490 2515 454 2573 
L 314 2826 
z
" transform="scale(0.015625)"/>
      <path id="Lato-Bold-6c" d="M 1190 4755 
L 1190 0 
L 400 0 
L 400 4755 
L 1190 4755 
z
" transform="scale(0.015625)"/>
      <path id="Lato-Bold-6f" d="M 1843 3334 
Q 2208 3334 2507 3216 
Q 2806 3098 3019 2880 
Q 3232 2662 3347 2348 
Q 3462 2035 3462 1648 
Q 3462 1258 3347 944 
Q 3232 630 3019 409 
Q 2806 189 2507 70 
Q 2208 -48 1843 -48 
Q 1475 -48 1174 70 
Q 874 189 661 409 
Q 448 630 331 944 
Q 214 1258 214 1648 
Q 214 2035 331 2348 
Q 448 2662 661 2880 
Q 874 3098 1174 3216 
Q 1475 3334 1843 3334 
z
M 1843 560 
Q 2253 560 2449 835 
Q 2646 1110 2646 1642 
Q 2646 2173 2449 2451 
Q 2253 2730 1843 2730 
Q 1427 2730 1227 2450 
Q 1027 2170 1027 1642 
Q 1027 1114 1227 837 
Q 1427 560 1843 560 
z
" transform="scale(0.015625)"/>
      <path id="Lato-Bold-63" d="M 2742 2589 
Q 2707 2544 2673 2518 
Q 2640 2493 2576 2493 
Q 2515 2493 2457 2529 
Q 2400 2566 2320 2612 
Q 2240 2659 2129 2696 
Q 2019 2733 1856 2733 
Q 1648 2733 1491 2657 
Q 1334 2582 1230 2441 
Q 1126 2301 1075 2101 
Q 1024 1901 1024 1648 
Q 1024 1386 1080 1181 
Q 1136 976 1241 837 
Q 1347 698 1497 626 
Q 1648 554 1837 554 
Q 2026 554 2142 600 
Q 2259 646 2339 702 
Q 2419 758 2478 804 
Q 2538 851 2611 851 
Q 2707 851 2755 778 
L 2982 490 
Q 2851 336 2697 232 
Q 2544 128 2379 65 
Q 2214 3 2040 -22 
Q 1866 -48 1693 -48 
Q 1389 -48 1120 65 
Q 851 179 649 396 
Q 448 614 331 929 
Q 214 1245 214 1648 
Q 214 2010 318 2318 
Q 422 2627 624 2852 
Q 826 3078 1123 3206 
Q 1421 3334 1808 3334 
Q 2176 3334 2453 3216 
Q 2730 3098 2950 2877 
L 2742 2589 
z
" transform="scale(0.015625)"/>
     </defs>
     <use xlink:href="#Lato-Bold-73"/>
     <use xlink:href="#Lato-Bold-75" transform="translate(43.949997 0)"/>
     <use xlink:href="#Lato-Bold-70" transform="translate(100.350006 0)"/>
     <use xlink:href="#Lato-Bold-65" transform="translate(157.150009 0)"/>
     <use xlink:href="#Lato-Bold-72" transform="translate(210.550018 0)"/>
     <use xlink:href="#Lato-Bold-6d" transform="translate(247.850021 0)"/>
     <use xlink:href="#Lato-Bold-61" transform="translate(331.600037 0)"/>
     <use xlink:href="#Lato-Bold-6c" transform="translate(382.350037 0)"/>
     <use xlink:href="#Lato-Bold-6c" transform="translate(407.200043 0)"/>
     <use xlink:href="#Lato-Bold-6f" transform="translate(432.050049 0)"/>
     <use xlink:href="#Lato-Bold-63" transform="translate(489.500061 0)"/>
    </g>
   </g>
  </g>
  <g id="text_25">
   <!-- Solution quality vs. solve time -->
   <g style="fill: #24292f" transform="translate(1.44 9.984141) scale(0.115 -0.115)">
    <defs>
     <path id="Lato-Bold-53" d="M 2979 3786 
Q 2941 3718 2897 3688 
Q 2854 3658 2790 3658 
Q 2723 3658 2644 3707 
Q 2566 3757 2457 3817 
Q 2349 3878 2203 3928 
Q 2058 3978 1859 3978 
Q 1680 3978 1545 3934 
Q 1411 3891 1320 3814 
Q 1229 3738 1184 3630 
Q 1139 3523 1139 3395 
Q 1139 3232 1230 3123 
Q 1322 3014 1472 2937 
Q 1622 2861 1814 2800 
Q 2006 2739 2208 2670 
Q 2410 2602 2602 2510 
Q 2794 2419 2944 2280 
Q 3094 2141 3185 1939 
Q 3277 1738 3277 1450 
Q 3277 1136 3169 862 
Q 3062 589 2856 385 
Q 2650 182 2352 65 
Q 2054 -51 1670 -51 
Q 1450 -51 1235 -8 
Q 1021 35 824 115 
Q 627 195 454 307 
Q 282 419 147 557 
L 400 970 
Q 432 1014 483 1044 
Q 534 1075 592 1075 
Q 672 1075 765 1009 
Q 858 944 986 864 
Q 1114 784 1285 718 
Q 1456 653 1696 653 
Q 2064 653 2265 827 
Q 2467 1002 2467 1328 
Q 2467 1510 2376 1625 
Q 2285 1741 2134 1819 
Q 1984 1898 1792 1952 
Q 1600 2006 1401 2070 
Q 1203 2134 1011 2224 
Q 819 2314 668 2458 
Q 518 2602 427 2818 
Q 336 3034 336 3350 
Q 336 3603 437 3843 
Q 538 4083 730 4268 
Q 922 4454 1203 4566 
Q 1485 4678 1850 4678 
Q 2259 4678 2604 4550 
Q 2950 4422 3194 4192 
L 2979 3786 
z
" transform="scale(0.015625)"/>
     <path id="Lato-Bold-74" d="M 1485 -51 
Q 1056 -51 827 190 
Q 598 432 598 858 
L 598 2691 
L 262 2691 
Q 198 2691 153 2732 
Q 109 2774 109 2858 
L 109 3171 
L 637 3258 
L 803 4154 
Q 819 4218 864 4253 
Q 909 4288 979 4288 
L 1389 4288 
L 1389 3254 
L 2266 3254 
L 2266 2691 
L 1389 2691 
L 1389 912 
Q 1389 758 1464 672 
Q 1539 586 1670 586 
Q 1744 586 1793 603 
Q 1843 621 1880 640 
Q 1917 659 1945 676 
Q 1974 694 2003 694 
Q 2038 694 2060 676 
Q 2083 659 2109 624 
L 2346 240 
Q 2173 96 1949 22 
Q 1725 -51 1485 -51 
z
" transform="scale(0.015625)"/>
     <path id="Lato-Bold-69" d="M 1210 3283 
L 1210 0 
L 416 0 
L 416 3283 
L 1210 3283 
z
M 1318 4240 
Q 1318 4138 1276 4048 
Q 1235 3958 1166 3891 
Q 1098 3824 1005 3784 
Q 912 3744 806 3744 
Q 704 3744 613 3784 
Q 522 3824 454 3891 
Q 387 3958 347 4048 
Q 307 4138 307 4240 
Q 307 4346 347 4438 
Q 387 4531 454 4598 
Q 522 4666 613 4706 
Q 704 4746 806 4746 
Q 912 4746 1005 4706 
Q 1098 4666 1166 4598 
Q 1235 4531 1276 4438 
Q 1318 4346 1318 4240 
z
" transform="scale(0.015625)"/>
     <path id="Lato-Bold-6e" d="M 1130 2880 
Q 1229 2979 1339 3064 
Q 1450 3149 1573 3208 
Q 1696 3267 1837 3300 
Q 1978 3334 2144 3334 
Q 2413 3334 2621 3243 
Q 2829 3152 2968 2987 
Q 3107 2822 3179 2593 
Q 3251 2365 3251 2090 
L 3251 0 
L 2461 0 
L 2461 2090 
Q 2461 2390 2323 2555 
Q 2186 2720 1904 2720 
Q 1699 2720 1520 2627 
Q 1341 2534 1181 2374 
L 1181 0 
L 390 0 
L 390 3283 
L 874 3283 
Q 1027 3283 1075 3139 
L 1130 2880 
z
" transform="scale(0.015625)"/>
     <path id="Lato-Bold-20" transform="scale(0.015625)"/>
     <path id="Lato-Bold-71" d="M 2451 2445 
Q 2320 2608 2160 2675 
Q 2000 2742 1818 2742 
Q 1638 2742 1494 2675 
Q 1350 2608 1248 2472 
Q 1146 2336 1091 2126 
Q 1037 1917 1037 1632 
Q 1037 1344 1083 1144 
Q 1130 944 1216 817 
Q 1302 691 1427 635 
Q 1552 579 1706 579 
Q 1952 579 2125 681 
Q 2298 784 2451 973 
L 2451 2445 
z
M 3242 3283 
L 3242 -1072 
L 2451 -1072 
L 2451 416 
Q 2256 208 2009 80 
Q 1763 -48 1437 -48 
Q 1168 -48 944 64 
Q 720 176 558 389 
Q 397 602 309 915 
Q 221 1229 221 1632 
Q 221 1997 320 2310 
Q 419 2624 604 2854 
Q 790 3085 1049 3214 
Q 1309 3344 1632 3344 
Q 1939 3344 2147 3238 
Q 2355 3133 2518 2954 
L 2560 3139 
Q 2602 3283 2758 3283 
L 3242 3283 
z
" transform="scale(0.015625)"/>
     <path id="Lato-Bold-79" d="M 3373 3283 
L 1584 -902 
Q 1549 -986 1493 -1029 
Q 1437 -1072 1322 -1072 
L 733 -1072 
L 1347 246 
L 19 3283 
L 714 3283 
Q 806 3283 859 3238 
Q 912 3194 938 3136 
L 1635 1434 
Q 1670 1347 1694 1260 
Q 1718 1174 1741 1085 
Q 1770 1174 1798 1262 
Q 1827 1350 1862 1437 
L 2522 3136 
Q 2547 3200 2606 3241 
Q 2666 3283 2739 3283 
L 3373 3283 
z
" transform="scale(0.015625)"/>
     <path id="Lato-Bold-76" d="M 3350 3283 
L 2048 0 
L 1331 0 
L 29 3283 
L 682 3283 
Q 771 3283 830 3241 
Q 890 3200 909 3136 
L 1542 1382 
Q 1594 1229 1632 1081 
Q 1670 934 1699 787 
Q 1731 934 1769 1081 
Q 1808 1229 1862 1382 
L 2509 3136 
Q 2531 3200 2588 3241 
Q 2646 3283 2726 3283 
L 3350 3283 
z
" transform="scale(0.015625)"/>
     <path id="Lato-Bold-2e" d="M 275 435 
Q 275 534 312 624 
Q 349 714 413 778 
Q 477 842 566 880 
Q 656 918 758 918 
Q 861 918 949 880 
Q 1037 842 1102 778 
Q 1168 714 1206 624 
Q 1245 534 1245 435 
Q 1245 333 1206 245 
Q 1168 157 1102 93 
Q 1037 29 949 -8 
Q 861 -45 758 -45 
Q 656 -45 566 -8 
Q 477 29 413 93 
Q 349 157 312 245 
Q 275 333 275 435 
z
" transform="scale(0.015625)"/>
    </defs>
    <use xlink:href="#Lato-Bold-53"/>
    <use xlink:href="#Lato-Bold-6f" transform="translate(54.850006 0)"/>
    <use xlink:href="#Lato-Bold-6c" transform="translate(112.300018 0)"/>
    <use xlink:href="#Lato-Bold-75" transform="translate(137.150024 0)"/>
    <use xlink:href="#Lato-Bold-74" transform="translate(193.550034 0)"/>
    <use xlink:href="#Lato-Bold-69" transform="translate(230.750031 0)"/>
    <use xlink:href="#Lato-Bold-6f" transform="translate(256.150024 0)"/>
    <use xlink:href="#Lato-Bold-6e" transform="translate(313.600037 0)"/>
    <use xlink:href="#Lato-Bold-20" transform="translate(370.000046 0)"/>
    <use xlink:href="#Lato-Bold-71" transform="translate(394.300049 0)"/>
    <use xlink:href="#Lato-Bold-75" transform="translate(451.050049 0)"/>
    <use xlink:href="#Lato-Bold-61" transform="translate(507.450058 0)"/>
    <use xlink:href="#Lato-Bold-6c" transform="translate(558.200058 0)"/>
    <use xlink:href="#Lato-Bold-69" transform="translate(583.050064 0)"/>
    <use xlink:href="#Lato-Bold-74" transform="translate(608.450058 0)"/>
    <use xlink:href="#Lato-Bold-79" transform="translate(645.650055 0)"/>
    <use xlink:href="#Lato-Bold-20" transform="translate(698.400055 0)"/>
    <use xlink:href="#Lato-Bold-76" transform="translate(722.700058 0)"/>
    <use xlink:href="#Lato-Bold-73" transform="translate(775.500061 0)"/>
    <use xlink:href="#Lato-Bold-2e" transform="translate(819.450058 0)"/>
    <use xlink:href="#Lato-Bold-20" transform="translate(843.200058 0)"/>
    <use xlink:href="#Lato-Bold-73" transform="translate(867.500061 0)"/>
    <use xlink:href="#Lato-Bold-6f" transform="translate(911.450058 0)"/>
    <use xlink:href="#Lato-Bold-6c" transform="translate(968.90007 0)"/>
    <use xlink:href="#Lato-Bold-76" transform="translate(993.750076 0)"/>
    <use xlink:href="#Lato-Bold-65" transform="translate(1046.550079 0)"/>
    <use xlink:href="#Lato-Bold-20" transform="translate(1099.950089 0)"/>
    <use xlink:href="#Lato-Bold-74" transform="translate(1124.250092 0)"/>
    <use xlink:href="#Lato-Bold-69" transform="translate(1161.450089 0)"/>
    <use xlink:href="#Lato-Bold-6d" transform="translate(1186.850082 0)"/>
    <use xlink:href="#Lato-Bold-65" transform="translate(1270.600098 0)"/>
   </g>
  </g>
  <g id="text_26">
   <!-- 13 hard problems: 11 real-world minimalloc benchmarks and 2 adversarial patterns · 100% = proven lower bound -->
   <g style="fill: #59626d" transform="translate(1.44 29.120781) scale(0.085 -0.085)">
    <defs>
     <path id="Lato-Regular-33" d="M 416 3344 
Q 461 3658 589 3899 
Q 717 4141 913 4304 
Q 1110 4467 1364 4552 
Q 1619 4637 1914 4637 
Q 2205 4637 2451 4553 
Q 2698 4470 2875 4316 
Q 3053 4163 3152 3945 
Q 3251 3728 3251 3462 
Q 3251 3245 3195 3073 
Q 3139 2902 3035 2774 
Q 2931 2646 2784 2556 
Q 2637 2467 2454 2410 
Q 2902 2294 3128 2014 
Q 3354 1734 3354 1315 
Q 3354 998 3234 745 
Q 3114 493 2906 315 
Q 2698 138 2421 43 
Q 2144 -51 1827 -51 
Q 1462 -51 1203 40 
Q 944 131 765 291 
Q 586 451 470 670 
Q 355 890 275 1146 
L 522 1248 
Q 618 1290 709 1270 
Q 800 1251 842 1165 
Q 883 1075 945 950 
Q 1008 826 1117 710 
Q 1226 595 1394 515 
Q 1562 435 1821 435 
Q 2061 435 2241 513 
Q 2422 592 2542 717 
Q 2662 842 2723 995 
Q 2784 1149 2784 1299 
Q 2784 1485 2736 1638 
Q 2688 1792 2557 1904 
Q 2426 2016 2197 2080 
Q 1968 2144 1610 2144 
L 1610 2557 
Q 1904 2560 2110 2621 
Q 2317 2682 2446 2787 
Q 2576 2893 2635 3040 
Q 2694 3187 2694 3366 
Q 2694 3565 2632 3712 
Q 2570 3859 2461 3955 
Q 2352 4051 2203 4099 
Q 2054 4147 1882 4147 
Q 1709 4147 1560 4096 
Q 1411 4045 1297 3953 
Q 1184 3862 1107 3737 
Q 1030 3613 998 3462 
Q 957 3350 894 3313 
Q 832 3277 714 3293 
L 416 3344 
z
" transform="scale(0.015625)"/>
     <path id="Lato-Regular-3a" d="M 403 352 
Q 403 435 433 508 
Q 464 582 517 636 
Q 570 691 643 723 
Q 717 755 800 755 
Q 883 755 956 723 
Q 1030 691 1084 636 
Q 1139 582 1171 508 
Q 1203 435 1203 352 
Q 1203 266 1171 194 
Q 1139 122 1084 67 
Q 1030 13 956 -17 
Q 883 -48 800 -48 
Q 717 -48 643 -17 
Q 570 13 517 67 
Q 464 122 433 194 
Q 403 266 403 352 
z
M 403 2784 
Q 403 2867 433 2940 
Q 464 3014 517 3068 
Q 570 3123 643 3155 
Q 717 3187 800 3187 
Q 883 3187 956 3155 
Q 1030 3123 1084 3068 
Q 1139 3014 1171 2940 
Q 1203 2867 1203 2784 
Q 1203 2698 1171 2626 
Q 1139 2554 1084 2499 
Q 1030 2445 956 2414 
Q 883 2384 800 2384 
Q 717 2384 643 2414 
Q 570 2445 517 2499 
Q 464 2554 433 2626 
Q 403 2698 403 2784 
z
" transform="scale(0.015625)"/>
     <path id="Lato-Regular-77" d="M 4922 3242 
L 3872 0 
L 3421 0 
Q 3338 0 3306 109 
L 2589 2307 
Q 2563 2381 2547 2456 
Q 2531 2531 2515 2605 
Q 2499 2531 2483 2456 
Q 2467 2381 2442 2304 
L 1712 109 
Q 1683 0 1584 0 
L 1155 0 
L 106 3242 
L 554 3242 
Q 621 3242 667 3206 
Q 714 3171 730 3123 
L 1350 1037 
Q 1405 806 1437 602 
Q 1466 707 1496 816 
Q 1526 925 1562 1037 
L 2246 3136 
Q 2262 3184 2302 3216 
Q 2342 3248 2400 3248 
L 2650 3248 
Q 2714 3248 2755 3216 
Q 2797 3184 2813 3136 
L 3482 1037 
Q 3517 925 3545 816 
Q 3574 707 3600 602 
Q 3616 707 3640 814 
Q 3664 922 3693 1037 
L 4326 3123 
Q 4342 3174 4387 3208 
Q 4432 3242 4493 3242 
L 4922 3242 
z
" transform="scale(0.015625)"/>
     <path id="Lato-Regular-32" d="M 3158 541 
Q 3251 541 3305 486 
Q 3360 432 3360 346 
L 3360 0 
L 301 0 
L 301 195 
Q 301 256 326 320 
Q 352 384 406 438 
L 1875 1914 
Q 2058 2099 2208 2270 
Q 2358 2442 2464 2614 
Q 2570 2787 2627 2964 
Q 2685 3142 2685 3344 
Q 2685 3546 2621 3698 
Q 2557 3850 2446 3949 
Q 2336 4048 2185 4097 
Q 2035 4147 1862 4147 
Q 1686 4147 1539 4096 
Q 1392 4045 1278 3953 
Q 1165 3862 1088 3737 
Q 1011 3613 979 3462 
Q 941 3350 875 3313 
Q 810 3277 691 3293 
L 394 3344 
Q 438 3658 568 3899 
Q 698 4141 894 4304 
Q 1091 4467 1344 4552 
Q 1597 4637 1891 4637 
Q 2182 4637 2435 4550 
Q 2688 4464 2873 4299 
Q 3059 4134 3164 3897 
Q 3270 3661 3270 3360 
Q 3270 3104 3193 2885 
Q 3117 2666 2985 2467 
Q 2854 2269 2683 2080 
Q 2512 1891 2320 1699 
L 1110 464 
Q 1238 499 1369 520 
Q 1501 541 1622 541 
L 3158 541 
z
" transform="scale(0.015625)"/>
     <path id="Lato-Regular-b7" d="M 355 1898 
Q 355 1997 392 2086 
Q 429 2176 494 2240 
Q 560 2304 645 2342 
Q 730 2381 826 2381 
Q 925 2381 1014 2342 
Q 1104 2304 1168 2240 
Q 1232 2176 1270 2086 
Q 1309 1997 1309 1898 
Q 1309 1802 1270 1715 
Q 1232 1629 1168 1563 
Q 1104 1498 1014 1461 
Q 925 1424 826 1424 
Q 730 1424 645 1461 
Q 560 1498 494 1563 
Q 429 1629 392 1715 
Q 355 1802 355 1898 
z
" transform="scale(0.015625)"/>
     <path id="Lato-Regular-3d" d="M 480 1837 
L 3232 1837 
L 3232 1405 
L 480 1405 
L 480 1837 
z
M 480 2909 
L 3232 2909 
L 3232 2477 
L 480 2477 
L 480 2909 
z
" transform="scale(0.015625)"/>
    </defs>
    <use xlink:href="#Lato-Regular-31"/>
    <use xlink:href="#Lato-Regular-33" transform="translate(58 0)"/>
    <use xlink:href="#Lato-Regular-20" transform="translate(116 0)"/>
    <use xlink:href="#Lato-Regular-68" transform="translate(141.600006 0)"/>
    <use xlink:href="#Lato-Regular-61" transform="translate(197.400009 0)"/>
    <use xlink:href="#Lato-Regular-72" transform="translate(247.100021 0)"/>
    <use xlink:href="#Lato-Regular-64" transform="translate(283.500031 0)"/>
    <use xlink:href="#Lato-Regular-20" transform="translate(339.500031 0)"/>
    <use xlink:href="#Lato-Regular-70" transform="translate(365.100037 0)"/>
    <use xlink:href="#Lato-Regular-72" transform="translate(421.15004 0)"/>
    <use xlink:href="#Lato-Regular-6f" transform="translate(457.550049 0)"/>
    <use xlink:href="#Lato-Regular-62" transform="translate(514.250061 0)"/>
    <use xlink:href="#Lato-Regular-6c" transform="translate(570.250061 0)"/>
    <use xlink:href="#Lato-Regular-65" transform="translate(593.850067 0)"/>
    <use xlink:href="#Lato-Regular-6d" transform="translate(646.65007 0)"/>
    <use xlink:href="#Lato-Regular-73" transform="translate(728.900085 0)"/>
    <use xlink:href="#Lato-Regular-3a" transform="translate(772.200089 0)"/>
    <use xlink:href="#Lato-Regular-20" transform="translate(797.200089 0)"/>
    <use xlink:href="#Lato-Regular-31" transform="translate(822.800095 0)"/>
    <use xlink:href="#Lato-Regular-31" transform="translate(880.800095 0)"/>
    <use xlink:href="#Lato-Regular-20" transform="translate(938.800095 0)"/>
    <use xlink:href="#Lato-Regular-72" transform="translate(964.400101 0)"/>
    <use xlink:href="#Lato-Regular-65" transform="translate(1000.80011 0)"/>
    <use xlink:href="#Lato-Regular-61" transform="translate(1053.600113 0)"/>
    <use xlink:href="#Lato-Regular-6c" transform="translate(1103.300125 0)"/>
    <use xlink:href="#Lato-Regular-2d" transform="translate(1126.900131 0)"/>
    <use xlink:href="#Lato-Regular-77" transform="translate(1164.05014 0)"/>
    <use xlink:href="#Lato-Regular-6f" transform="translate(1242.600159 0)"/>
    <use xlink:href="#Lato-Regular-72" transform="translate(1299.300171 0)"/>
    <use xlink:href="#Lato-Regular-6c" transform="translate(1335.70018 0)"/>
    <use xlink:href="#Lato-Regular-64" transform="translate(1359.300186 0)"/>
    <use xlink:href="#Lato-Regular-20" transform="translate(1415.300186 0)"/>
    <use xlink:href="#Lato-Regular-6d" transform="translate(1440.900192 0)"/>
    <use xlink:href="#Lato-Regular-69" transform="translate(1523.150208 0)"/>
    <use xlink:href="#Lato-Regular-6e" transform="translate(1547.150208 0)"/>
    <use xlink:href="#Lato-Regular-69" transform="translate(1602.950211 0)"/>
    <use xlink:href="#Lato-Regular-6d" transform="translate(1626.950211 0)"/>
    <use xlink:href="#Lato-Regular-61" transform="translate(1709.200226 0)"/>
    <use xlink:href="#Lato-Regular-6c" transform="translate(1758.900238 0)"/>
    <use xlink:href="#Lato-Regular-6c" transform="translate(1782.500244 0)"/>
    <use xlink:href="#Lato-Regular-6f" transform="translate(1806.10025 0)"/>
    <use xlink:href="#Lato-Regular-63" transform="translate(1862.800262 0)"/>
    <use xlink:href="#Lato-Regular-20" transform="translate(1910.550262 0)"/>
    <use xlink:href="#Lato-Regular-62" transform="translate(1936.150269 0)"/>
    <use xlink:href="#Lato-Regular-65" transform="translate(1992.150269 0)"/>
    <use xlink:href="#Lato-Regular-6e" transform="translate(2044.950272 0)"/>
    <use xlink:href="#Lato-Regular-63" transform="translate(2100.750275 0)"/>
    <use xlink:href="#Lato-Regular-68" transform="translate(2148.500275 0)"/>
    <use xlink:href="#Lato-Regular-6d" transform="translate(2204.300278 0)"/>
    <use xlink:href="#Lato-Regular-61" transform="translate(2286.550293 0)"/>
    <use xlink:href="#Lato-Regular-72" transform="translate(2336.250305 0)"/>
    <use xlink:href="#Lato-Regular-6b" transform="translate(2372.650314 0)"/>
    <use xlink:href="#Lato-Regular-73" transform="translate(2423.450317 0)"/>
    <use xlink:href="#Lato-Regular-20" transform="translate(2466.75032 0)"/>
    <use xlink:href="#Lato-Regular-61" transform="translate(2492.350327 0)"/>
    <use xlink:href="#Lato-Regular-6e" transform="translate(2542.050339 0)"/>
    <use xlink:href="#Lato-Regular-64" transform="translate(2597.850342 0)"/>
    <use xlink:href="#Lato-Regular-20" transform="translate(2653.850342 0)"/>
    <use xlink:href="#Lato-Regular-32" transform="translate(2679.450348 0)"/>
    <use xlink:href="#Lato-Regular-20" transform="translate(2737.450348 0)"/>
    <use xlink:href="#Lato-Regular-61" transform="translate(2763.050354 0)"/>
    <use xlink:href="#Lato-Regular-64" transform="translate(2812.750366 0)"/>
    <use xlink:href="#Lato-Regular-76" transform="translate(2868.750366 0)"/>
    <use xlink:href="#Lato-Regular-65" transform="translate(2920.350372 0)"/>
    <use xlink:href="#Lato-Regular-72" transform="translate(2973.150375 0)"/>
    <use xlink:href="#Lato-Regular-73" transform="translate(3009.550385 0)"/>
    <use xlink:href="#Lato-Regular-61" transform="translate(3052.850388 0)"/>
    <use xlink:href="#Lato-Regular-72" transform="translate(3102.5504 0)"/>
    <use xlink:href="#Lato-Regular-69" transform="translate(3138.950409 0)"/>
    <use xlink:href="#Lato-Regular-61" transform="translate(3162.950409 0)"/>
    <use xlink:href="#Lato-Regular-6c" transform="translate(3212.650421 0)"/>
    <use xlink:href="#Lato-Regular-20" transform="translate(3236.250427 0)"/>
    <use xlink:href="#Lato-Regular-70" transform="translate(3261.850433 0)"/>
    <use xlink:href="#Lato-Regular-61" transform="translate(3317.900436 0)"/>
    <use xlink:href="#Lato-Regular-74" transform="translate(3367.600449 0)"/>
    <use xlink:href="#Lato-Regular-74" transform="translate(3403.450455 0)"/>
    <use xlink:href="#Lato-Regular-65" transform="translate(3439.300461 0)"/>
    <use xlink:href="#Lato-Regular-72" transform="translate(3492.100464 0)"/>
    <use xlink:href="#Lato-Regular-6e" transform="translate(3528.500473 0)"/>
    <use xlink:href="#Lato-Regular-73" transform="translate(3584.300476 0)"/>
    <use xlink:href="#Lato-Regular-20" transform="translate(3627.600479 0)"/>
    <use xlink:href="#Lato-Regular-b7" transform="translate(3653.200485 0)"/>
    <use xlink:href="#Lato-Regular-20" transform="translate(3679.200485 0)"/>
    <use xlink:href="#Lato-Regular-31" transform="translate(3704.800491 0)"/>
    <use xlink:href="#Lato-Regular-30" transform="translate(3762.800491 0)"/>
    <use xlink:href="#Lato-Regular-30" transform="translate(3820.800491 0)"/>
    <use xlink:href="#Lato-Regular-25" transform="translate(3878.800491 0)"/>
    <use xlink:href="#Lato-Regular-20" transform="translate(3958.9505 0)"/>
    <use xlink:href="#Lato-Regular-3d" transform="translate(3984.550507 0)"/>
    <use xlink:href="#Lato-Regular-20" transform="translate(4042.550507 0)"/>
    <use xlink:href="#Lato-Regular-70" transform="translate(4068.150513 0)"/>
    <use xlink:href="#Lato-Regular-72" transform="translate(4124.200516 0)"/>
    <use xlink:href="#Lato-Regular-6f" transform="translate(4160.600525 0)"/>
    <use xlink:href="#Lato-Regular-76" transform="translate(4217.300537 0)"/>
    <use xlink:href="#Lato-Regular-65" transform="translate(4268.900543 0)"/>
    <use xlink:href="#Lato-Regular-6e" transform="translate(4321.700546 0)"/>
    <use xlink:href="#Lato-Regular-20" transform="translate(4377.500549 0)"/>
    <use xlink:href="#Lato-Regular-6c" transform="translate(4403.100555 0)"/>
    <use xlink:href="#Lato-Regular-6f" transform="translate(4426.700562 0)"/>
    <use xlink:href="#Lato-Regular-77" transform="translate(4483.400574 0)"/>
    <use xlink:href="#Lato-Regular-65" transform="translate(4561.950592 0)"/>
    <use xlink:href="#Lato-Regular-72" transform="translate(4614.750595 0)"/>
    <use xlink:href="#Lato-Regular-20" transform="translate(4651.150604 0)"/>
    <use xlink:href="#Lato-Regular-62" transform="translate(4676.75061 0)"/>
    <use xlink:href="#Lato-Regular-6f" transform="translate(4732.75061 0)"/>
    <use xlink:href="#Lato-Regular-75" transform="translate(4789.450623 0)"/>
    <use xlink:href="#Lato-Regular-6e" transform="translate(4845.200623 0)"/>
    <use xlink:href="#Lato-Regular-64" transform="translate(4901.000626 0)"/>
   </g>
  </g>
 </g>
 <defs>
  <clipPath id="peaf4b4418c">
   <rect x="36.072" y="49.32" width="484.848" height="168.84"/>
  </clipPath>
 </defs>
</svg>
