<?xml version="1.0" encoding="utf-8" standalone="no"?>
<!DOCTYPE svg PUBLIC "-//W3C//DTD SVG 1.1//EN"
  "http://www.w3.org/Graphics/SVG/1.1/DTD/svg11.dtd">
<svg xmlns:xlink="http://www.w3.org/1999/xlink" width="308.21251pt" height="234.425734pt" viewBox="0 0 308.21251 234.425734" xmlns="http://www.w3.org/2000/svg" version="1.1">
 <metadata>
  <rdf:RDF xmlns:dc="http://purl.org/dc/elements/1.1/" xmlns:cc="http://creativecommons.org/ns#" xmlns:rdf="http://www.w3.org/1999/02/22-rdf-syntax-ns#">
   <cc:Work>
    <dc:type rdf:resource="http://purl.org/dc/dcmitype/StillImage"/>
    <dc:date>2026-07-08T00:13:36.680861</dc:date>
    <dc:format>image/svg+xml</dc:format>
    <dc:creator>
     <cc:Agent>
      <dc:title>Matplotlib v3.10.7, https://matplotlib.org/</dc:title>
     </cc:Agent>
    </dc:creator>
   </cc:Work>
  </rdf:RDF>
 </metadata>
 <defs>
  <style type="text/css">*{stroke-linejoin: round; stroke-linecap: butt}</style>
 </defs>
 <g id="figure_1">
  <g id="patch_1">
   <path d="M 0 234.425734 
L 308.21251 234.425734 
L 308.21251 0 
L 0 0 
L 0 234.425734 
z
" style="fill: none"/>
  </g>
  <g id="axes_1">
   <g id="patch_2">
    <path d="M 71.208 210.078 
L 264.096 210.078 
L 264.096 53.298 
L 71.208 53.298 
L 71.208 210.078 
z
" style="fill: none"/>
   </g>
   <g id="line2d_1">
    <path d="M 250.638698 210.078 
L 250.638698 53.298 
" clip-path="url(#p301224f241)" style="fill: none; stroke-dasharray: 3.2,3.2; stroke-dashoffset: 0; stroke: #1a7f37; stroke-opacity: 0.8; stroke-width: 0.8"/>
   </g>
   <g id="matplotlib.axis_1">
    <g id="xtick_1">
     <g id="line2d_2">
      <path d="M 71.208 210.078 
L 71.208 53.298 
" clip-path="url(#p301224f241)" style="fill: none; stroke: #d0d7de; stroke-opacity: 0.45; stroke-width: 0.5; stroke-linecap: square"/>
     </g>
     <g id="line2d_3"/>
     <g id="text_1">
      <!-- 60 -->
      <g style="fill: #59626d" transform="translate(66.568 219.4705) scale(0.08 -0.08)">
       <defs>
        <path id="Lato-Regular-36" d="M 1850 422 
Q 2080 422 2267 496 
Q 2454 570 2587 701 
Q 2720 832 2792 1011 
Q 2864 1190 2864 1402 
Q 2864 1626 2793 1806 
Q 2723 1987 2593 2113 
Q 2464 2240 2285 2307 
Q 2106 2374 1891 2374 
Q 1661 2374 1475 2296 
Q 1290 2218 1160 2085 
Q 1030 1952 961 1777 
Q 893 1603 893 1414 
Q 893 1194 957 1011 
Q 1021 829 1144 697 
Q 1267 566 1444 494 
Q 1622 422 1850 422 
z
M 1517 2867 
Q 1456 2790 1400 2718 
Q 1344 2646 1293 2576 
Q 1456 2688 1651 2749 
Q 1846 2810 2077 2810 
Q 2355 2810 2601 2718 
Q 2848 2627 3032 2452 
Q 3216 2278 3325 2024 
Q 3434 1770 3434 1443 
Q 3434 1126 3318 854 
Q 3203 582 2996 380 
Q 2790 179 2500 64 
Q 2211 -51 1862 -51 
Q 1517 -51 1235 59 
Q 954 170 757 373 
Q 560 576 453 865 
Q 346 1155 346 1514 
Q 346 1814 478 2155 
Q 611 2496 902 2883 
L 2067 4448 
Q 2112 4506 2190 4546 
Q 2269 4586 2371 4586 
L 2877 4586 
L 1517 2867 
z
" transform="scale(0.015625)"/>
        <path id="Lato-Regular-30" d="M 3520 2291 
Q 3520 1690 3390 1250 
Q 3261 810 3037 522 
Q 2813 234 2507 93 
Q 2202 -48 1853 -48 
Q 1501 -48 1198 93 
Q 896 234 672 522 
Q 448 810 320 1250 
Q 192 1690 192 2291 
Q 192 2893 320 3334 
Q 448 3776 672 4065 
Q 896 4355 1198 4496 
Q 1501 4637 1853 4637 
Q 2202 4637 2507 4496 
Q 2813 4355 3037 4065 
Q 3261 3776 3390 3334 
Q 3520 2893 3520 2291 
z
M 2928 2291 
Q 2928 2816 2840 3173 
Q 2752 3530 2603 3747 
Q 2454 3965 2259 4059 
Q 2064 4154 1853 4154 
Q 1642 4154 1446 4059 
Q 1251 3965 1104 3747 
Q 957 3530 869 3173 
Q 781 2816 781 2291 
Q 781 1766 869 1411 
Q 957 1056 1104 838 
Q 1251 621 1446 526 
Q 1642 432 1853 432 
Q 2064 432 2259 526 
Q 2454 621 2603 838 
Q 2752 1056 2840 1411 
Q 2928 1766 2928 2291 
z
" transform="scale(0.015625)"/>
       </defs>
       <use xlink:href="#Lato-Regular-36"/>
       <use xlink:href="#Lato-Regular-30" transform="translate(58 0)"/>
      </g>
     </g>
    </g>
    <g id="xtick_2">
     <g id="line2d_4">
      <path d="M 116.065674 210.078 
L 116.065674 53.298 
" clip-path="url(#p301224f241)" style="fill: none; stroke: #d0d7de; stroke-opacity: 0.45; stroke-width: 0.5; stroke-linecap: square"/>
     </g>
     <g id="line2d_5"/>
     <g id="text_2">
      <!-- 70 -->
      <g style="fill: #59626d" transform="translate(111.425674 219.4705) scale(0.08 -0.08)">
       <defs>
        <path id="Lato-Regular-37" d="M 3459 4586 
L 3459 4330 
Q 3459 4221 3435 4150 
Q 3411 4080 3389 4032 
L 1488 202 
Q 1446 118 1372 59 
Q 1299 0 1178 0 
L 768 0 
L 2694 3782 
Q 2736 3862 2781 3929 
Q 2826 3997 2877 4058 
L 483 4058 
Q 429 4058 387 4101 
Q 346 4144 346 4198 
L 346 4586 
L 3459 4586 
z
" transform="scale(0.015625)"/>
       </defs>
       <use xlink:href="#Lato-Regular-37"/>
       <use xlink:href="#Lato-Regular-30" transform="translate(58 0)"/>
      </g>
     </g>
    </g>
    <g id="xtick_3">
     <g id="line2d_6">
      <path d="M 160.923349 210.078 
L 160.923349 53.298 
" clip-path="url(#p301224f241)" style="fill: none; stroke: #d0d7de; stroke-opacity: 0.45; stroke-width: 0.5; stroke-linecap: square"/>
     </g>
     <g id="line2d_7"/>
     <g id="text_3">
      <!-- 80 -->
      <g style="fill: #59626d" transform="translate(156.283349 219.4705) scale(0.08 -0.08)">
       <defs>
        <path id="Lato-Regular-38" d="M 1856 403 
Q 2080 403 2257 465 
Q 2435 528 2558 641 
Q 2682 755 2747 913 
Q 2813 1072 2813 1264 
Q 2813 1501 2734 1669 
Q 2656 1837 2523 1942 
Q 2390 2048 2217 2097 
Q 2045 2147 1856 2147 
Q 1667 2147 1494 2097 
Q 1322 2048 1189 1942 
Q 1056 1837 977 1669 
Q 899 1501 899 1264 
Q 899 1072 964 913 
Q 1030 755 1153 641 
Q 1277 528 1454 465 
Q 1632 403 1856 403 
z
M 1856 4195 
Q 1651 4195 1496 4134 
Q 1341 4074 1237 3968 
Q 1133 3862 1080 3721 
Q 1027 3581 1027 3421 
Q 1027 3264 1072 3117 
Q 1117 2970 1216 2856 
Q 1315 2742 1473 2673 
Q 1632 2605 1856 2605 
Q 2080 2605 2238 2673 
Q 2397 2742 2496 2856 
Q 2595 2970 2640 3117 
Q 2685 3264 2685 3421 
Q 2685 3581 2632 3721 
Q 2579 3862 2475 3968 
Q 2371 4074 2216 4134 
Q 2061 4195 1856 4195 
z
M 2512 2390 
Q 2941 2269 3171 1984 
Q 3402 1699 3402 1254 
Q 3402 954 3288 712 
Q 3174 470 2971 300 
Q 2768 131 2483 40 
Q 2198 -51 1856 -51 
Q 1514 -51 1229 40 
Q 944 131 739 300 
Q 534 470 422 712 
Q 310 954 310 1254 
Q 310 1699 540 1984 
Q 771 2269 1200 2390 
Q 838 2525 654 2792 
Q 470 3059 470 3430 
Q 470 3683 569 3904 
Q 669 4125 851 4288 
Q 1034 4451 1288 4544 
Q 1542 4637 1856 4637 
Q 2166 4637 2422 4544 
Q 2678 4451 2860 4288 
Q 3043 4125 3142 3904 
Q 3242 3683 3242 3430 
Q 3242 3059 3058 2792 
Q 2874 2525 2512 2390 
z
" transform="scale(0.015625)"/>
       </defs>
       <use xlink:href="#Lato-Regular-38"/>
       <use xlink:href="#Lato-Regular-30" transform="translate(58 0)"/>
      </g>
     </g>
    </g>
    <g id="xtick_4">
     <g id="line2d_8">
      <path d="M 205.781023 210.078 
L 205.781023 53.298 
" clip-path="url(#p301224f241)" style="fill: none; stroke: #d0d7de; stroke-opacity: 0.45; stroke-width: 0.5; stroke-linecap: square"/>
     </g>
     <g id="line2d_9"/>
     <g id="text_4">
      <!-- 90 -->
      <g style="fill: #59626d" transform="translate(201.141023 219.4705) scale(0.08 -0.08)">
       <defs>
        <path id="Lato-Regular-39" d="M 906 3238 
Q 906 3021 968 2849 
Q 1030 2678 1147 2560 
Q 1264 2442 1432 2381 
Q 1600 2320 1808 2320 
Q 2038 2320 2216 2395 
Q 2394 2470 2515 2595 
Q 2637 2720 2701 2883 
Q 2765 3046 2765 3222 
Q 2765 3437 2696 3611 
Q 2627 3786 2505 3907 
Q 2384 4029 2216 4094 
Q 2048 4160 1846 4160 
Q 1635 4160 1462 4091 
Q 1290 4022 1165 3900 
Q 1040 3779 973 3609 
Q 906 3440 906 3238 
z
M 2237 1827 
Q 2307 1920 2368 2003 
Q 2429 2086 2483 2170 
Q 2307 2029 2086 1955 
Q 1866 1882 1619 1882 
Q 1360 1882 1128 1968 
Q 896 2054 720 2222 
Q 544 2390 440 2635 
Q 336 2880 336 3197 
Q 336 3498 448 3760 
Q 560 4022 761 4217 
Q 963 4413 1241 4525 
Q 1520 4637 1853 4637 
Q 2182 4637 2451 4528 
Q 2720 4419 2912 4224 
Q 3104 4029 3208 3757 
Q 3312 3485 3312 3155 
Q 3312 2957 3275 2779 
Q 3238 2602 3169 2430 
Q 3101 2259 3001 2091 
Q 2902 1923 2778 1747 
L 1661 134 
Q 1619 74 1542 37 
Q 1466 0 1366 0 
L 842 0 
L 2237 1827 
z
" transform="scale(0.015625)"/>
       </defs>
       <use xlink:href="#Lato-Regular-39"/>
       <use xlink:href="#Lato-Regular-30" transform="translate(58 0)"/>
      </g>
     </g>
    </g>
    <g id="xtick_5">
     <g id="line2d_10">
      <path d="M 250.638698 210.078 
L 250.638698 53.298 
" clip-path="url(#p301224f241)" style="fill: none; stroke: #d0d7de; stroke-opacity: 0.45; stroke-width: 0.5; stroke-linecap: square"/>
     </g>
     <g id="line2d_11"/>
     <g id="text_5">
      <!-- 100 -->
      <g style="fill: #59626d" transform="translate(243.678698 219.4705) scale(0.08 -0.08)">
       <defs>
        <path id="Lato-Regular-31" d="M 3258 435 
L 3258 0 
L 800 0 
L 800 435 
L 1782 435 
L 1782 3562 
Q 1782 3702 1792 3846 
L 976 3146 
Q 934 3110 892 3102 
Q 851 3094 816 3100 
Q 781 3107 750 3126 
Q 720 3146 704 3168 
L 525 3414 
L 1891 4595 
L 2355 4595 
L 2355 435 
L 3258 435 
z
" transform="scale(0.015625)"/>
       </defs>
       <use xlink:href="#Lato-Regular-31"/>
       <use xlink:href="#Lato-Regular-30" transform="translate(58 0)"/>
       <use xlink:href="#Lato-Regular-30" transform="translate(116 0)"/>
      </g>
     </g>
    </g>
    <g id="text_6">
     <!-- packing efficiency (%) -->
     <g style="fill: #59626d" transform="translate(127.388562 231.434484) scale(0.085 -0.085)">
      <defs>
       <path id="Lato-Regular-70" d="M 1024 781 
Q 1181 570 1366 483 
Q 1552 397 1782 397 
Q 2237 397 2480 720 
Q 2723 1043 2723 1642 
Q 2723 1958 2667 2185 
Q 2611 2413 2505 2558 
Q 2400 2704 2246 2771 
Q 2093 2838 1898 2838 
Q 1619 2838 1409 2710 
Q 1200 2582 1024 2349 
L 1024 781 
z
M 995 2739 
Q 1200 2992 1469 3145 
Q 1738 3299 2083 3299 
Q 2365 3299 2592 3192 
Q 2819 3085 2979 2875 
Q 3139 2666 3225 2355 
Q 3312 2045 3312 1642 
Q 3312 1283 3216 974 
Q 3120 666 2939 440 
Q 2758 214 2497 84 
Q 2237 -45 1910 -45 
Q 1613 -45 1400 56 
Q 1187 157 1024 336 
L 1024 -1098 
L 451 -1098 
L 451 3242 
L 794 3242 
Q 915 3242 944 3123 
L 995 2739 
z
" transform="scale(0.015625)"/>
       <path id="Lato-Regular-61" d="M 2208 1459 
Q 1814 1446 1537 1396 
Q 1261 1347 1086 1267 
Q 912 1187 833 1078 
Q 755 970 755 835 
Q 755 707 796 614 
Q 838 522 910 462 
Q 982 403 1080 376 
Q 1178 349 1290 349 
Q 1440 349 1565 379 
Q 1690 410 1800 467 
Q 1910 525 2011 605 
Q 2112 685 2208 787 
L 2208 1459 
z
M 368 2784 
Q 637 3043 947 3171 
Q 1258 3299 1635 3299 
Q 1907 3299 2118 3209 
Q 2330 3120 2474 2960 
Q 2618 2800 2691 2573 
Q 2765 2346 2765 2074 
L 2765 0 
L 2512 0 
Q 2429 0 2384 27 
Q 2339 54 2314 134 
L 2250 442 
Q 2122 323 2000 232 
Q 1878 141 1744 78 
Q 1610 16 1458 -17 
Q 1306 -51 1120 -51 
Q 931 -51 764 1 
Q 598 54 475 160 
Q 352 266 280 427 
Q 208 589 208 810 
Q 208 1002 313 1179 
Q 419 1357 656 1494 
Q 893 1632 1273 1720 
Q 1654 1808 2208 1821 
L 2208 2074 
Q 2208 2451 2045 2644 
Q 1882 2838 1568 2838 
Q 1357 2838 1214 2785 
Q 1072 2733 968 2667 
Q 864 2602 789 2549 
Q 714 2496 640 2496 
Q 582 2496 540 2526 
Q 499 2557 470 2602 
L 368 2784 
z
" transform="scale(0.015625)"/>
       <path id="Lato-Regular-63" d="M 2707 2666 
Q 2682 2630 2656 2611 
Q 2630 2592 2586 2592 
Q 2538 2592 2480 2632 
Q 2422 2672 2337 2720 
Q 2253 2768 2129 2808 
Q 2006 2848 1827 2848 
Q 1587 2848 1404 2763 
Q 1222 2678 1099 2518 
Q 976 2358 913 2131 
Q 851 1904 851 1622 
Q 851 1328 918 1099 
Q 986 870 1109 715 
Q 1232 560 1406 478 
Q 1581 397 1798 397 
Q 2006 397 2140 446 
Q 2275 496 2363 557 
Q 2451 618 2510 667 
Q 2570 717 2627 717 
Q 2698 717 2736 662 
L 2896 454 
Q 2790 323 2656 230 
Q 2522 138 2366 75 
Q 2211 13 2041 -16 
Q 1872 -45 1696 -45 
Q 1392 -45 1131 67 
Q 870 179 678 392 
Q 486 605 377 915 
Q 269 1226 269 1622 
Q 269 1984 369 2291 
Q 470 2598 664 2820 
Q 858 3043 1141 3168 
Q 1424 3293 1792 3293 
Q 2134 3293 2395 3182 
Q 2656 3072 2858 2870 
L 2707 2666 
z
" transform="scale(0.015625)"/>
       <path id="Lato-Regular-6b" d="M 1024 4714 
L 1024 1939 
L 1171 1939 
Q 1235 1939 1278 1956 
Q 1322 1974 1370 2029 
L 2394 3126 
Q 2438 3181 2488 3211 
Q 2538 3242 2621 3242 
L 3136 3242 
L 1942 1971 
Q 1856 1862 1757 1802 
Q 1814 1763 1860 1713 
Q 1907 1664 1949 1600 
L 3216 0 
L 2707 0 
Q 2634 0 2581 24 
Q 2528 48 2490 112 
L 1424 1440 
Q 1376 1507 1329 1528 
Q 1283 1549 1187 1549 
L 1024 1549 
L 1024 0 
L 451 0 
L 451 4714 
L 1024 4714 
z
" transform="scale(0.015625)"/>
       <path id="Lato-Regular-69" d="M 1053 3242 
L 1053 0 
L 483 0 
L 483 3242 
L 1053 3242 
z
M 1174 4259 
Q 1174 4176 1140 4104 
Q 1107 4032 1051 3976 
Q 995 3920 920 3888 
Q 845 3856 762 3856 
Q 678 3856 606 3888 
Q 534 3920 480 3976 
Q 426 4032 394 4104 
Q 362 4176 362 4259 
Q 362 4342 394 4417 
Q 426 4493 480 4549 
Q 534 4605 606 4637 
Q 678 4669 762 4669 
Q 845 4669 920 4637 
Q 995 4605 1051 4549 
Q 1107 4493 1140 4417 
Q 1174 4342 1174 4259 
z
" transform="scale(0.015625)"/>
       <path id="Lato-Regular-6e" d="M 989 2771 
Q 1094 2890 1212 2986 
Q 1331 3082 1464 3150 
Q 1597 3219 1745 3256 
Q 1894 3293 2067 3293 
Q 2333 3293 2536 3205 
Q 2739 3117 2875 2955 
Q 3011 2794 3081 2566 
Q 3152 2339 3152 2064 
L 3152 0 
L 2579 0 
L 2579 2064 
Q 2579 2432 2411 2635 
Q 2243 2838 1901 2838 
Q 1648 2838 1429 2716 
Q 1210 2595 1024 2387 
L 1024 0 
L 451 0 
L 451 3242 
L 794 3242 
Q 915 3242 944 3123 
L 989 2771 
z
" transform="scale(0.015625)"/>
       <path id="Lato-Regular-67" d="M 1581 1584 
Q 1754 1584 1885 1632 
Q 2016 1680 2105 1766 
Q 2195 1853 2240 1973 
Q 2285 2093 2285 2237 
Q 2285 2534 2104 2710 
Q 1923 2886 1581 2886 
Q 1235 2886 1054 2710 
Q 874 2534 874 2237 
Q 874 2093 920 1973 
Q 966 1853 1056 1766 
Q 1146 1680 1277 1632 
Q 1408 1584 1581 1584 
z
M 2608 -176 
Q 2608 -58 2541 16 
Q 2474 90 2360 131 
Q 2246 173 2096 190 
Q 1946 208 1778 217 
Q 1610 227 1437 236 
Q 1264 246 1104 269 
Q 925 186 811 59 
Q 698 -67 698 -237 
Q 698 -346 754 -440 
Q 810 -534 925 -603 
Q 1040 -672 1214 -712 
Q 1389 -752 1626 -752 
Q 1856 -752 2038 -710 
Q 2221 -669 2347 -592 
Q 2474 -515 2541 -409 
Q 2608 -304 2608 -176 
z
M 3187 3114 
L 3187 2902 
Q 3187 2797 3053 2768 
L 2685 2720 
Q 2794 2509 2794 2253 
Q 2794 2016 2702 1822 
Q 2611 1629 2451 1491 
Q 2291 1354 2067 1280 
Q 1843 1206 1581 1206 
Q 1354 1206 1152 1261 
Q 1050 1197 995 1125 
Q 941 1053 941 979 
Q 941 864 1035 805 
Q 1130 746 1283 720 
Q 1437 694 1633 688 
Q 1830 682 2036 667 
Q 2243 653 2440 617 
Q 2637 582 2790 502 
Q 2944 422 3038 281 
Q 3133 141 3133 -83 
Q 3133 -291 3029 -486 
Q 2925 -682 2729 -834 
Q 2534 -986 2251 -1077 
Q 1968 -1168 1613 -1168 
Q 1258 -1168 992 -1097 
Q 726 -1027 550 -908 
Q 374 -790 286 -635 
Q 198 -480 198 -310 
Q 198 -70 348 96 
Q 499 262 762 362 
Q 618 426 533 533 
Q 448 640 448 822 
Q 448 893 473 968 
Q 499 1043 552 1118 
Q 605 1194 681 1261 
Q 758 1328 861 1379 
Q 621 1514 486 1736 
Q 352 1958 352 2253 
Q 352 2490 443 2683 
Q 534 2877 697 3013 
Q 861 3149 1086 3222 
Q 1312 3296 1581 3296 
Q 1792 3296 1974 3249 
Q 2157 3203 2307 3114 
L 3187 3114 
z
" transform="scale(0.015625)"/>
       <path id="Lato-Regular-20" transform="scale(0.015625)"/>
       <path id="Lato-Regular-65" d="M 2621 1974 
Q 2621 2173 2565 2337 
Q 2509 2502 2401 2622 
Q 2294 2742 2140 2808 
Q 1987 2874 1792 2874 
Q 1382 2874 1144 2635 
Q 906 2397 848 1974 
L 2621 1974 
z
M 3082 454 
Q 2976 326 2829 232 
Q 2682 138 2514 77 
Q 2346 16 2166 -14 
Q 1987 -45 1811 -45 
Q 1475 -45 1192 68 
Q 909 182 702 401 
Q 496 621 381 944 
Q 266 1267 266 1686 
Q 266 2026 370 2320 
Q 474 2614 669 2830 
Q 864 3046 1145 3169 
Q 1427 3293 1779 3293 
Q 2070 3293 2318 3195 
Q 2566 3098 2747 2914 
Q 2928 2730 3030 2459 
Q 3133 2189 3133 1843 
Q 3133 1709 3104 1664 
Q 3075 1619 2995 1619 
L 829 1619 
Q 838 1312 913 1085 
Q 989 858 1123 706 
Q 1258 554 1443 478 
Q 1629 403 1859 403 
Q 2074 403 2229 452 
Q 2384 502 2496 560 
Q 2608 618 2683 667 
Q 2758 717 2813 717 
Q 2883 717 2922 662 
L 3082 454 
z
" transform="scale(0.015625)"/>
       <path id="Lato-Regular-66" d="M 662 0 
L 662 2755 
L 304 2797 
Q 237 2813 193 2846 
Q 150 2880 150 2944 
L 150 3178 
L 662 3178 
L 662 3491 
Q 662 3770 740 3986 
Q 819 4202 964 4350 
Q 1110 4499 1315 4576 
Q 1520 4653 1776 4653 
Q 1994 4653 2176 4589 
L 2163 4304 
Q 2157 4227 2078 4220 
Q 2000 4214 1869 4214 
Q 1722 4214 1602 4176 
Q 1482 4138 1395 4051 
Q 1309 3965 1262 3824 
Q 1216 3683 1216 3475 
L 1216 3178 
L 2150 3178 
L 2150 2765 
L 1235 2765 
L 1235 0 
L 662 0 
z
" transform="scale(0.015625)"/>
       <path id="Lato-Regular-79" d="M 3248 3242 
L 1440 -957 
Q 1411 -1021 1368 -1059 
Q 1325 -1098 1235 -1098 
L 813 -1098 
L 1405 189 
L 67 3242 
L 560 3242 
Q 634 3242 677 3205 
Q 720 3168 736 3123 
L 1603 1082 
Q 1654 947 1690 800 
Q 1734 950 1786 1085 
L 2627 3123 
Q 2646 3174 2692 3208 
Q 2739 3242 2797 3242 
L 3248 3242 
z
" transform="scale(0.015625)"/>
       <path id="Lato-Regular-28" d="M 784 2013 
Q 784 1328 958 681 
Q 1133 35 1469 -547 
Q 1520 -646 1494 -699 
Q 1469 -752 1421 -784 
L 1168 -938 
Q 928 -570 760 -208 
Q 592 154 488 518 
Q 384 883 336 1252 
Q 288 1622 288 2013 
Q 288 2400 336 2771 
Q 384 3142 488 3505 
Q 592 3869 760 4230 
Q 928 4592 1168 4963 
L 1421 4806 
Q 1469 4774 1494 4721 
Q 1520 4669 1469 4573 
Q 1133 3990 958 3344 
Q 784 2698 784 2013 
z
" transform="scale(0.015625)"/>
       <path id="Lato-Regular-25" d="M 2310 3478 
Q 2310 3210 2227 2997 
Q 2144 2784 2005 2638 
Q 1866 2493 1682 2416 
Q 1498 2339 1293 2339 
Q 1078 2339 892 2416 
Q 707 2493 571 2638 
Q 435 2784 358 2997 
Q 282 3210 282 3478 
Q 282 3754 358 3968 
Q 435 4182 571 4329 
Q 707 4477 892 4553 
Q 1078 4630 1293 4630 
Q 1510 4630 1696 4553 
Q 1882 4477 2019 4329 
Q 2157 4182 2233 3968 
Q 2310 3754 2310 3478 
z
M 1869 3478 
Q 1869 3690 1824 3837 
Q 1779 3984 1700 4078 
Q 1622 4173 1516 4214 
Q 1411 4256 1293 4256 
Q 1174 4256 1072 4214 
Q 970 4173 893 4078 
Q 816 3984 771 3837 
Q 726 3690 726 3478 
Q 726 3270 771 3124 
Q 816 2979 893 2888 
Q 970 2797 1072 2757 
Q 1174 2717 1293 2717 
Q 1411 2717 1516 2757 
Q 1622 2797 1700 2888 
Q 1779 2979 1824 3124 
Q 1869 3270 1869 3478 
z
M 3933 4490 
Q 3965 4528 4008 4557 
Q 4051 4586 4125 4586 
L 4538 4586 
L 1184 93 
Q 1155 51 1110 25 
Q 1066 0 1002 0 
L 582 0 
L 3933 4490 
z
M 4848 1082 
Q 4848 813 4765 601 
Q 4682 390 4542 244 
Q 4403 99 4219 22 
Q 4035 -54 3830 -54 
Q 3613 -54 3429 22 
Q 3245 99 3109 244 
Q 2973 390 2896 601 
Q 2819 813 2819 1082 
Q 2819 1357 2896 1573 
Q 2973 1789 3109 1936 
Q 3245 2083 3429 2160 
Q 3613 2237 3830 2237 
Q 4045 2237 4232 2160 
Q 4419 2083 4555 1936 
Q 4691 1789 4769 1573 
Q 4848 1357 4848 1082 
z
M 4406 1082 
Q 4406 1293 4361 1441 
Q 4317 1590 4238 1683 
Q 4160 1776 4054 1817 
Q 3949 1859 3830 1859 
Q 3712 1859 3608 1817 
Q 3504 1776 3427 1683 
Q 3350 1590 3307 1441 
Q 3264 1293 3264 1082 
Q 3264 874 3307 730 
Q 3350 586 3427 494 
Q 3504 403 3608 363 
Q 3712 323 3830 323 
Q 3949 323 4054 363 
Q 4160 403 4238 494 
Q 4317 586 4361 730 
Q 4406 874 4406 1082 
z
" transform="scale(0.015625)"/>
       <path id="Lato-Regular-29" d="M 925 2013 
Q 925 2698 750 3344 
Q 576 3990 240 4573 
Q 214 4621 208 4657 
Q 202 4694 211 4721 
Q 221 4749 241 4769 
Q 262 4790 288 4806 
L 541 4963 
Q 781 4592 949 4230 
Q 1117 3869 1221 3505 
Q 1325 3142 1373 2771 
Q 1421 2400 1421 2013 
Q 1421 1622 1373 1252 
Q 1325 883 1221 518 
Q 1117 154 949 -208 
Q 781 -570 541 -938 
L 288 -784 
Q 262 -768 241 -747 
Q 221 -726 211 -699 
Q 202 -672 208 -633 
Q 214 -595 240 -547 
Q 576 35 750 681 
Q 925 1328 925 2013 
z
" transform="scale(0.015625)"/>
      </defs>
      <use xlink:href="#Lato-Regular-70"/>
      <use xlink:href="#Lato-Regular-61" transform="translate(56.050003 0)"/>
      <use xlink:href="#Lato-Regular-63" transform="translate(105.750015 0)"/>
      <use xlink:href="#Lato-Regular-6b" transform="translate(153.500015 0)"/>
      <use xlink:href="#Lato-Regular-69" transform="translate(204.300018 0)"/>
      <use xlink:href="#Lato-Regular-6e" transform="translate(228.300018 0)"/>
      <use xlink:href="#Lato-Regular-67" transform="translate(284.100021 0)"/>
      <use xlink:href="#Lato-Regular-20" transform="translate(336.100021 0)"/>
      <use xlink:href="#Lato-Regular-65" transform="translate(361.700027 0)"/>
      <use xlink:href="#Lato-Regular-66" transform="translate(414.500031 0)"/>
      <use xlink:href="#Lato-Regular-66" transform="translate(449.550034 0)"/>
      <use xlink:href="#Lato-Regular-69" transform="translate(484.600037 0)"/>
      <use xlink:href="#Lato-Regular-63" transform="translate(508.600037 0)"/>
      <use xlink:href="#Lato-Regular-69" transform="translate(556.350037 0)"/>
      <use xlink:href="#Lato-Regular-65" transform="translate(580.350037 0)"/>
      <use xlink:href="#Lato-Regular-6e" transform="translate(633.15004 0)"/>
      <use xlink:href="#Lato-Regular-63" transform="translate(688.950043 0)"/>
      <use xlink:href="#Lato-Regular-79" transform="translate(736.700043 0)"/>
      <use xlink:href="#Lato-Regular-20" transform="translate(788.250046 0)"/>
      <use xlink:href="#Lato-Regular-28" transform="translate(813.850052 0)"/>
      <use xlink:href="#Lato-Regular-25" transform="translate(840.550049 0)"/>
      <use xlink:href="#Lato-Regular-29" transform="translate(920.700058 0)"/>
     </g>
    </g>
   </g>
   <g id="matplotlib.axis_2">
    <g id="ytick_1">
     <g id="line2d_12"/>
     <g id="text_7">
      <!-- minimalloc A -->
      <g style="fill: #59626d" transform="translate(19.858312 69.493391) scale(0.085 -0.085)">
       <defs>
        <path id="Lato-Regular-6d" d="M 451 0 
L 451 3242 
L 794 3242 
Q 915 3242 944 3123 
L 986 2790 
Q 1165 3011 1389 3152 
Q 1613 3293 1907 3293 
Q 2234 3293 2437 3110 
Q 2640 2928 2730 2618 
Q 2800 2794 2910 2922 
Q 3021 3050 3158 3133 
Q 3296 3216 3451 3254 
Q 3606 3293 3766 3293 
Q 4022 3293 4222 3211 
Q 4422 3130 4561 2973 
Q 4701 2816 4774 2587 
Q 4848 2358 4848 2064 
L 4848 0 
L 4275 0 
L 4275 2064 
Q 4275 2445 4108 2641 
Q 3942 2838 3629 2838 
Q 3488 2838 3361 2788 
Q 3235 2739 3139 2643 
Q 3043 2547 2987 2401 
Q 2931 2256 2931 2064 
L 2931 0 
L 2358 0 
L 2358 2064 
Q 2358 2454 2201 2646 
Q 2045 2838 1744 2838 
Q 1533 2838 1353 2724 
Q 1174 2611 1024 2416 
L 1024 0 
L 451 0 
z
" transform="scale(0.015625)"/>
        <path id="Lato-Regular-6c" d="M 1040 4714 
L 1040 0 
L 470 0 
L 470 4714 
L 1040 4714 
z
" transform="scale(0.015625)"/>
        <path id="Lato-Regular-6f" d="M 1818 3293 
Q 2173 3293 2457 3174 
Q 2742 3056 2944 2838 
Q 3146 2621 3253 2312 
Q 3360 2003 3360 1622 
Q 3360 1238 3253 931 
Q 3146 624 2944 406 
Q 2742 189 2457 72 
Q 2173 -45 1818 -45 
Q 1459 -45 1172 72 
Q 886 189 684 406 
Q 483 624 376 931 
Q 269 1238 269 1622 
Q 269 2003 376 2312 
Q 483 2621 684 2838 
Q 886 3056 1172 3174 
Q 1459 3293 1818 3293 
z
M 1818 400 
Q 2298 400 2534 721 
Q 2771 1043 2771 1619 
Q 2771 2198 2534 2521 
Q 2298 2845 1818 2845 
Q 1574 2845 1393 2761 
Q 1213 2678 1093 2521 
Q 973 2365 913 2136 
Q 854 1907 854 1619 
Q 854 1043 1092 721 
Q 1331 400 1818 400 
z
" transform="scale(0.015625)"/>
        <path id="Lato-Regular-41" d="M 3021 1702 
L 2301 3568 
Q 2269 3651 2233 3761 
Q 2198 3872 2166 3997 
Q 2099 3738 2029 3565 
L 1309 1702 
L 3021 1702 
z
M 4314 0 
L 3834 0 
Q 3750 0 3699 41 
Q 3648 83 3622 147 
L 3194 1254 
L 1136 1254 
L 707 147 
Q 688 90 633 45 
Q 579 0 499 0 
L 19 0 
L 1853 4586 
L 2480 4586 
L 4314 0 
z
" transform="scale(0.015625)"/>
       </defs>
       <use xlink:href="#Lato-Regular-6d"/>
       <use xlink:href="#Lato-Regular-69" transform="translate(82.250015 0)"/>
       <use xlink:href="#Lato-Regular-6e" transform="translate(106.250015 0)"/>
       <use xlink:href="#Lato-Regular-69" transform="translate(162.050018 0)"/>
       <use xlink:href="#Lato-Regular-6d" transform="translate(186.050018 0)"/>
       <use xlink:href="#Lato-Regular-61" transform="translate(268.300034 0)"/>
       <use xlink:href="#Lato-Regular-6c" transform="translate(318.000046 0)"/>
       <use xlink:href="#Lato-Regular-6c" transform="translate(341.600052 0)"/>
       <use xlink:href="#Lato-Regular-6f" transform="translate(365.200058 0)"/>
       <use xlink:href="#Lato-Regular-63" transform="translate(421.90007 0)"/>
       <use xlink:href="#Lato-Regular-20" transform="translate(469.65007 0)"/>
       <use xlink:href="#Lato-Regular-41" transform="translate(495.250076 0)"/>
      </g>
     </g>
    </g>
    <g id="ytick_2">
     <g id="line2d_13"/>
     <g id="text_8">
      <!-- minimalloc C -->
      <g style="fill: #59626d" transform="translate(19.935344 91.268391) scale(0.085 -0.085)">
       <defs>
        <path id="Lato-Regular-43" d="M 3805 947 
Q 3856 947 3894 906 
L 4141 640 
Q 3859 314 3457 131 
Q 3056 -51 2486 -51 
Q 1994 -51 1590 120 
Q 1187 291 902 600 
Q 618 909 461 1341 
Q 304 1773 304 2291 
Q 304 2810 467 3242 
Q 630 3674 926 3984 
Q 1222 4294 1635 4465 
Q 2048 4637 2547 4637 
Q 3037 4637 3411 4480 
Q 3786 4323 4070 4054 
L 3866 3770 
Q 3846 3738 3816 3717 
Q 3786 3696 3734 3696 
Q 3677 3696 3593 3758 
Q 3510 3821 3376 3897 
Q 3242 3974 3040 4036 
Q 2838 4099 2544 4099 
Q 2189 4099 1894 3976 
Q 1600 3853 1387 3619 
Q 1174 3386 1056 3050 
Q 938 2714 938 2291 
Q 938 1862 1061 1526 
Q 1184 1190 1397 958 
Q 1610 726 1899 604 
Q 2189 483 2525 483 
Q 2730 483 2894 507 
Q 3059 531 3198 582 
Q 3338 634 3458 712 
Q 3578 790 3696 899 
Q 3750 947 3805 947 
z
" transform="scale(0.015625)"/>
       </defs>
       <use xlink:href="#Lato-Regular-6d"/>
       <use xlink:href="#Lato-Regular-69" transform="translate(82.250015 0)"/>
       <use xlink:href="#Lato-Regular-6e" transform="translate(106.250015 0)"/>
       <use xlink:href="#Lato-Regular-69" transform="translate(162.050018 0)"/>
       <use xlink:href="#Lato-Regular-6d" transform="translate(186.050018 0)"/>
       <use xlink:href="#Lato-Regular-61" transform="translate(268.300034 0)"/>
       <use xlink:href="#Lato-Regular-6c" transform="translate(318.000046 0)"/>
       <use xlink:href="#Lato-Regular-6c" transform="translate(341.600052 0)"/>
       <use xlink:href="#Lato-Regular-6f" transform="translate(365.200058 0)"/>
       <use xlink:href="#Lato-Regular-63" transform="translate(421.90007 0)"/>
       <use xlink:href="#Lato-Regular-20" transform="translate(469.65007 0)"/>
       <use xlink:href="#Lato-Regular-43" transform="translate(495.250076 0)"/>
      </g>
     </g>
    </g>
    <g id="ytick_3">
     <g id="line2d_14"/>
     <g id="text_9">
      <!-- minimalloc H -->
      <g style="fill: #59626d" transform="translate(19.123859 113.043391) scale(0.085 -0.085)">
       <defs>
        <path id="Lato-Regular-48" d="M 4301 4586 
L 4301 0 
L 3680 0 
L 3680 2086 
L 1206 2086 
L 1206 0 
L 586 0 
L 586 4586 
L 1206 4586 
L 1206 2541 
L 3680 2541 
L 3680 4586 
L 4301 4586 
z
" transform="scale(0.015625)"/>
       </defs>
       <use xlink:href="#Lato-Regular-6d"/>
       <use xlink:href="#Lato-Regular-69" transform="translate(82.250015 0)"/>
       <use xlink:href="#Lato-Regular-6e" transform="translate(106.250015 0)"/>
       <use xlink:href="#Lato-Regular-69" transform="translate(162.050018 0)"/>
       <use xlink:href="#Lato-Regular-6d" transform="translate(186.050018 0)"/>
       <use xlink:href="#Lato-Regular-61" transform="translate(268.300034 0)"/>
       <use xlink:href="#Lato-Regular-6c" transform="translate(318.000046 0)"/>
       <use xlink:href="#Lato-Regular-6c" transform="translate(341.600052 0)"/>
       <use xlink:href="#Lato-Regular-6f" transform="translate(365.200058 0)"/>
       <use xlink:href="#Lato-Regular-63" transform="translate(421.90007 0)"/>
       <use xlink:href="#Lato-Regular-20" transform="translate(469.65007 0)"/>
       <use xlink:href="#Lato-Regular-48" transform="translate(495.250076 0)"/>
      </g>
     </g>
    </g>
    <g id="ytick_4">
     <g id="line2d_15"/>
     <g id="text_10">
      <!-- minimalloc K -->
      <g style="fill: #59626d" transform="translate(19.981828 134.818391) scale(0.085 -0.085)">
       <defs>
        <path id="Lato-Regular-4b" d="M 1203 2576 
L 1437 2576 
Q 1558 2576 1632 2606 
Q 1706 2637 1766 2710 
L 3293 4438 
Q 3357 4522 3427 4554 
Q 3498 4586 3600 4586 
L 4125 4586 
L 2378 2611 
Q 2314 2534 2254 2484 
Q 2195 2435 2128 2403 
Q 2214 2374 2284 2318 
Q 2355 2262 2422 2173 
L 4246 0 
L 3709 0 
Q 3648 0 3605 8 
Q 3562 16 3530 33 
Q 3498 51 3474 75 
Q 3450 99 3427 131 
L 1846 1952 
Q 1782 2032 1708 2065 
Q 1635 2099 1485 2099 
L 1203 2099 
L 1203 0 
L 586 0 
L 586 4586 
L 1203 4586 
L 1203 2576 
z
" transform="scale(0.015625)"/>
       </defs>
       <use xlink:href="#Lato-Regular-6d"/>
       <use xlink:href="#Lato-Regular-69" transform="translate(82.250015 0)"/>
       <use xlink:href="#Lato-Regular-6e" transform="translate(106.250015 0)"/>
       <use xlink:href="#Lato-Regular-69" transform="translate(162.050018 0)"/>
       <use xlink:href="#Lato-Regular-6d" transform="translate(186.050018 0)"/>
       <use xlink:href="#Lato-Regular-61" transform="translate(268.300034 0)"/>
       <use xlink:href="#Lato-Regular-6c" transform="translate(318.000046 0)"/>
       <use xlink:href="#Lato-Regular-6c" transform="translate(341.600052 0)"/>
       <use xlink:href="#Lato-Regular-6f" transform="translate(365.200058 0)"/>
       <use xlink:href="#Lato-Regular-63" transform="translate(421.90007 0)"/>
       <use xlink:href="#Lato-Regular-20" transform="translate(469.65007 0)"/>
       <use xlink:href="#Lato-Regular-4b" transform="translate(495.250076 0)"/>
      </g>
     </g>
    </g>
    <g id="ytick_5">
     <g id="line2d_16"/>
     <g id="text_11">
      <!-- pinwheel -->
      <g style="fill: #59626d" transform="translate(33.761125 156.593391) scale(0.085 -0.085)">
       <defs>
        <path id="Lato-Regular-77" d="M 4922 3242 
L 3872 0 
L 3421 0 
Q 3338 0 3306 109 
L 2589 2307 
Q 2563 2381 2547 2456 
Q 2531 2531 2515 2605 
Q 2499 2531 2483 2456 
Q 2467 2381 2442 2304 
L 1712 109 
Q 1683 0 1584 0 
L 1155 0 
L 106 3242 
L 554 3242 
Q 621 3242 667 3206 
Q 714 3171 730 3123 
L 1350 1037 
Q 1405 806 1437 602 
Q 1466 707 1496 816 
Q 1526 925 1562 1037 
L 2246 3136 
Q 2262 3184 2302 3216 
Q 2342 3248 2400 3248 
L 2650 3248 
Q 2714 3248 2755 3216 
Q 2797 3184 2813 3136 
L 3482 1037 
Q 3517 925 3545 816 
Q 3574 707 3600 602 
Q 3616 707 3640 814 
Q 3664 922 3693 1037 
L 4326 3123 
Q 4342 3174 4387 3208 
Q 4432 3242 4493 3242 
L 4922 3242 
z
" transform="scale(0.015625)"/>
        <path id="Lato-Regular-68" d="M 1024 2810 
Q 1232 3030 1485 3161 
Q 1738 3293 2067 3293 
Q 2333 3293 2536 3205 
Q 2739 3117 2875 2955 
Q 3011 2794 3081 2566 
Q 3152 2339 3152 2064 
L 3152 0 
L 2579 0 
L 2579 2064 
Q 2579 2432 2411 2635 
Q 2243 2838 1901 2838 
Q 1648 2838 1429 2716 
Q 1210 2595 1024 2387 
L 1024 0 
L 451 0 
L 451 4714 
L 1024 4714 
L 1024 2810 
z
" transform="scale(0.015625)"/>
       </defs>
       <use xlink:href="#Lato-Regular-70"/>
       <use xlink:href="#Lato-Regular-69" transform="translate(56.050003 0)"/>
       <use xlink:href="#Lato-Regular-6e" transform="translate(80.050003 0)"/>
       <use xlink:href="#Lato-Regular-77" transform="translate(135.850006 0)"/>
       <use xlink:href="#Lato-Regular-68" transform="translate(214.400024 0)"/>
       <use xlink:href="#Lato-Regular-65" transform="translate(270.200027 0)"/>
       <use xlink:href="#Lato-Regular-65" transform="translate(323.000031 0)"/>
       <use xlink:href="#Lato-Regular-6c" transform="translate(375.800034 0)"/>
      </g>
     </g>
    </g>
    <g id="ytick_6">
     <g id="line2d_17"/>
     <g id="text_12">
      <!-- tiling -->
      <g style="fill: #59626d" transform="translate(49.413078 178.368391) scale(0.085 -0.085)">
       <defs>
        <path id="Lato-Regular-74" d="M 1446 -51 
Q 1062 -51 856 163 
Q 650 378 650 781 
L 650 2765 
L 259 2765 
Q 208 2765 173 2795 
Q 138 2826 138 2890 
L 138 3117 
L 669 3184 
L 800 4186 
Q 810 4234 843 4264 
Q 877 4294 931 4294 
L 1219 4294 
L 1219 3178 
L 2157 3178 
L 2157 2765 
L 1219 2765 
L 1219 819 
Q 1219 614 1318 515 
Q 1418 416 1574 416 
Q 1664 416 1729 440 
Q 1795 464 1843 493 
Q 1891 522 1924 546 
Q 1958 570 1984 570 
Q 2029 570 2064 515 
L 2230 243 
Q 2083 106 1875 27 
Q 1667 -51 1446 -51 
z
" transform="scale(0.015625)"/>
       </defs>
       <use xlink:href="#Lato-Regular-74"/>
       <use xlink:href="#Lato-Regular-69" transform="translate(35.850006 0)"/>
       <use xlink:href="#Lato-Regular-6c" transform="translate(59.850006 0)"/>
       <use xlink:href="#Lato-Regular-69" transform="translate(83.450012 0)"/>
       <use xlink:href="#Lato-Regular-6e" transform="translate(107.450012 0)"/>
       <use xlink:href="#Lato-Regular-67" transform="translate(163.250015 0)"/>
      </g>
     </g>
    </g>
    <g id="ytick_7">
     <g id="line2d_18"/>
     <g id="text_13">
      <!-- random (easy) -->
      <g style="fill: #59626d" transform="translate(15.585734 200.308742) scale(0.085 -0.085)">
       <defs>
        <path id="Lato-Regular-72" d="M 992 2592 
Q 1146 2925 1370 3112 
Q 1594 3299 1917 3299 
Q 2019 3299 2113 3276 
Q 2208 3254 2282 3206 
L 2240 2781 
Q 2221 2701 2144 2701 
Q 2099 2701 2012 2720 
Q 1926 2739 1818 2739 
Q 1664 2739 1544 2694 
Q 1424 2650 1329 2562 
Q 1235 2474 1160 2344 
Q 1085 2214 1024 2048 
L 1024 0 
L 451 0 
L 451 3242 
L 778 3242 
Q 870 3242 905 3206 
Q 941 3171 954 3085 
L 992 2592 
z
" transform="scale(0.015625)"/>
        <path id="Lato-Regular-64" d="M 2563 2470 
Q 2403 2685 2217 2769 
Q 2032 2854 1802 2854 
Q 1350 2854 1107 2531 
Q 864 2208 864 1610 
Q 864 1293 918 1067 
Q 973 842 1078 696 
Q 1184 550 1337 483 
Q 1491 416 1686 416 
Q 1968 416 2177 544 
Q 2387 672 2563 906 
L 2563 2470 
z
M 3133 4714 
L 3133 0 
L 2794 0 
Q 2672 0 2640 118 
L 2589 512 
Q 2381 262 2115 108 
Q 1850 -45 1501 -45 
Q 1222 -45 995 62 
Q 768 170 608 378 
Q 448 586 361 896 
Q 275 1206 275 1610 
Q 275 1968 371 2277 
Q 467 2586 646 2813 
Q 826 3040 1086 3169 
Q 1347 3299 1674 3299 
Q 1971 3299 2184 3198 
Q 2397 3098 2563 2918 
L 2563 4714 
L 3133 4714 
z
" transform="scale(0.015625)"/>
        <path id="Lato-Regular-73" d="M 2339 2707 
Q 2301 2637 2221 2637 
Q 2173 2637 2112 2672 
Q 2051 2707 1963 2750 
Q 1875 2794 1753 2830 
Q 1632 2867 1466 2867 
Q 1322 2867 1206 2830 
Q 1091 2794 1009 2730 
Q 928 2666 885 2581 
Q 842 2496 842 2397 
Q 842 2272 914 2189 
Q 986 2106 1104 2045 
Q 1222 1984 1372 1937 
Q 1523 1891 1681 1838 
Q 1840 1786 1990 1722 
Q 2141 1658 2259 1562 
Q 2378 1466 2450 1326 
Q 2522 1187 2522 992 
Q 2522 768 2442 577 
Q 2362 387 2205 248 
Q 2048 109 1821 29 
Q 1594 -51 1296 -51 
Q 957 -51 681 59 
Q 406 170 214 342 
L 349 560 
Q 374 602 409 624 
Q 445 646 499 646 
Q 557 646 621 601 
Q 685 557 776 502 
Q 867 448 998 403 
Q 1130 358 1325 358 
Q 1491 358 1616 401 
Q 1741 445 1824 518 
Q 1907 592 1947 688 
Q 1987 784 1987 893 
Q 1987 1027 1915 1115 
Q 1843 1203 1724 1265 
Q 1606 1328 1454 1374 
Q 1302 1421 1144 1472 
Q 986 1523 834 1588 
Q 682 1654 563 1753 
Q 445 1853 373 1998 
Q 301 2144 301 2352 
Q 301 2538 377 2709 
Q 454 2880 601 3009 
Q 749 3139 963 3216 
Q 1178 3293 1453 3293 
Q 1773 3293 2027 3192 
Q 2282 3091 2467 2915 
L 2339 2707 
z
" transform="scale(0.015625)"/>
       </defs>
       <use xlink:href="#Lato-Regular-72"/>
       <use xlink:href="#Lato-Regular-61" transform="translate(36.400009 0)"/>
       <use xlink:href="#Lato-Regular-6e" transform="translate(86.100021 0)"/>
       <use xlink:href="#Lato-Regular-64" transform="translate(141.900024 0)"/>
       <use xlink:href="#Lato-Regular-6f" transform="translate(197.900024 0)"/>
       <use xlink:href="#Lato-Regular-6d" transform="translate(254.600037 0)"/>
       <use xlink:href="#Lato-Regular-20" transform="translate(336.850052 0)"/>
       <use xlink:href="#Lato-Regular-28" transform="translate(362.450058 0)"/>
       <use xlink:href="#Lato-Regular-65" transform="translate(389.150055 0)"/>
       <use xlink:href="#Lato-Regular-61" transform="translate(441.950058 0)"/>
       <use xlink:href="#Lato-Regular-73" transform="translate(491.65007 0)"/>
       <use xlink:href="#Lato-Regular-79" transform="translate(534.950073 0)"/>
       <use xlink:href="#Lato-Regular-29" transform="translate(586.500076 0)"/>
      </g>
     </g>
    </g>
   </g>
   <g id="line2d_19">
    <path d="M 24.181192 66.363 
L 250.638698 66.363 
" clip-path="url(#p301224f241)" style="fill: none; stroke: #d0d7de; stroke-width: 1.1; stroke-linecap: round"/>
   </g>
   <g id="line2d_20">
    <path d="M 17.234636 88.138 
L 250.638698 88.138 
" clip-path="url(#p301224f241)" style="fill: none; stroke: #d0d7de; stroke-width: 1.1; stroke-linecap: round"/>
   </g>
   <g id="line2d_21">
    <path d="M 133.477961 109.913 
L 250.638698 109.913 
" clip-path="url(#p301224f241)" style="fill: none; stroke: #d0d7de; stroke-width: 1.1; stroke-linecap: round"/>
   </g>
   <g id="line2d_22">
    <path d="M -1 131.688 
L 250.638698 131.688 
" clip-path="url(#p301224f241)" style="fill: none; stroke: #d0d7de; stroke-width: 1.1; stroke-linecap: round"/>
   </g>
   <g id="line2d_23">
    <path d="M 108.487845 153.463 
L 168.938415 153.463 
" clip-path="url(#p301224f241)" style="fill: none; stroke: #d0d7de; stroke-width: 1.1; stroke-linecap: round"/>
   </g>
   <g id="line2d_24">
    <path d="M 144.042445 175.238 
L 250.638698 175.238 
" clip-path="url(#p301224f241)" style="fill: none; stroke: #d0d7de; stroke-width: 1.1; stroke-linecap: round"/>
   </g>
   <g id="line2d_25">
    <path d="M 183.874048 197.013 
L 250.638698 197.013 
" clip-path="url(#p301224f241)" style="fill: none; stroke: #d0d7de; stroke-width: 1.1; stroke-linecap: round"/>
   </g>
   <g id="PathCollection_1">
    <path d="M 149.785334 69.278476 
C 150.558528 69.278476 151.300157 68.971283 151.846887 68.424553 
C 152.393617 67.877823 152.70081 67.136193 152.70081 66.363 
C 152.70081 65.589807 152.393617 64.848177 151.846887 64.301447 
C 151.300157 63.754717 150.558528 63.447524 149.785334 63.447524 
C 149.012141 63.447524 148.270512 63.754717 147.723781 64.301447 
C 147.177051 64.848177 146.869858 65.589807 146.869858 66.363 
C 146.869858 67.136193 147.177051 67.877823 147.723781 68.424553 
C 148.270512 68.971283 149.012141 69.278476 149.785334 69.278476 
z
" clip-path="url(#p301224f241)" style="fill: #0969da"/>
   </g>
   <g id="PathCollection_2">
    <path d="M 24.181192 69.278476 
C 24.954386 69.278476 25.696015 68.971283 26.242745 68.424553 
C 26.789475 67.877823 27.096668 67.136193 27.096668 66.363 
C 27.096668 65.589807 26.789475 64.848177 26.242745 64.301447 
C 25.696015 63.754717 24.954386 63.447524 24.181192 63.447524 
C 23.407999 63.447524 22.66637 63.754717 22.11964 64.301447 
C 21.572909 64.848177 21.265716 65.589807 21.265716 66.363 
C 21.265716 67.136193 21.572909 67.877823 22.11964 68.424553 
C 22.66637 68.971283 23.407999 69.278476 24.181192 69.278476 
z
" clip-path="url(#p301224f241)" style="fill: #54aeff"/>
   </g>
   <g id="PathCollection_3">
    <path d="M 192.327532 69.278476 
C 193.100725 69.278476 193.842355 68.971283 194.389085 68.424553 
C 194.935815 67.877823 195.243008 67.136193 195.243008 66.363 
C 195.243008 65.589807 194.935815 64.848177 194.389085 64.301447 
C 193.842355 63.754717 193.100725 63.447524 192.327532 63.447524 
C 191.554339 63.447524 190.81271 63.754717 190.265979 64.301447 
C 189.719249 64.848177 189.412056 65.589807 189.412056 66.363 
C 189.412056 67.136193 189.719249 67.877823 190.265979 68.424553 
C 190.81271 68.971283 191.554339 69.278476 192.327532 69.278476 
z
" clip-path="url(#p301224f241)" style="fill: #bc4c00"/>
   </g>
   <g id="PathCollection_4">
    <path d="M 162.896664 69.278476 
C 163.669857 69.278476 164.411486 68.971283 164.958216 68.424553 
C 165.504947 67.877823 165.81214 67.136193 165.81214 66.363 
C 165.81214 65.589807 165.504947 64.848177 164.958216 64.301447 
C 164.411486 63.754717 163.669857 63.447524 162.896664 63.447524 
C 162.12347 63.447524 161.381841 63.754717 160.835111 64.301447 
C 160.288381 64.848177 159.981188 65.589807 159.981188 66.363 
C 159.981188 67.136193 160.288381 67.877823 160.835111 68.424553 
C 161.381841 68.971283 162.12347 69.278476 162.896664 69.278476 
z
" clip-path="url(#p301224f241)" style="fill: #1b7c83"/>
   </g>
   <g id="PathCollection_5">
    <path d="M 244.162614 69.278476 
C 244.935807 69.278476 245.677436 68.971283 246.224167 68.424553 
C 246.770897 67.877823 247.07809 67.136193 247.07809 66.363 
C 247.07809 65.589807 246.770897 64.848177 246.224167 64.301447 
C 245.677436 63.754717 244.935807 63.447524 244.162614 63.447524 
C 243.389421 63.447524 242.647791 63.754717 242.101061 64.301447 
C 241.554331 64.848177 241.247138 65.589807 241.247138 66.363 
C 241.247138 67.136193 241.554331 67.877823 242.101061 68.424553 
C 242.647791 68.971283 243.389421 69.278476 244.162614 69.278476 
z
" clip-path="url(#p301224f241)" style="fill: #bf3989"/>
   </g>
   <g id="PathCollection_6">
    <defs>
     <path id="mf7f6caf416" d="M 0 3.605551 
C 0.956203 3.605551 1.873372 3.225648 2.54951 2.54951 
C 3.225648 1.873372 3.605551 0.956203 3.605551 0 
C 3.605551 -0.956203 3.225648 -1.873372 2.54951 -2.54951 
C 1.873372 -3.225648 0.956203 -3.605551 0 -3.605551 
C -0.956203 -3.605551 -1.873372 -3.225648 -2.54951 -2.54951 
C -3.225648 -1.873372 -3.605551 -0.956203 -3.605551 0 
C -3.605551 0.956203 -3.225648 1.873372 -2.54951 2.54951 
C -1.873372 3.225648 -0.956203 3.605551 0 3.605551 
z
" style="stroke: #24292f; stroke-width: 1.2"/>
    </defs>
    <g clip-path="url(#p301224f241)">
     <use xlink:href="#mf7f6caf416" x="250.638698" y="66.363" style="fill: #8250df; stroke: #24292f; stroke-width: 1.2"/>
    </g>
   </g>
   <g id="PathCollection_7">
    <path d="M 131.03984 91.053476 
C 131.813034 91.053476 132.554663 90.746283 133.101393 90.199553 
C 133.648123 89.652823 133.955316 88.911193 133.955316 88.138 
C 133.955316 87.364807 133.648123 86.623177 133.101393 86.076447 
C 132.554663 85.529717 131.813034 85.222524 131.03984 85.222524 
C 130.266647 85.222524 129.525018 85.529717 128.978287 86.076447 
C 128.431557 86.623177 128.124364 87.364807 128.124364 88.138 
C 128.124364 88.911193 128.431557 89.652823 128.978287 90.199553 
C 129.525018 90.746283 130.266647 91.053476 131.03984 91.053476 
z
" clip-path="url(#p301224f241)" style="fill: #0969da"/>
   </g>
   <g id="PathCollection_8">
    <path d="M 17.234636 91.053476 
C 18.007829 91.053476 18.749458 90.746283 19.296188 90.199553 
C 19.842919 89.652823 20.150112 88.911193 20.150112 88.138 
C 20.150112 87.364807 19.842919 86.623177 19.296188 86.076447 
C 18.749458 85.529717 18.007829 85.222524 17.234636 85.222524 
C 16.461442 85.222524 15.719813 85.529717 15.173083 86.076447 
C 14.626353 86.623177 14.31916 87.364807 14.31916 88.138 
C 14.31916 88.911193 14.626353 89.652823 15.173083 90.199553 
C 15.719813 90.746283 16.461442 91.053476 17.234636 91.053476 
z
" clip-path="url(#p301224f241)" style="fill: #54aeff"/>
   </g>
   <g id="PathCollection_9">
    <path d="M 177.726471 91.053476 
C 178.499664 91.053476 179.241294 90.746283 179.788024 90.199553 
C 180.334754 89.652823 180.641947 88.911193 180.641947 88.138 
C 180.641947 87.364807 180.334754 86.623177 179.788024 86.076447 
C 179.241294 85.529717 178.499664 85.222524 177.726471 85.222524 
C 176.953278 85.222524 176.211648 85.529717 175.664918 86.076447 
C 175.118188 86.623177 174.810995 87.364807 174.810995 88.138 
C 174.810995 88.911193 175.118188 89.652823 175.664918 90.199553 
C 176.211648 90.746283 176.953278 91.053476 177.726471 91.053476 
z
" clip-path="url(#p301224f241)" style="fill: #bc4c00"/>
   </g>
   <g id="PathCollection_10">
    <path d="M 132.232654 91.053476 
C 133.005847 91.053476 133.747476 90.746283 134.294206 90.199553 
C 134.840937 89.652823 135.148129 88.911193 135.148129 88.138 
C 135.148129 87.364807 134.840937 86.623177 134.294206 86.076447 
C 133.747476 85.529717 133.005847 85.222524 132.232654 85.222524 
C 131.45946 85.222524 130.717831 85.529717 130.171101 86.076447 
C 129.624371 86.623177 129.317178 87.364807 129.317178 88.138 
C 129.317178 88.911193 129.624371 89.652823 130.171101 90.199553 
C 130.717831 90.746283 131.45946 91.053476 132.232654 91.053476 
z
" clip-path="url(#p301224f241)" style="fill: #1b7c83"/>
   </g>
   <g id="PathCollection_11">
    <path d="M 250.638698 91.053476 
C 251.411891 91.053476 252.15352 90.746283 252.70025 90.199553 
C 253.246981 89.652823 253.554174 88.911193 253.554174 88.138 
C 253.554174 87.364807 253.246981 86.623177 252.70025 86.076447 
C 252.15352 85.529717 251.411891 85.222524 250.638698 85.222524 
C 249.865504 85.222524 249.123875 85.529717 248.577145 86.076447 
C 248.030415 86.623177 247.723222 87.364807 247.723222 88.138 
C 247.723222 88.911193 248.030415 89.652823 248.577145 90.199553 
C 249.123875 90.746283 249.865504 91.053476 250.638698 91.053476 
z
" clip-path="url(#p301224f241)" style="fill: #bf3989"/>
   </g>
   <g id="PathCollection_12">
    <g clip-path="url(#p301224f241)">
     <use xlink:href="#mf7f6caf416" x="250.638698" y="88.138" style="fill: #8250df; stroke: #24292f; stroke-width: 1.2"/>
    </g>
   </g>
   <g id="PathCollection_13">
    <path d="M 148.997441 112.828476 
C 149.770635 112.828476 150.512264 112.521283 151.058994 111.974553 
C 151.605724 111.427823 151.912917 110.686193 151.912917 109.913 
C 151.912917 109.139807 151.605724 108.398177 151.058994 107.851447 
C 150.512264 107.304717 149.770635 106.997524 148.997441 106.997524 
C 148.224248 106.997524 147.482619 107.304717 146.935889 107.851447 
C 146.389158 108.398177 146.081965 109.139807 146.081965 109.913 
C 146.081965 110.686193 146.389158 111.427823 146.935889 111.974553 
C 147.482619 112.521283 148.224248 112.828476 148.997441 112.828476 
z
" clip-path="url(#p301224f241)" style="fill: #0969da"/>
   </g>
   <g id="PathCollection_14">
    <path d="M 133.477961 112.828476 
C 134.251154 112.828476 134.992783 112.521283 135.539514 111.974553 
C 136.086244 111.427823 136.393437 110.686193 136.393437 109.913 
C 136.393437 109.139807 136.086244 108.398177 135.539514 107.851447 
C 134.992783 107.304717 134.251154 106.997524 133.477961 106.997524 
C 132.704767 106.997524 131.963138 107.304717 131.416408 107.851447 
C 130.869678 108.398177 130.562485 109.139807 130.562485 109.913 
C 130.562485 110.686193 130.869678 111.427823 131.416408 111.974553 
C 131.963138 112.521283 132.704767 112.828476 133.477961 112.828476 
z
" clip-path="url(#p301224f241)" style="fill: #54aeff"/>
   </g>
   <g id="PathCollection_15">
    <path d="M 182.627476 112.828476 
C 183.40067 112.828476 184.142299 112.521283 184.689029 111.974553 
C 185.235759 111.427823 185.542952 110.686193 185.542952 109.913 
C 185.542952 109.139807 185.235759 108.398177 184.689029 107.851447 
C 184.142299 107.304717 183.40067 106.997524 182.627476 106.997524 
C 181.854283 106.997524 181.112654 107.304717 180.565923 107.851447 
C 180.019193 108.398177 179.712 109.139807 179.712 109.913 
C 179.712 110.686193 180.019193 111.427823 180.565923 111.974553 
C 181.112654 112.521283 181.854283 112.828476 182.627476 112.828476 
z
" clip-path="url(#p301224f241)" style="fill: #bc4c00"/>
   </g>
   <g id="PathCollection_16">
    <path d="M 171.903005 112.828476 
C 172.676198 112.828476 173.417828 112.521283 173.964558 111.974553 
C 174.511288 111.427823 174.818481 110.686193 174.818481 109.913 
C 174.818481 109.139807 174.511288 108.398177 173.964558 107.851447 
C 173.417828 107.304717 172.676198 106.997524 171.903005 106.997524 
C 171.129812 106.997524 170.388182 107.304717 169.841452 107.851447 
C 169.294722 108.398177 168.987529 109.139807 168.987529 109.913 
C 168.987529 110.686193 169.294722 111.427823 169.841452 111.974553 
C 170.388182 112.521283 171.129812 112.828476 171.903005 112.828476 
z
" clip-path="url(#p301224f241)" style="fill: #1b7c83"/>
   </g>
   <g id="PathCollection_17">
    <path d="M 210.366474 112.828476 
C 211.139668 112.828476 211.881297 112.521283 212.428027 111.974553 
C 212.974757 111.427823 213.28195 110.686193 213.28195 109.913 
C 213.28195 109.139807 212.974757 108.398177 212.428027 107.851447 
C 211.881297 107.304717 211.139668 106.997524 210.366474 106.997524 
C 209.593281 106.997524 208.851652 107.304717 208.304922 107.851447 
C 207.758191 108.398177 207.450998 109.139807 207.450998 109.913 
C 207.450998 110.686193 207.758191 111.427823 208.304922 111.974553 
C 208.851652 112.521283 209.593281 112.828476 210.366474 112.828476 
z
" clip-path="url(#p301224f241)" style="fill: #bf3989"/>
   </g>
   <g id="PathCollection_18">
    <g clip-path="url(#p301224f241)">
     <use xlink:href="#mf7f6caf416" x="250.638698" y="109.913" style="fill: #8250df; stroke: #24292f; stroke-width: 1.2"/>
    </g>
   </g>
   <g id="PathCollection_19">
    <path d="M 149.785334 134.603476 
C 150.558528 134.603476 151.300157 134.296283 151.846887 133.749553 
C 152.393617 133.202823 152.70081 132.461193 152.70081 131.688 
C 152.70081 130.914807 152.393617 130.173177 151.846887 129.626447 
C 151.300157 129.079717 150.558528 128.772524 149.785334 128.772524 
C 149.012141 128.772524 148.270512 129.079717 147.723781 129.626447 
C 147.177051 130.173177 146.869858 130.914807 146.869858 131.688 
C 146.869858 132.461193 147.177051 133.202823 147.723781 133.749553 
C 148.270512 134.296283 149.012141 134.603476 149.785334 134.603476 
z
" clip-path="url(#p301224f241)" style="fill: #0969da"/>
   </g>
   <g id="PathCollection_20">
    <path d="M -27.305585 134.603476 
C -26.532392 134.603476 -25.790763 134.296283 -25.244032 133.749553 
C -24.697302 133.202823 -24.390109 132.461193 -24.390109 131.688 
C -24.390109 130.914807 -24.697302 130.173177 -25.244032 129.626447 
C -25.790763 129.079717 -26.532392 128.772524 -27.305585 128.772524 
C -28.078778 128.772524 -28.820408 129.079717 -29.367138 129.626447 
C -29.913868 130.173177 -30.221061 130.914807 -30.221061 131.688 
C -30.221061 132.461193 -29.913868 133.202823 -29.367138 133.749553 
C -28.820408 134.296283 -28.078778 134.603476 -27.305585 134.603476 
z
" clip-path="url(#p301224f241)" style="fill: #54aeff"/>
   </g>
   <g id="PathCollection_21">
    <path d="M 162.896664 134.603476 
C 163.669857 134.603476 164.411486 134.296283 164.958216 133.749553 
C 165.504947 133.202823 165.81214 132.461193 165.81214 131.688 
C 165.81214 130.914807 165.504947 130.173177 164.958216 129.626447 
C 164.411486 129.079717 163.669857 128.772524 162.896664 128.772524 
C 162.12347 128.772524 161.381841 129.079717 160.835111 129.626447 
C 160.288381 130.173177 159.981188 130.914807 159.981188 131.688 
C 159.981188 132.461193 160.288381 133.202823 160.835111 133.749553 
C 161.381841 134.296283 162.12347 134.603476 162.896664 134.603476 
z
" clip-path="url(#p301224f241)" style="fill: #bc4c00"/>
   </g>
   <g id="PathCollection_22">
    <path d="M 154.048609 134.603476 
C 154.821803 134.603476 155.563432 134.296283 156.110162 133.749553 
C 156.656892 133.202823 156.964085 132.461193 156.964085 131.688 
C 156.964085 130.914807 156.656892 130.173177 156.110162 129.626447 
C 155.563432 129.079717 154.821803 128.772524 154.048609 128.772524 
C 153.275416 128.772524 152.533787 129.079717 151.987057 129.626447 
C 151.440326 130.173177 151.133134 130.914807 151.133134 131.688 
C 151.133134 132.461193 151.440326 133.202823 151.987057 133.749553 
C 152.533787 134.296283 153.275416 134.603476 154.048609 134.603476 
z
" clip-path="url(#p301224f241)" style="fill: #1b7c83"/>
   </g>
   <g id="PathCollection_23">
    <path d="M 176.424289 134.603476 
C 177.197483 134.603476 177.939112 134.296283 178.485842 133.749553 
C 179.032572 133.202823 179.339765 132.461193 179.339765 131.688 
C 179.339765 130.914807 179.032572 130.173177 178.485842 129.626447 
C 177.939112 129.079717 177.197483 128.772524 176.424289 128.772524 
C 175.651096 128.772524 174.909467 129.079717 174.362736 129.626447 
C 173.816006 130.173177 173.508813 130.914807 173.508813 131.688 
C 173.508813 132.461193 173.816006 133.202823 174.362736 133.749553 
C 174.909467 134.296283 175.651096 134.603476 176.424289 134.603476 
z
" clip-path="url(#p301224f241)" style="fill: #bf3989"/>
   </g>
   <g id="PathCollection_24">
    <g clip-path="url(#p301224f241)">
     <use xlink:href="#mf7f6caf416" x="250.638698" y="131.688" style="fill: #8250df; stroke: #24292f; stroke-width: 1.2"/>
    </g>
   </g>
   <g id="PathCollection_25">
    <path d="M 108.487845 156.378476 
C 109.261039 156.378476 110.002668 156.071283 110.549398 155.524553 
C 111.096128 154.977823 111.403321 154.236193 111.403321 153.463 
C 111.403321 152.689807 111.096128 151.948177 110.549398 151.401447 
C 110.002668 150.854717 109.261039 150.547524 108.487845 150.547524 
C 107.714652 150.547524 106.973023 150.854717 106.426292 151.401447 
C 105.879562 151.948177 105.572369 152.689807 105.572369 153.463 
C 105.572369 154.236193 105.879562 154.977823 106.426292 155.524553 
C 106.973023 156.071283 107.714652 156.378476 108.487845 156.378476 
z
" clip-path="url(#p301224f241)" style="fill: #0969da"/>
   </g>
   <g id="PathCollection_26">
    <path d="M 159.067937 156.378476 
C 159.841131 156.378476 160.58276 156.071283 161.12949 155.524553 
C 161.67622 154.977823 161.983413 154.236193 161.983413 153.463 
C 161.983413 152.689807 161.67622 151.948177 161.12949 151.401447 
C 160.58276 150.854717 159.841131 150.547524 159.067937 150.547524 
C 158.294744 150.547524 157.553115 150.854717 157.006385 151.401447 
C 156.459654 151.948177 156.152462 152.689807 156.152462 153.463 
C 156.152462 154.236193 156.459654 154.977823 157.006385 155.524553 
C 157.553115 156.071283 158.294744 156.378476 159.067937 156.378476 
z
" clip-path="url(#p301224f241)" style="fill: #54aeff"/>
   </g>
   <g id="PathCollection_27">
    <path d="M 168.850872 156.378476 
C 169.624065 156.378476 170.365695 156.071283 170.912425 155.524553 
C 171.459155 154.977823 171.766348 154.236193 171.766348 153.463 
C 171.766348 152.689807 171.459155 151.948177 170.912425 151.401447 
C 170.365695 150.854717 169.624065 150.547524 168.850872 150.547524 
C 168.077679 150.547524 167.336049 150.854717 166.789319 151.401447 
C 166.242589 151.948177 165.935396 152.689807 165.935396 153.463 
C 165.935396 154.236193 166.242589 154.977823 166.789319 155.524553 
C 167.336049 156.071283 168.077679 156.378476 168.850872 156.378476 
z
" clip-path="url(#p301224f241)" style="fill: #bc4c00"/>
   </g>
   <g id="PathCollection_28">
    <path d="M 154.804607 156.378476 
C 155.577801 156.378476 156.31943 156.071283 156.86616 155.524553 
C 157.41289 154.977823 157.720083 154.236193 157.720083 153.463 
C 157.720083 152.689807 157.41289 151.948177 156.86616 151.401447 
C 156.31943 150.854717 155.577801 150.547524 154.804607 150.547524 
C 154.031414 150.547524 153.289785 150.854717 152.743054 151.401447 
C 152.196324 151.948177 151.889131 152.689807 151.889131 153.463 
C 151.889131 154.236193 152.196324 154.977823 152.743054 155.524553 
C 153.289785 156.071283 154.031414 156.378476 154.804607 156.378476 
z
" clip-path="url(#p301224f241)" style="fill: #1b7c83"/>
   </g>
   <g id="PathCollection_29">
    <path d="M 130.153731 156.378476 
C 130.926924 156.378476 131.668553 156.071283 132.215284 155.524553 
C 132.762014 154.977823 133.069207 154.236193 133.069207 153.463 
C 133.069207 152.689807 132.762014 151.948177 132.215284 151.401447 
C 131.668553 150.854717 130.926924 150.547524 130.153731 150.547524 
C 129.380538 150.547524 128.638908 150.854717 128.092178 151.401447 
C 127.545448 151.948177 127.238255 152.689807 127.238255 153.463 
C 127.238255 154.236193 127.545448 154.977823 128.092178 155.524553 
C 128.638908 156.071283 129.380538 156.378476 130.153731 156.378476 
z
" clip-path="url(#p301224f241)" style="fill: #bf3989"/>
   </g>
   <g id="PathCollection_30">
    <g clip-path="url(#p301224f241)">
     <use xlink:href="#mf7f6caf416" x="168.938415" y="153.463" style="fill: #8250df; stroke: #24292f; stroke-width: 1.2"/>
    </g>
   </g>
   <g id="PathCollection_31">
    <path d="M 144.042445 178.153476 
C 144.815639 178.153476 145.557268 177.846283 146.103998 177.299553 
C 146.650728 176.752823 146.957921 176.011193 146.957921 175.238 
C 146.957921 174.464807 146.650728 173.723177 146.103998 173.176447 
C 145.557268 172.629717 144.815639 172.322524 144.042445 172.322524 
C 143.269252 172.322524 142.527623 172.629717 141.980893 173.176447 
C 141.434162 173.723177 141.126969 174.464807 141.126969 175.238 
C 141.126969 176.011193 141.434162 176.752823 141.980893 177.299553 
C 142.527623 177.846283 143.269252 178.153476 144.042445 178.153476 
z
" clip-path="url(#p301224f241)" style="fill: #0969da"/>
   </g>
   <g id="PathCollection_32">
    <path d="M 250.638698 178.153476 
C 251.411891 178.153476 252.15352 177.846283 252.70025 177.299553 
C 253.246981 176.752823 253.554174 176.011193 253.554174 175.238 
C 253.554174 174.464807 253.246981 173.723177 252.70025 173.176447 
C 252.15352 172.629717 251.411891 172.322524 250.638698 172.322524 
C 249.865504 172.322524 249.123875 172.629717 248.577145 173.176447 
C 248.030415 173.723177 247.723222 174.464807 247.723222 175.238 
C 247.723222 176.011193 248.030415 176.752823 248.577145 177.299553 
C 249.123875 177.846283 249.865504 178.153476 250.638698 178.153476 
z
" clip-path="url(#p301224f241)" style="fill: #54aeff"/>
   </g>
   <g id="PathCollection_33">
    <path d="M 221.519232 178.153476 
C 222.292425 178.153476 223.034054 177.846283 223.580785 177.299553 
C 224.127515 176.752823 224.434708 176.011193 224.434708 175.238 
C 224.434708 174.464807 224.127515 173.723177 223.580785 173.176447 
C 223.034054 172.629717 222.292425 172.322524 221.519232 172.322524 
C 220.746038 172.322524 220.004409 172.629717 219.457679 173.176447 
C 218.910949 173.723177 218.603756 174.464807 218.603756 175.238 
C 218.603756 176.011193 218.910949 176.752823 219.457679 177.299553 
C 220.004409 177.846283 220.746038 178.153476 221.519232 178.153476 
z
" clip-path="url(#p301224f241)" style="fill: #bc4c00"/>
   </g>
   <g id="PathCollection_34">
    <path d="M 173.152415 178.153476 
C 173.925608 178.153476 174.667237 177.846283 175.213968 177.299553 
C 175.760698 176.752823 176.067891 176.011193 176.067891 175.238 
C 176.067891 174.464807 175.760698 173.723177 175.213968 173.176447 
C 174.667237 172.629717 173.925608 172.322524 173.152415 172.322524 
C 172.379222 172.322524 171.637592 172.629717 171.090862 173.176447 
C 170.544132 173.723177 170.236939 174.464807 170.236939 175.238 
C 170.236939 176.011193 170.544132 176.752823 171.090862 177.299553 
C 171.637592 177.846283 172.379222 178.153476 173.152415 178.153476 
z
" clip-path="url(#p301224f241)" style="fill: #1b7c83"/>
   </g>
   <g id="PathCollection_35">
    <path d="M 250.638698 178.153476 
C 251.411891 178.153476 252.15352 177.846283 252.70025 177.299553 
C 253.246981 176.752823 253.554174 176.011193 253.554174 175.238 
C 253.554174 174.464807 253.246981 173.723177 252.70025 173.176447 
C 252.15352 172.629717 251.411891 172.322524 250.638698 172.322524 
C 249.865504 172.322524 249.123875 172.629717 248.577145 173.176447 
C 248.030415 173.723177 247.723222 174.464807 247.723222 175.238 
C 247.723222 176.011193 248.030415 176.752823 248.577145 177.299553 
C 249.123875 177.846283 249.865504 178.153476 250.638698 178.153476 
z
" clip-path="url(#p301224f241)" style="fill: #bf3989"/>
   </g>
   <g id="PathCollection_36">
    <g clip-path="url(#p301224f241)">
     <use xlink:href="#mf7f6caf416" x="250.638698" y="175.238" style="fill: #8250df; stroke: #24292f; stroke-width: 1.2"/>
    </g>
   </g>
   <g id="PathCollection_37">
    <path d="M 216.634512 199.928476 
C 217.407705 199.928476 218.149334 199.621283 218.696064 199.074553 
C 219.242795 198.527823 219.549988 197.786193 219.549988 197.013 
C 219.549988 196.239807 219.242795 195.498177 218.696064 194.951447 
C 218.149334 194.404717 217.407705 194.097524 216.634512 194.097524 
C 215.861318 194.097524 215.119689 194.404717 214.572959 194.951447 
C 214.026229 195.498177 213.719036 196.239807 213.719036 197.013 
C 213.719036 197.786193 214.026229 198.527823 214.572959 199.074553 
C 215.119689 199.621283 215.861318 199.928476 216.634512 199.928476 
z
" clip-path="url(#p301224f241)" style="fill: #0969da"/>
   </g>
   <g id="PathCollection_38">
    <path d="M 183.874048 199.928476 
C 184.647241 199.928476 185.388871 199.621283 185.935601 199.074553 
C 186.482331 198.527823 186.789524 197.786193 186.789524 197.013 
C 186.789524 196.239807 186.482331 195.498177 185.935601 194.951447 
C 185.388871 194.404717 184.647241 194.097524 183.874048 194.097524 
C 183.100855 194.097524 182.359226 194.404717 181.812495 194.951447 
C 181.265765 195.498177 180.958572 196.239807 180.958572 197.013 
C 180.958572 197.786193 181.265765 198.527823 181.812495 199.074553 
C 182.359226 199.621283 183.100855 199.928476 183.874048 199.928476 
z
" clip-path="url(#p301224f241)" style="fill: #54aeff"/>
   </g>
   <g id="PathCollection_39">
    <path d="M 250.638698 199.928476 
C 251.411891 199.928476 252.15352 199.621283 252.70025 199.074553 
C 253.246981 198.527823 253.554174 197.786193 253.554174 197.013 
C 253.554174 196.239807 253.246981 195.498177 252.70025 194.951447 
C 252.15352 194.404717 251.411891 194.097524 250.638698 194.097524 
C 249.865504 194.097524 249.123875 194.404717 248.577145 194.951447 
C 248.030415 195.498177 247.723222 196.239807 247.723222 197.013 
C 247.723222 197.786193 248.030415 198.527823 248.577145 199.074553 
C 249.123875 199.621283 249.865504 199.928476 250.638698 199.928476 
z
" clip-path="url(#p301224f241)" style="fill: #bc4c00"/>
   </g>
   <g id="PathCollection_40">
    <path d="M 246.061892 199.928476 
C 246.835085 199.928476 247.576714 199.621283 248.123445 199.074553 
C 248.670175 198.527823 248.977368 197.786193 248.977368 197.013 
C 248.977368 196.239807 248.670175 195.498177 248.123445 194.951447 
C 247.576714 194.404717 246.835085 194.097524 246.061892 194.097524 
C 245.288698 194.097524 244.547069 194.404717 244.000339 194.951447 
C 243.453609 195.498177 243.146416 196.239807 243.146416 197.013 
C 243.146416 197.786193 243.453609 198.527823 244.000339 199.074553 
C 244.547069 199.621283 245.288698 199.928476 246.061892 199.928476 
z
" clip-path="url(#p301224f241)" style="fill: #1b7c83"/>
   </g>
   <g id="PathCollection_41">
    <path d="M 250.638698 199.928476 
C 251.411891 199.928476 252.15352 199.621283 252.70025 199.074553 
C 253.246981 198.527823 253.554174 197.786193 253.554174 197.013 
C 253.554174 196.239807 253.246981 195.498177 252.70025 194.951447 
C 252.15352 194.404717 251.411891 194.097524 250.638698 194.097524 
C 249.865504 194.097524 249.123875 194.404717 248.577145 194.951447 
C 248.030415 195.498177 247.723222 196.239807 247.723222 197.013 
C 247.723222 197.786193 248.030415 198.527823 248.577145 199.074553 
C 249.123875 199.621283 249.865504 199.928476 250.638698 199.928476 
z
" clip-path="url(#p301224f241)" style="fill: #bf3989"/>
   </g>
   <g id="PathCollection_42">
    <g clip-path="url(#p301224f241)">
     <use xlink:href="#mf7f6caf416" x="250.638698" y="197.013" style="fill: #8250df; stroke: #24292f; stroke-width: 1.2"/>
    </g>
   </g>
  </g>
  <g id="text_14">
   <!-- Quality per problem -->
   <g style="fill: #24292f" transform="translate(1.44 9.984141) scale(0.115 -0.115)">
    <defs>
     <path id="Lato-Bold-51" d="M 1123 2314 
Q 1123 1933 1225 1630 
Q 1328 1328 1518 1118 
Q 1709 909 1979 797 
Q 2250 685 2589 685 
Q 2928 685 3198 797 
Q 3469 909 3657 1118 
Q 3846 1328 3948 1630 
Q 4051 1933 4051 2314 
Q 4051 2694 3948 2996 
Q 3846 3299 3657 3510 
Q 3469 3722 3198 3834 
Q 2928 3946 2589 3946 
Q 2250 3946 1979 3834 
Q 1709 3722 1518 3510 
Q 1328 3299 1225 2996 
Q 1123 2694 1123 2314 
z
M 5171 -906 
L 4461 -906 
Q 4307 -906 4184 -864 
Q 4061 -822 3958 -710 
L 3280 38 
Q 3117 -6 2945 -28 
Q 2774 -51 2589 -51 
Q 2064 -51 1632 126 
Q 1200 304 891 621 
Q 582 938 412 1371 
Q 243 1805 243 2314 
Q 243 2822 412 3256 
Q 582 3690 891 4006 
Q 1200 4323 1632 4500 
Q 2064 4678 2589 4678 
Q 2941 4678 3251 4596 
Q 3562 4515 3821 4366 
Q 4080 4218 4286 4005 
Q 4493 3792 4637 3529 
Q 4781 3267 4856 2960 
Q 4931 2653 4931 2314 
Q 4931 2003 4867 1720 
Q 4803 1437 4683 1190 
Q 4563 944 4390 737 
Q 4218 531 3997 374 
L 5171 -906 
z
" transform="scale(0.015625)"/>
     <path id="Lato-Bold-75" d="M 3219 3283 
L 3219 0 
L 2736 0 
Q 2579 0 2538 144 
L 2483 406 
Q 2282 202 2038 75 
Q 1795 -51 1466 -51 
Q 1197 -51 990 40 
Q 784 131 643 297 
Q 502 464 430 693 
Q 358 922 358 1197 
L 358 3283 
L 1149 3283 
L 1149 1197 
Q 1149 896 1288 731 
Q 1427 566 1706 566 
Q 1910 566 2089 657 
Q 2269 749 2429 909 
L 2429 3283 
L 3219 3283 
z
" transform="scale(0.015625)"/>
     <path id="Lato-Bold-61" d="M 2125 1402 
Q 1782 1386 1548 1342 
Q 1315 1299 1174 1232 
Q 1034 1165 973 1075 
Q 912 986 912 880 
Q 912 672 1035 582 
Q 1158 493 1357 493 
Q 1600 493 1777 581 
Q 1955 669 2125 848 
L 2125 1402 
z
M 314 2826 
Q 880 3344 1677 3344 
Q 1965 3344 2192 3249 
Q 2419 3155 2576 2987 
Q 2733 2819 2814 2585 
Q 2896 2352 2896 2074 
L 2896 0 
L 2538 0 
Q 2426 0 2365 33 
Q 2304 67 2269 170 
L 2198 406 
Q 2074 294 1955 209 
Q 1837 125 1709 67 
Q 1581 10 1435 -20 
Q 1290 -51 1114 -51 
Q 906 -51 730 5 
Q 554 61 426 173 
Q 298 285 227 451 
Q 157 618 157 838 
Q 157 963 198 1086 
Q 240 1210 334 1322 
Q 429 1434 579 1533 
Q 730 1632 949 1705 
Q 1168 1779 1459 1825 
Q 1750 1872 2125 1882 
L 2125 2074 
Q 2125 2403 1984 2561 
Q 1843 2720 1578 2720 
Q 1386 2720 1259 2675 
Q 1133 2630 1037 2574 
Q 941 2518 862 2473 
Q 784 2429 688 2429 
Q 605 2429 547 2472 
Q 490 2515 454 2573 
L 314 2826 
z
" transform="scale(0.015625)"/>
     <path id="Lato-Bold-6c" d="M 1190 4755 
L 1190 0 
L 400 0 
L 400 4755 
L 1190 4755 
z
" transform="scale(0.015625)"/>
     <path id="Lato-Bold-69" d="M 1210 3283 
L 1210 0 
L 416 0 
L 416 3283 
L 1210 3283 
z
M 1318 4240 
Q 1318 4138 1276 4048 
Q 1235 3958 1166 3891 
Q 1098 3824 1005 3784 
Q 912 3744 806 3744 
Q 704 3744 613 3784 
Q 522 3824 454 3891 
Q 387 3958 347 4048 
Q 307 4138 307 4240 
Q 307 4346 347 4438 
Q 387 4531 454 4598 
Q 522 4666 613 4706 
Q 704 4746 806 4746 
Q 912 4746 1005 4706 
Q 1098 4666 1166 4598 
Q 1235 4531 1276 4438 
Q 1318 4346 1318 4240 
z
" transform="scale(0.015625)"/>
     <path id="Lato-Bold-74" d="M 1485 -51 
Q 1056 -51 827 190 
Q 598 432 598 858 
L 598 2691 
L 262 2691 
Q 198 2691 153 2732 
Q 109 2774 109 2858 
L 109 3171 
L 637 3258 
L 803 4154 
Q 819 4218 864 4253 
Q 909 4288 979 4288 
L 1389 4288 
L 1389 3254 
L 2266 3254 
L 2266 2691 
L 1389 2691 
L 1389 912 
Q 1389 758 1464 672 
Q 1539 586 1670 586 
Q 1744 586 1793 603 
Q 1843 621 1880 640 
Q 1917 659 1945 676 
Q 1974 694 2003 694 
Q 2038 694 2060 676 
Q 2083 659 2109 624 
L 2346 240 
Q 2173 96 1949 22 
Q 1725 -51 1485 -51 
z
" transform="scale(0.015625)"/>
     <path id="Lato-Bold-79" d="M 3373 3283 
L 1584 -902 
Q 1549 -986 1493 -1029 
Q 1437 -1072 1322 -1072 
L 733 -1072 
L 1347 246 
L 19 3283 
L 714 3283 
Q 806 3283 859 3238 
Q 912 3194 938 3136 
L 1635 1434 
Q 1670 1347 1694 1260 
Q 1718 1174 1741 1085 
Q 1770 1174 1798 1262 
Q 1827 1350 1862 1437 
L 2522 3136 
Q 2547 3200 2606 3241 
Q 2666 3283 2739 3283 
L 3373 3283 
z
" transform="scale(0.015625)"/>
     <path id="Lato-Bold-20" transform="scale(0.015625)"/>
     <path id="Lato-Bold-70" d="M 1181 851 
Q 1315 688 1473 621 
Q 1632 554 1818 554 
Q 1997 554 2141 621 
Q 2285 688 2385 825 
Q 2486 963 2540 1172 
Q 2595 1382 2595 1667 
Q 2595 1955 2548 2155 
Q 2502 2355 2416 2480 
Q 2330 2605 2206 2662 
Q 2083 2720 1926 2720 
Q 1680 2720 1507 2616 
Q 1334 2512 1181 2323 
L 1181 851 
z
M 1139 2835 
Q 1341 3062 1597 3203 
Q 1853 3344 2198 3344 
Q 2467 3344 2689 3232 
Q 2912 3120 3073 2907 
Q 3235 2694 3323 2382 
Q 3411 2070 3411 1667 
Q 3411 1299 3312 985 
Q 3213 672 3029 441 
Q 2845 211 2584 81 
Q 2323 -48 2000 -48 
Q 1725 -48 1529 37 
Q 1334 122 1181 272 
L 1181 -1072 
L 390 -1072 
L 390 3283 
L 874 3283 
Q 1027 3283 1075 3139 
L 1139 2835 
z
" transform="scale(0.015625)"/>
     <path id="Lato-Bold-65" d="M 2506 2019 
Q 2506 2173 2462 2309 
Q 2419 2445 2332 2547 
Q 2246 2650 2113 2709 
Q 1981 2768 1805 2768 
Q 1462 2768 1265 2573 
Q 1069 2378 1014 2019 
L 2506 2019 
z
M 998 1542 
Q 1018 1290 1088 1106 
Q 1158 922 1273 802 
Q 1389 682 1547 622 
Q 1706 563 1898 563 
Q 2090 563 2229 608 
Q 2368 653 2472 707 
Q 2576 762 2654 806 
Q 2733 851 2806 851 
Q 2906 851 2954 778 
L 3181 490 
Q 3050 336 2886 232 
Q 2723 128 2545 65 
Q 2368 3 2184 -22 
Q 2000 -48 1827 -48 
Q 1485 -48 1190 65 
Q 896 179 678 401 
Q 461 624 336 952 
Q 211 1280 211 1712 
Q 211 2048 320 2344 
Q 429 2640 632 2859 
Q 835 3078 1128 3206 
Q 1421 3334 1789 3334 
Q 2099 3334 2361 3235 
Q 2624 3136 2813 2945 
Q 3002 2755 3109 2478 
Q 3216 2202 3216 1846 
Q 3216 1667 3177 1604 
Q 3139 1542 3030 1542 
L 998 1542 
z
" transform="scale(0.015625)"/>
     <path id="Lato-Bold-72" d="M 1136 2714 
Q 1290 3008 1501 3176 
Q 1712 3344 2000 3344 
Q 2227 3344 2365 3245 
L 2314 2653 
Q 2298 2595 2267 2571 
Q 2237 2547 2186 2547 
Q 2138 2547 2043 2563 
Q 1949 2579 1859 2579 
Q 1728 2579 1625 2540 
Q 1523 2502 1441 2430 
Q 1360 2358 1297 2256 
Q 1235 2154 1181 2022 
L 1181 0 
L 390 0 
L 390 3283 
L 854 3283 
Q 976 3283 1024 3240 
Q 1072 3197 1088 3085 
L 1136 2714 
z
" transform="scale(0.015625)"/>
     <path id="Lato-Bold-6f" d="M 1843 3334 
Q 2208 3334 2507 3216 
Q 2806 3098 3019 2880 
Q 3232 2662 3347 2348 
Q 3462 2035 3462 1648 
Q 3462 1258 3347 944 
Q 3232 630 3019 409 
Q 2806 189 2507 70 
Q 2208 -48 1843 -48 
Q 1475 -48 1174 70 
Q 874 189 661 409 
Q 448 630 331 944 
Q 214 1258 214 1648 
Q 214 2035 331 2348 
Q 448 2662 661 2880 
Q 874 3098 1174 3216 
Q 1475 3334 1843 3334 
z
M 1843 560 
Q 2253 560 2449 835 
Q 2646 1110 2646 1642 
Q 2646 2173 2449 2451 
Q 2253 2730 1843 2730 
Q 1427 2730 1227 2450 
Q 1027 2170 1027 1642 
Q 1027 1114 1227 837 
Q 1427 560 1843 560 
z
" transform="scale(0.015625)"/>
     <path id="Lato-Bold-62" d="M 1181 851 
Q 1315 688 1473 621 
Q 1632 554 1808 554 
Q 1990 554 2136 619 
Q 2282 685 2384 824 
Q 2486 963 2540 1179 
Q 2595 1395 2595 1696 
Q 2595 2237 2416 2478 
Q 2237 2720 1901 2720 
Q 1674 2720 1504 2616 
Q 1334 2512 1181 2323 
L 1181 851 
z
M 1181 2880 
Q 1379 3088 1620 3211 
Q 1862 3334 2173 3334 
Q 2458 3334 2686 3222 
Q 2915 3110 3076 2900 
Q 3238 2691 3324 2393 
Q 3411 2096 3411 1725 
Q 3411 1325 3312 998 
Q 3213 672 3029 440 
Q 2845 208 2585 80 
Q 2326 -48 2010 -48 
Q 1856 -48 1731 -17 
Q 1606 13 1500 67 
Q 1395 122 1307 200 
Q 1219 278 1139 374 
L 1104 154 
Q 1085 70 1038 35 
Q 992 0 912 0 
L 390 0 
L 390 4755 
L 1181 4755 
L 1181 2880 
z
" transform="scale(0.015625)"/>
     <path id="Lato-Bold-6d" d="M 390 0 
L 390 3283 
L 874 3283 
Q 1027 3283 1075 3139 
L 1126 2896 
Q 1213 2992 1307 3072 
Q 1402 3152 1509 3209 
Q 1616 3267 1739 3300 
Q 1862 3334 2010 3334 
Q 2320 3334 2520 3166 
Q 2720 2998 2819 2720 
Q 2896 2883 3011 3000 
Q 3126 3117 3264 3190 
Q 3402 3264 3557 3299 
Q 3712 3334 3869 3334 
Q 4141 3334 4352 3251 
Q 4563 3168 4707 3008 
Q 4851 2848 4926 2617 
Q 5002 2387 5002 2090 
L 5002 0 
L 4211 0 
L 4211 2090 
Q 4211 2403 4073 2561 
Q 3936 2720 3670 2720 
Q 3549 2720 3445 2678 
Q 3341 2637 3262 2558 
Q 3184 2480 3139 2361 
Q 3094 2243 3094 2090 
L 3094 0 
L 2301 0 
L 2301 2090 
Q 2301 2419 2168 2569 
Q 2035 2720 1779 2720 
Q 1606 2720 1457 2635 
Q 1309 2550 1181 2403 
L 1181 0 
L 390 0 
z
" transform="scale(0.015625)"/>
    </defs>
    <use xlink:href="#Lato-Bold-51"/>
    <use xlink:href="#Lato-Bold-75" transform="translate(80.800018 0)"/>
    <use xlink:href="#Lato-Bold-61" transform="translate(137.200027 0)"/>
    <use xlink:href="#Lato-Bold-6c" transform="translate(187.950027 0)"/>
    <use xlink:href="#Lato-Bold-69" transform="translate(212.800034 0)"/>
    <use xlink:href="#Lato-Bold-74" transform="translate(238.200027 0)"/>
    <use xlink:href="#Lato-Bold-79" transform="translate(275.400024 0)"/>
    <use xlink:href="#Lato-Bold-20" transform="translate(328.150024 0)"/>
    <use xlink:href="#Lato-Bold-70" transform="translate(352.450027 0)"/>
    <use xlink:href="#Lato-Bold-65" transform="translate(409.250031 0)"/>
    <use xlink:href="#Lato-Bold-72" transform="translate(462.65004 0)"/>
    <use xlink:href="#Lato-Bold-20" transform="translate(499.950043 0)"/>
    <use xlink:href="#Lato-Bold-70" transform="translate(524.250046 0)"/>
    <use xlink:href="#Lato-Bold-72" transform="translate(581.050049 0)"/>
    <use xlink:href="#Lato-Bold-6f" transform="translate(618.350052 0)"/>
    <use xlink:href="#Lato-Bold-62" transform="translate(675.800064 0)"/>
    <use xlink:href="#Lato-Bold-6c" transform="translate(732.550064 0)"/>
    <use xlink:href="#Lato-Bold-65" transform="translate(757.40007 0)"/>
    <use xlink:href="#Lato-Bold-6d" transform="translate(810.800079 0)"/>
   </g>
  </g>
  <g id="text_15">
   <!-- 100% = proven lower bound -->
   <g style="fill: #59626d" transform="translate(1.44 28.202781) scale(0.085 -0.085)">
    <defs>
     <path id="Lato-Regular-3d" d="M 480 1837 
L 3232 1837 
L 3232 1405 
L 480 1405 
L 480 1837 
z
M 480 2909 
L 3232 2909 
L 3232 2477 
L 480 2477 
L 480 2909 
z
" transform="scale(0.015625)"/>
     <path id="Lato-Regular-76" d="M 3229 3242 
L 1907 0 
L 1395 0 
L 74 3242 
L 538 3242 
Q 608 3242 653 3206 
Q 698 3171 714 3123 
L 1536 1037 
Q 1574 918 1603 806 
Q 1632 694 1658 582 
Q 1683 694 1712 806 
Q 1741 918 1782 1037 
L 2614 3123 
Q 2634 3174 2678 3208 
Q 2723 3242 2784 3242 
L 3229 3242 
z
" transform="scale(0.015625)"/>
     <path id="Lato-Regular-62" d="M 1024 781 
Q 1181 570 1368 483 
Q 1555 397 1779 397 
Q 2237 397 2480 720 
Q 2723 1043 2723 1683 
Q 2723 2278 2507 2558 
Q 2291 2838 1891 2838 
Q 1613 2838 1406 2710 
Q 1200 2582 1024 2349 
L 1024 781 
z
M 1024 2774 
Q 1229 3011 1486 3152 
Q 1744 3293 2080 3293 
Q 2365 3293 2593 3184 
Q 2822 3075 2982 2868 
Q 3142 2662 3227 2368 
Q 3312 2074 3312 1706 
Q 3312 1312 3216 989 
Q 3120 666 2939 437 
Q 2758 208 2499 81 
Q 2240 -45 1917 -45 
Q 1597 -45 1377 75 
Q 1158 195 995 416 
L 966 122 
Q 941 0 819 0 
L 451 0 
L 451 4714 
L 1024 4714 
L 1024 2774 
z
" transform="scale(0.015625)"/>
     <path id="Lato-Regular-75" d="M 3117 3242 
L 3117 0 
L 2778 0 
Q 2656 0 2624 118 
L 2579 467 
Q 2368 234 2105 91 
Q 1843 -51 1504 -51 
Q 1238 -51 1035 37 
Q 832 125 694 285 
Q 557 445 488 672 
Q 419 899 419 1174 
L 419 3242 
L 989 3242 
L 989 1174 
Q 989 806 1157 604 
Q 1325 403 1670 403 
Q 1923 403 2142 523 
Q 2362 643 2547 854 
L 2547 3242 
L 3117 3242 
z
" transform="scale(0.015625)"/>
    </defs>
    <use xlink:href="#Lato-Regular-31"/>
    <use xlink:href="#Lato-Regular-30" transform="translate(58 0)"/>
    <use xlink:href="#Lato-Regular-30" transform="translate(116 0)"/>
    <use xlink:href="#Lato-Regular-25" transform="translate(174 0)"/>
    <use xlink:href="#Lato-Regular-20" transform="translate(254.150009 0)"/>
    <use xlink:href="#Lato-Regular-3d" transform="translate(279.750015 0)"/>
    <use xlink:href="#Lato-Regular-20" transform="translate(337.750015 0)"/>
    <use xlink:href="#Lato-Regular-70" transform="translate(363.350021 0)"/>
    <use xlink:href="#Lato-Regular-72" transform="translate(419.400024 0)"/>
    <use xlink:href="#Lato-Regular-6f" transform="translate(455.800034 0)"/>
    <use xlink:href="#Lato-Regular-76" transform="translate(512.500046 0)"/>
    <use xlink:href="#Lato-Regular-65" transform="translate(564.100052 0)"/>
    <use xlink:href="#Lato-Regular-6e" transform="translate(616.900055 0)"/>
    <use xlink:href="#Lato-Regular-20" transform="translate(672.700058 0)"/>
    <use xlink:href="#Lato-Regular-6c" transform="translate(698.300064 0)"/>
    <use xlink:href="#Lato-Regular-6f" transform="translate(721.90007 0)"/>
    <use xlink:href="#Lato-Regular-77" transform="translate(778.600082 0)"/>
    <use xlink:href="#Lato-Regular-65" transform="translate(857.150101 0)"/>
    <use xlink:href="#Lato-Regular-72" transform="translate(909.950104 0)"/>
    <use xlink:href="#Lato-Regular-20" transform="translate(946.350113 0)"/>
    <use xlink:href="#Lato-Regular-62" transform="translate(971.950119 0)"/>
    <use xlink:href="#Lato-Regular-6f" transform="translate(1027.950119 0)"/>
    <use xlink:href="#Lato-Regular-75" transform="translate(1084.650131 0)"/>
    <use xlink:href="#Lato-Regular-6e" transform="translate(1140.400131 0)"/>
    <use xlink:href="#Lato-Regular-64" transform="translate(1196.200134 0)"/>
   </g>
  </g>
  <g id="text_16">
   <!-- ● greedy (size) -->
   <g style="fill: #0969da" transform="translate(1.9872 43.34135) scale(0.08 -0.08)">
    <defs>
     <path id="Lato-Regular-25cf" d="M 355 1939 
Q 355 2262 478 2547 
Q 602 2832 813 3043 
Q 1024 3254 1309 3377 
Q 1594 3501 1917 3501 
Q 2240 3501 2525 3377 
Q 2810 3254 3022 3043 
Q 3235 2832 3358 2547 
Q 3482 2262 3482 1939 
Q 3482 1613 3358 1328 
Q 3235 1043 3022 832 
Q 2810 621 2525 497 
Q 2240 374 1917 374 
Q 1594 374 1309 497 
Q 1024 621 813 832 
Q 602 1043 478 1328 
Q 355 1613 355 1939 
z
" transform="scale(0.015625)"/>
     <path id="Lato-Regular-7a" d="M 2688 2998 
Q 2688 2938 2667 2880 
Q 2646 2822 2611 2781 
L 854 445 
L 2627 445 
L 2627 0 
L 186 0 
L 186 237 
Q 186 278 205 334 
Q 224 390 262 442 
L 2029 2794 
L 285 2794 
L 285 3242 
L 2688 3242 
L 2688 2998 
z
" transform="scale(0.015625)"/>
    </defs>
    <use xlink:href="#Lato-Regular-25cf"/>
    <use xlink:href="#Lato-Regular-20" transform="translate(60.000015 0)"/>
    <use xlink:href="#Lato-Regular-67" transform="translate(85.600021 0)"/>
    <use xlink:href="#Lato-Regular-72" transform="translate(137.600021 0)"/>
    <use xlink:href="#Lato-Regular-65" transform="translate(174.000031 0)"/>
    <use xlink:href="#Lato-Regular-65" transform="translate(226.800034 0)"/>
    <use xlink:href="#Lato-Regular-64" transform="translate(279.600037 0)"/>
    <use xlink:href="#Lato-Regular-79" transform="translate(335.600037 0)"/>
    <use xlink:href="#Lato-Regular-20" transform="translate(387.15004 0)"/>
    <use xlink:href="#Lato-Regular-28" transform="translate(412.750046 0)"/>
    <use xlink:href="#Lato-Regular-73" transform="translate(439.450043 0)"/>
    <use xlink:href="#Lato-Regular-69" transform="translate(482.750046 0)"/>
    <use xlink:href="#Lato-Regular-7a" transform="translate(506.750046 0)"/>
    <use xlink:href="#Lato-Regular-65" transform="translate(551.950043 0)"/>
    <use xlink:href="#Lato-Regular-29" transform="translate(604.750046 0)"/>
   </g>
  </g>
  <g id="text_17">
   <!-- ● best-fit -->
   <g style="fill: #54aeff" transform="translate(63.65664 43.0301) scale(0.08 -0.08)">
    <defs>
     <path id="Lato-Regular-2d" d="M 400 2160 
L 1981 2160 
L 1981 1677 
L 400 1677 
L 400 2160 
z
" transform="scale(0.015625)"/>
    </defs>
    <use xlink:href="#Lato-Regular-25cf"/>
    <use xlink:href="#Lato-Regular-20" transform="translate(60.000015 0)"/>
    <use xlink:href="#Lato-Regular-62" transform="translate(85.600021 0)"/>
    <use xlink:href="#Lato-Regular-65" transform="translate(141.600021 0)"/>
    <use xlink:href="#Lato-Regular-73" transform="translate(194.400024 0)"/>
    <use xlink:href="#Lato-Regular-74" transform="translate(237.700027 0)"/>
    <use xlink:href="#Lato-Regular-2d" transform="translate(273.550034 0)"/>
    <use xlink:href="#Lato-Regular-66" transform="translate(310.700043 0)"/>
    <use xlink:href="#Lato-Regular-69" transform="translate(345.750046 0)"/>
    <use xlink:href="#Lato-Regular-74" transform="translate(369.750046 0)"/>
   </g>
  </g>
  <g id="text_18">
   <!-- ● tabu search -->
   <g style="fill: #bc4c00" transform="translate(105.07968 43.0301) scale(0.08 -0.08)">
    <use xlink:href="#Lato-Regular-25cf"/>
    <use xlink:href="#Lato-Regular-20" transform="translate(60.000015 0)"/>
    <use xlink:href="#Lato-Regular-74" transform="translate(85.600021 0)"/>
    <use xlink:href="#Lato-Regular-61" transform="translate(121.450027 0)"/>
    <use xlink:href="#Lato-Regular-62" transform="translate(171.15004 0)"/>
    <use xlink:href="#Lato-Regular-75" transform="translate(227.15004 0)"/>
    <use xlink:href="#Lato-Regular-20" transform="translate(282.90004 0)"/>
    <use xlink:href="#Lato-Regular-73" transform="translate(308.500046 0)"/>
    <use xlink:href="#Lato-Regular-65" transform="translate(351.800049 0)"/>
    <use xlink:href="#Lato-Regular-61" transform="translate(404.600052 0)"/>
    <use xlink:href="#Lato-Regular-72" transform="translate(454.300064 0)"/>
    <use xlink:href="#Lato-Regular-63" transform="translate(490.700073 0)"/>
    <use xlink:href="#Lato-Regular-68" transform="translate(538.450073 0)"/>
   </g>
  </g>
  <g id="text_19">
   <!-- ● telamalloc -->
   <g style="fill: #1b7c83" transform="translate(158.65056 43.0301) scale(0.08 -0.08)">
    <use xlink:href="#Lato-Regular-25cf"/>
    <use xlink:href="#Lato-Regular-20" transform="translate(60.000015 0)"/>
    <use xlink:href="#Lato-Regular-74" transform="translate(85.600021 0)"/>
    <use xlink:href="#Lato-Regular-65" transform="translate(121.450027 0)"/>
    <use xlink:href="#Lato-Regular-6c" transform="translate(174.250031 0)"/>
    <use xlink:href="#Lato-Regular-61" transform="translate(197.850037 0)"/>
    <use xlink:href="#Lato-Regular-6d" transform="translate(247.550049 0)"/>
    <use xlink:href="#Lato-Regular-61" transform="translate(329.800064 0)"/>
    <use xlink:href="#Lato-Regular-6c" transform="translate(379.500076 0)"/>
    <use xlink:href="#Lato-Regular-6c" transform="translate(403.100082 0)"/>
    <use xlink:href="#Lato-Regular-6f" transform="translate(426.700089 0)"/>
    <use xlink:href="#Lato-Regular-63" transform="translate(483.400101 0)"/>
   </g>
  </g>
  <g id="text_20">
   <!-- ● minimalloc -->
   <g style="fill: #bf3989" transform="translate(208.17216 43.0301) scale(0.08 -0.08)">
    <use xlink:href="#Lato-Regular-25cf"/>
    <use xlink:href="#Lato-Regular-20" transform="translate(60.000015 0)"/>
    <use xlink:href="#Lato-Regular-6d" transform="translate(85.600021 0)"/>
    <use xlink:href="#Lato-Regular-69" transform="translate(167.850037 0)"/>
    <use xlink:href="#Lato-Regular-6e" transform="translate(191.850037 0)"/>
    <use xlink:href="#Lato-Regular-69" transform="translate(247.65004 0)"/>
    <use xlink:href="#Lato-Regular-6d" transform="translate(271.65004 0)"/>
    <use xlink:href="#Lato-Regular-61" transform="translate(353.900055 0)"/>
    <use xlink:href="#Lato-Regular-6c" transform="translate(403.600067 0)"/>
    <use xlink:href="#Lato-Regular-6c" transform="translate(427.200073 0)"/>
    <use xlink:href="#Lato-Regular-6f" transform="translate(450.800079 0)"/>
    <use xlink:href="#Lato-Regular-63" transform="translate(507.500092 0)"/>
   </g>
  </g>
  <g id="text_21">
   <!-- ● supermalloc -->
   <g style="fill: #8250df" transform="translate(257.69376 43.0301) scale(0.08 -0.08)">
    <use xlink:href="#Lato-Regular-25cf"/>
    <use xlink:href="#Lato-Regular-20" transform="translate(60.000015 0)"/>
    <use xlink:href="#Lato-Regular-73" transform="translate(85.600021 0)"/>
    <use xlink:href="#Lato-Regular-75" transform="translate(128.900024 0)"/>
    <use xlink:href="#Lato-Regular-70" transform="translate(184.650024 0)"/>
    <use xlink:href="#Lato-Regular-65" transform="translate(240.700027 0)"/>
    <use xlink:href="#Lato-Regular-72" transform="translate(293.500031 0)"/>
    <use xlink:href="#Lato-Regular-6d" transform="translate(329.90004 0)"/>
    <use xlink:href="#Lato-Regular-61" transform="translate(412.150055 0)"/>
    <use xlink:href="#Lato-Regular-6c" transform="translate(461.850067 0)"/>
    <use xlink:href="#Lato-Regular-6c" transform="translate(485.450073 0)"/>
    <use xlink:href="#Lato-Regular-6f" transform="translate(509.050079 0)"/>
    <use xlink:href="#Lato-Regular-63" transform="translate(565.750092 0)"/>
   </g>
  </g>
 </g>
 <defs>
  <clipPath id="p301224f241">
   <rect x="71.208" y="53.298" width="192.888" height="156.78"/>
  </clipPath>
 </defs>
</svg>
